<svg width="342" height="237" viewBox="0 0 342 237" fill="none" xmlns="http://www.w3.org/2000/svg">
<g clip-path="url(#clip0_1231_9986)">
<g opacity="0.1" clip-path="url(#clip1_1231_9986)">
<path d="M384.488 170.969C382.068 170.036 379.555 169.569 376.966 169.471C373.874 169.351 370.832 169.729 367.834 170.436C360.739 172.098 354.142 174.951 347.963 178.782C345.161 180.516 342.514 182.462 340.094 184.702C337.603 187.004 335.446 189.578 333.64 192.453C331.118 196.467 329.521 200.813 328.845 205.498C328.226 209.773 328.578 213.987 329.654 218.156C330.78 222.511 332.412 226.667 334.561 230.618C335.606 232.538 336.807 234.351 338.217 236.027C338.32 236.151 338.4 236.298 338.489 236.431L338.013 237.111C336.478 235.582 335.21 233.844 334.111 231.987C331.167 226.991 329.098 221.649 327.955 215.969C326.776 210.111 327.275 204.369 329.25 198.742C330.535 195.084 332.386 191.738 334.765 188.684C337.261 185.48 340.197 182.724 343.488 180.356C350.45 175.338 358.087 171.738 366.406 169.604C369.226 168.88 372.095 168.44 375.013 168.378C378.336 168.307 381.565 168.796 384.666 170.04C384.795 170.093 384.928 170.124 385.062 170.169C384.87 170.44 384.679 170.711 384.488 170.982V170.969Z" fill="white"/>
<path d="M339.917 234.391C339.241 233.387 338.524 232.405 337.897 231.369C334.823 226.258 332.386 220.853 330.718 215.125C329.957 212.516 329.517 209.845 329.481 207.12C329.441 203.836 330.122 200.711 331.545 197.742C332.257 196.267 333.093 194.871 334.054 193.556C340.375 184.907 348.6 178.84 358.773 175.436C362.612 174.151 366.548 173.258 370.547 172.658C372.549 172.36 374.56 172.276 376.584 172.489C378.581 172.698 380.489 173.2 382.286 174.098C382.157 174.28 382.033 174.458 381.904 174.64C380.694 174.071 379.417 173.738 378.105 173.529C376.099 173.205 374.079 173.16 372.069 173.431C365.979 174.249 360.063 175.725 354.431 178.236C349.694 180.347 345.437 183.2 341.611 186.685C338.903 189.151 336.46 191.858 334.405 194.893C332.733 197.365 331.483 200.027 330.913 202.978C330.504 205.085 330.464 207.205 330.687 209.333C330.971 212.04 331.585 214.68 332.488 217.24C334.437 222.782 336.861 228.102 340.006 233.076C340.139 233.284 340.264 233.498 340.393 233.711L339.917 234.391Z" fill="white"/>
<path d="M94.7341 -2.92383C94.436 -2.21716 94.1647 -1.49272 93.8311 -0.799383C92.0651 2.86284 89.8188 6.23617 87.3367 9.47173C83.6802 14.2317 79.6056 18.6317 75.3531 22.8806C70.5668 27.6584 65.4069 32.0139 60.0156 36.1206C55.3094 39.7028 50.4786 43.1117 45.4476 46.2495C41.6177 48.6362 37.6321 50.734 33.4418 52.4584C32.0228 53.0406 30.5772 53.534 29.0514 53.7784C28.6733 53.8406 28.3086 53.8495 27.9483 53.7073C27.4367 53.5028 27.2276 52.9962 27.5301 52.5517C27.6903 52.3117 27.9171 52.0984 28.1573 51.934C28.5577 51.6673 28.9847 51.4273 29.4206 51.2184C31.3689 50.2806 33.3084 49.3251 35.2789 48.4362C40.9416 45.8762 45.9859 42.414 50.612 38.3517C53.0719 36.1962 55.4028 33.9117 57.6046 31.5073C57.8449 31.2451 58.0628 30.9651 58.2897 30.6939C58.0539 30.4939 57.9472 30.6584 57.8582 30.7384C55.0291 33.1428 52.0177 35.3339 49.1886 37.7428C43.8596 42.2717 37.9568 45.9206 31.3734 48.4717C29.7765 49.0895 28.1262 49.5784 26.4892 50.0984C26.1467 50.2095 25.7731 50.3517 25.3994 50.1428C25.3994 49.8495 25.3994 49.5562 25.3994 49.2628C25.7108 49.1339 26.0177 48.9962 26.3335 48.8851C28.9358 47.9517 31.4579 46.8273 33.9267 45.5962C38.7486 43.1917 43.2235 40.2539 47.6139 37.1695C50.7321 34.9784 53.6813 32.6184 56.2168 29.7873C56.7595 29.1784 57.32 28.5873 57.8671 27.9828C64.7797 20.2628 70.4823 11.7784 74.6859 2.35617C75.4643 0.609505 76.1983 -1.15494 76.95 -2.91049C77.3237 -2.91049 77.7018 -2.91049 78.0754 -2.91049C77.9954 -2.70605 77.9197 -2.50161 77.8352 -2.29716C75.7624 2.89395 73.4003 7.95617 70.4912 12.7562C67.6176 17.4939 64.3793 21.9784 60.7807 26.214C60.5805 26.4495 60.3981 26.7028 60.2069 26.9473C60.4515 26.9384 60.5939 26.8406 60.7229 26.7251C61.4435 26.0851 62.1507 25.4273 62.8803 24.7962C63.8945 23.9162 64.753 22.9117 65.5492 21.8362C68.6496 17.6451 71.3986 13.2362 74.0631 8.77395C76.3851 4.88506 78.6893 0.982839 81.0024 -2.91049C81.4516 -2.91049 81.9009 -2.91049 82.3546 -2.91049C82.0166 -2.34161 81.683 -1.77272 81.3404 -1.20383C77.7329 4.74728 74.3701 10.8362 70.5624 16.6717C70.5001 16.7651 70.509 16.8984 70.4334 17.2228C70.8337 16.7784 71.0784 16.5073 71.323 16.2317C76.0693 10.8806 79.8503 4.93839 82.795 -1.52827C83.0085 -1.99494 83.2487 -2.44827 83.4756 -2.90605C83.8492 -2.90605 84.2273 -2.90605 84.601 -2.90605C84.5965 -2.8705 84.5965 -2.83049 84.5832 -2.79938C82.1856 2.76062 79.2498 8.02728 75.5577 12.8762C72.6842 16.654 69.4503 20.1162 66.043 23.4317C65.4335 24.0228 64.8642 24.6628 64.3348 25.3251C60.4916 30.1784 56.3636 34.7695 51.684 38.8762C46.9111 43.0628 41.7333 46.6539 35.9017 49.3028C34.1002 50.1206 32.3253 50.9917 30.5416 51.8451C30.2124 52.0051 29.8921 52.1828 29.345 52.4673C29.7053 52.4495 29.8121 52.4673 29.901 52.4362C30.9597 52.0717 32.0362 51.7562 33.0682 51.3295C37.423 49.5162 41.5421 47.2628 45.501 44.7339C51.5017 40.8984 57.2443 36.7162 62.7913 32.2762C71.0072 25.6984 78.4135 18.3384 85.0236 10.2184C87.9238 6.65839 90.5883 2.93395 92.8169 -1.07494C93.155 -1.68827 93.4975 -2.29716 93.8355 -2.91049C94.1336 -2.91049 94.436 -2.91049 94.7341 -2.91049V-2.92383Z" fill="white"/>
<path d="M76.5008 -2.92427C76.434 -2.71982 76.4029 -2.50204 76.3006 -2.31982C71.2652 6.95129 65.1578 15.4802 57.8404 23.178C52.7294 28.5557 47.3203 33.6224 41.4887 38.2491C38.5173 40.6046 35.4435 42.8224 32.1385 44.7202C30.5861 45.6135 28.9758 46.3868 27.2365 46.8802C26.8762 46.9824 26.5204 47.1068 26.1512 47.1468C25.9065 47.1735 25.6485 47.0802 25.3994 47.0402C25.3994 46.9646 25.3994 46.8935 25.3994 46.818C25.4973 46.7691 25.5951 46.698 25.7019 46.6713C27.9749 46.1068 30.0389 45.0802 32.0184 43.8846C35.3724 41.858 38.4995 39.5291 41.5243 37.0624C48.3301 31.5068 54.6332 25.4535 60.4159 18.8846C66.1364 12.3913 71.0072 5.32462 75.1396 -2.22649C75.2552 -2.43982 75.2953 -2.69316 75.3709 -2.92871C75.7446 -2.92871 76.1227 -2.92871 76.4963 -2.92871L76.5008 -2.92427Z" fill="white"/>
<path d="M69.7885 147.289C69.5617 147.146 69.3259 147.013 69.1035 146.866C66.6614 145.275 64.0814 144.022 61.2613 143.364C59.2773 142.902 57.2712 142.773 55.2384 142.978C53.3434 143.164 51.4885 143.538 49.6558 144.035C49.3978 144.106 49.1354 144.164 48.7929 144.404C49.1443 144.422 49.3533 144.435 49.5668 144.44C51.8399 144.489 54.0907 144.733 56.3282 145.173C59.998 145.898 63.4409 147.244 66.7015 149.111C69.0546 150.458 71.2476 152.044 73.2582 153.898C73.6407 154.249 74.0499 154.48 74.5437 154.631C78.0756 155.698 81.4741 157.106 84.659 159.049C87.279 160.644 89.6721 162.542 91.6872 164.929C94.6008 168.386 96.3667 172.378 96.9361 176.946C97.2342 179.338 97.2164 181.724 96.945 184.115C96.389 189.035 94.9122 193.644 92.5813 197.955C90.5218 201.769 87.8973 205.133 84.8414 208.124C78.7117 214.129 71.5767 218.346 63.5832 221.022C60.4428 222.071 57.2445 222.84 53.9839 223.395C49.509 224.155 45.003 224.351 40.4924 224.093C34.2338 223.733 28.1931 222.346 22.4949 219.52C21.9922 219.271 21.4584 219.084 20.9335 218.893C18.2691 217.92 15.8225 216.569 13.6562 214.653C11.2853 212.555 9.53272 209.991 8.22939 207.084C7.9358 206.431 7.58439 205.844 7.13512 205.298C3.9146 201.395 1.67268 196.969 0.631797 191.92C0.0935606 189.311 -0.119955 186.68 0.0668712 184.004C0.489454 177.866 2.57123 172.36 5.85848 167.306C8.30056 163.542 11.3298 160.346 14.6882 157.471C21.5919 151.564 29.4653 147.742 38.1438 145.671C39.8386 145.266 41.5511 144.938 43.2904 144.795C43.9398 144.742 44.5937 144.684 45.2387 144.609C45.5456 144.573 45.8526 144.506 46.1462 144.404C48.0589 143.72 50.0028 143.178 51.9867 142.773C54.1975 142.324 56.4305 142.151 58.6724 142.351C60.8876 142.551 63.0005 143.2 65.0334 144.133C66.4301 144.773 67.7646 145.538 69.0457 146.395C69.3526 146.6 69.6729 146.8 69.8953 147.106C69.8597 147.164 69.8241 147.222 69.7885 147.28V147.289ZM19.4167 217.889C19.3055 217.746 19.1765 217.662 18.9941 217.746C19.003 217.444 18.7361 217.426 18.5715 217.302C17.4105 216.435 16.2184 215.613 15.093 214.693C13.2248 213.169 11.6234 211.36 10.1911 209.391C10.1154 209.289 10.0532 209.173 9.9642 209.084C9.89747 209.022 9.87523 208.84 9.7151 208.933C9.72399 209.013 9.7151 209.084 9.74179 209.133C11.8591 212.946 14.8395 215.778 18.6561 217.666C18.7584 217.72 18.8963 217.702 19.0164 217.72C19.1009 217.969 19.2699 217.929 19.4478 217.858C19.4701 218.169 19.688 218.053 19.8482 218.058C19.866 218.089 19.8838 218.115 19.9016 218.146C19.8749 218.124 19.8437 218.102 19.8126 218.089C19.6836 218.022 19.5546 217.955 19.4211 217.893L19.4167 217.889ZM62.4445 212.418C61.1323 212.804 59.8245 213.218 58.5034 213.569C56.2481 214.169 53.9617 214.626 51.6531 214.96C50.2385 215.164 48.8106 215.253 47.3917 215.418C46.7155 215.498 46.0349 215.6 45.3766 215.769C41.689 216.729 37.957 217.355 34.1448 217.338C33.9758 217.338 33.8067 217.36 33.6155 217.373C33.66 217.449 33.6733 217.498 33.6911 217.502C34.0247 217.573 34.3583 217.658 34.6964 217.711C37.1296 218.084 39.5761 218.28 42.036 218.249C44.0243 218.222 46.0038 218.08 47.9788 217.778C50.9414 217.329 53.8194 216.578 56.6129 215.48C58.4767 214.746 60.2738 213.875 62.013 212.866C62.1776 212.773 62.4578 212.755 62.4312 212.449C62.4756 212.449 62.5201 212.449 62.5646 212.449C62.5468 212.458 62.5246 212.48 62.5112 212.475C62.4845 212.466 62.4667 212.44 62.4445 212.422V212.418ZM43.7352 154.422C43.6507 154.458 43.5662 154.506 43.4772 154.524C40.6748 155.124 37.9258 155.92 35.2213 156.898C30.4083 158.631 25.8577 160.911 21.6897 163.986C18.745 166.155 16.1517 168.702 14.1011 171.813C10.5336 177.222 8.99003 183.195 9.49268 189.738C9.52382 190.115 9.62168 190.489 9.69286 190.862C9.81296 190.515 9.81296 190.173 9.8441 189.835C9.92416 188.964 9.98199 188.089 10.1199 187.231C10.6581 183.911 11.7835 180.804 13.3449 177.862C14.9818 174.778 17.0547 172.031 19.4478 169.551C26.1024 162.671 33.9046 157.769 42.8989 154.946C43.1658 154.862 43.4327 154.778 43.6907 154.671C43.7308 154.653 43.713 154.498 43.7308 154.418C43.9472 154.486 44.2141 154.465 44.5314 154.355C44.14 154.391 43.9354 154.404 43.7352 154.422ZM6.73478 181.995C6.82374 181.995 6.97498 182.026 6.99278 181.991C7.11733 181.733 7.22408 181.462 7.32639 181.191C8.26052 178.68 9.38148 176.262 10.7159 173.955C15.6001 165.484 22.0723 158.582 29.8523 152.978C33.1084 150.635 36.5736 148.666 40.1633 146.938C40.4302 146.809 40.7504 146.751 40.9906 146.395C40.8127 146.378 40.706 146.351 40.5992 146.364C39.9809 146.435 39.3581 146.489 38.7487 146.604C35.4304 147.249 32.2543 148.333 29.2651 149.986C24.2208 152.773 19.946 156.538 16.3207 161.106C11.8502 166.742 8.74538 173.089 7.1885 180.231C7.0595 180.826 6.89047 181.413 6.74367 182.009L6.77036 182.426C6.79705 182.422 6.82374 182.413 6.85043 182.409C6.8104 182.271 6.77481 182.133 6.73478 181.995ZM6.50347 202.751C6.53016 202.826 6.55685 202.898 6.57909 202.973C6.59688 202.951 6.62802 202.929 6.62802 202.902C6.62802 202.804 6.61023 202.715 6.48123 202.769C6.46344 202.582 6.48123 202.382 6.41895 202.209C5.73392 200.151 5.29355 198.04 5.10228 195.871C4.95993 194.222 4.93769 192.573 5.08893 190.924C5.20458 189.666 5.4181 188.422 5.52486 187.164C5.7962 183.964 6.34778 180.818 7.17071 177.724C8.89662 171.226 11.9036 165.435 16.036 160.262C18.2513 157.489 20.7334 155 23.5046 152.822C23.6514 152.706 23.7982 152.586 23.945 152.462C24.0696 152.36 24.243 152.302 24.3053 152.004C23.8827 152.231 23.5224 152.409 23.1799 152.613C18.2201 155.542 13.7585 159.133 9.91527 163.533C7.32195 166.498 5.20014 169.795 3.61212 173.458C2.0063 177.155 1.08552 181.031 0.938726 185.089C0.849761 187.493 1.11666 189.875 1.64155 192.218C2.46447 195.889 3.96797 199.24 6.0542 202.315C6.1743 202.489 6.23658 202.742 6.50347 202.751ZM57.3157 153.604C55.7944 153.711 54.2731 153.809 52.7562 153.92C50.7679 154.066 48.8151 154.435 46.8712 154.898C40.5058 156.409 34.5629 158.955 29.0961 162.689C25.1238 165.404 21.4762 168.52 18.3269 172.24C16.1117 174.858 14.279 177.738 12.9267 180.938C10.8494 185.844 10.2 190.929 11.1341 196.222C11.2542 196.902 11.4899 197.524 11.7835 198.133C13.2959 201.24 15.3644 203.884 17.9221 206.124C20.9513 208.786 24.3765 210.724 28.0997 212.111C30.5328 213.018 33.0194 213.689 35.5816 214.084C37.4899 214.378 39.4026 214.626 41.3332 214.635C42.5787 214.64 43.8242 214.622 45.0697 214.635C45.7013 214.644 46.2974 214.52 46.8979 214.324C49.6647 213.426 52.3248 212.262 54.8603 210.804C61.328 207.08 66.4879 201.951 70.1444 195.24C73.2493 189.542 75.202 183.435 76.0205 176.938C76.3808 174.062 76.4253 171.195 76.0072 168.32C75.2954 163.431 73.2181 159.302 69.7663 155.911C69.4416 155.591 69.0857 155.391 68.6498 155.258C64.9489 154.146 61.1678 153.662 57.3201 153.6L57.3157 153.604ZM12.1661 210.249C12.3573 210.733 12.6198 210.955 12.8378 211.2C14.6037 213.186 16.6054 214.871 18.8028 216.311C24.7857 220.244 31.3914 222.231 38.3751 222.964C39.7985 223.115 41.2309 223.155 42.6587 223.195C45.7102 223.289 48.7573 223.151 51.7865 222.755C53.8194 222.493 55.8389 222.115 57.8406 221.653C63.9524 220.235 69.7307 217.938 75.1086 214.591C79.7081 211.733 83.8405 208.271 87.3502 204.04C90.3038 200.48 92.6703 196.546 94.2049 192.102C95.7974 187.48 96.6514 182.738 96.1666 177.804C95.9175 175.235 95.2814 172.778 94.196 170.458C92.6969 167.253 90.5396 164.604 87.8573 162.418C84.2898 159.506 80.2686 157.511 75.976 156.071C75.8248 156.022 75.6647 156.004 75.4734 155.96C75.5134 156.062 75.5179 156.098 75.5357 156.12C75.8915 156.529 76.2563 156.924 76.5988 157.346C76.9013 157.724 77.2571 158.022 77.6664 158.271C81.6876 160.729 85.0816 163.933 87.9507 167.742C90.0858 170.573 91.7361 173.666 92.6836 177.142C93.6533 180.711 93.7779 184.289 92.7815 187.875C91.8429 191.266 90.1348 194.213 87.8973 196.84C85.7577 199.355 83.2756 201.453 80.6333 203.36C76.5499 206.306 72.1728 208.671 67.5511 210.551C67.0929 210.738 66.6347 210.969 66.2344 211.258C59.5754 216.053 52.218 218.689 44.1267 219.124C41.133 219.284 38.1616 219.142 35.1946 218.724C33.1262 218.435 31.0889 218 29.1094 217.315C27.984 216.929 26.8453 216.64 25.6887 216.386C21.0714 215.373 16.7967 213.533 12.9089 210.733C12.7132 210.591 12.5041 210.466 12.1661 210.244V210.249ZM50.4209 214.058C50.4432 214.098 50.4654 214.138 50.4876 214.178C51.6531 213.995 52.823 213.844 53.9839 213.622C57.9607 212.866 61.8484 211.746 65.6517 210.311C66.0965 210.142 66.4879 209.889 66.8571 209.591C68.9434 207.938 70.8561 206.084 72.5598 204.004C78.2268 197.084 81.7988 189.16 82.9553 180.115C83.3468 177.071 83.2133 174.044 82.6128 171.035C81.7143 166.56 79.717 162.658 76.9324 159.16C76.67 158.831 76.3586 158.578 75.9983 158.378C74.6549 157.631 73.2715 156.964 71.8525 156.386C71.7324 156.338 71.5945 156.342 71.3321 156.306C71.5856 156.613 71.7413 156.809 71.9014 157.004C72.0616 157.2 72.2306 157.395 72.3863 157.595C75.4067 161.453 76.8345 165.924 77.0925 170.844C77.2482 173.8 77.0214 176.738 76.492 179.644C75.5579 184.76 73.9743 189.653 71.6523 194.275C69.5884 198.386 66.9639 202.058 63.7122 205.24C60.0691 208.804 55.9367 211.578 51.3461 213.622C51.0348 213.76 50.7323 213.911 50.4254 214.058H50.4209ZM69.6595 208.493C69.9754 208.551 70.18 208.386 70.3979 208.284C73.8765 206.68 77.1726 204.738 80.2953 202.475C82.1368 201.138 83.9028 199.706 85.5175 198.084C87.8929 195.702 89.8812 193.026 91.1668 189.835C92.5012 186.524 92.906 183.111 92.2877 179.564C91.7895 176.693 90.8109 174.013 89.3519 171.533C86.8208 167.218 83.5336 163.626 79.5702 160.706C79.459 160.622 79.3344 160.56 79.1965 160.475C79.1743 160.573 79.1521 160.609 79.1654 160.631C79.3122 160.875 79.459 161.124 79.6147 161.364C83.1599 166.853 84.4988 172.929 83.9517 179.471C83.7249 182.218 83.151 184.906 82.3504 187.538C79.9439 195.444 75.9716 202.333 70.1177 208.004C69.9665 208.151 69.8286 208.315 69.6595 208.502V208.493ZM16.1383 167.435C16.165 167.462 16.1917 167.489 16.2184 167.511C16.3474 167.386 16.4809 167.262 16.6099 167.138C17.3483 166.44 18.06 165.72 18.8206 165.053C21.8143 162.435 25.1505 160.373 28.669 158.626C33.0283 156.458 37.5966 154.915 42.3029 153.795C44.9362 153.169 47.6096 152.729 50.2964 152.458C51.9956 152.284 53.7082 152.213 55.4163 152.164C57.7783 152.098 60.1448 152.129 62.4979 152.373C63.3341 152.462 64.1704 152.533 65.0067 152.6C65.1357 152.609 65.3181 152.693 65.4026 152.426C65.1802 152.275 64.9622 152.098 64.722 151.964C63.7389 151.409 62.7737 150.813 61.7639 150.32C56.2659 147.626 50.4921 146.142 44.3891 146.146C43.9131 146.146 43.4728 146.222 43.0324 146.422C36.7515 149.249 30.8665 152.764 25.6086 157.355C22.2858 160.253 19.2254 163.422 16.4942 166.933C16.3697 167.098 16.2496 167.266 16.1295 167.431L16.1383 167.435ZM22.7351 214.609C22.7484 214.578 22.7662 214.542 22.7796 214.511C22.5838 214.369 22.3926 214.226 22.1968 214.089C21.4495 213.564 20.6756 213.075 19.9594 212.506C15.2176 208.746 12.0415 203.889 10.5469 197.866C10.4535 197.493 10.3556 197.115 10.2222 196.755C9.4482 194.693 8.93221 192.569 8.67866 190.373C8.38507 187.849 8.46069 185.333 8.83879 182.826C9.14572 180.804 9.67506 178.849 10.3957 176.946C10.4668 176.755 10.5113 176.555 10.5647 176.36C10.3201 176.604 10.1644 176.884 10.0265 177.169C9.15907 178.929 8.42066 180.742 7.78011 182.604C6.22768 187.12 5.54265 191.746 6.09423 196.538C6.45899 199.729 7.37532 202.724 8.84769 205.542C9.15017 206.12 9.52827 206.613 9.98644 207.062C13.5183 210.506 17.633 212.911 22.2235 214.453C22.3926 214.511 22.5616 214.555 22.7351 214.609ZM13.3226 202.458C13.287 202.493 13.2514 202.529 13.2159 202.564C13.2559 202.68 13.287 202.8 13.3404 202.906C14.6348 205.48 16.2496 207.8 18.2824 209.8C20.9158 212.391 23.9672 214.289 27.3301 215.649C27.6192 215.764 27.9128 215.893 28.2153 215.933C29.4786 216.093 30.7464 216.28 32.0141 216.342C34.1893 216.444 36.3689 216.426 38.5352 216.146C39.4204 216.031 40.3145 215.964 41.3198 215.658C41.0618 215.613 40.9506 215.578 40.835 215.573C38.7265 215.435 36.6269 215.222 34.5407 214.835C30.6307 214.111 26.8986 212.849 23.3667 210.955C19.7637 209.022 16.5743 206.529 13.9721 203.266C13.7541 202.995 13.5361 202.724 13.3137 202.453L13.3226 202.458ZM71.5322 153.778C69.8019 151.844 64.6731 148.849 60.8787 147.431C56.9598 145.964 51.057 145.186 48.9308 145.506C50.0739 145.724 51.2661 145.92 52.4449 146.178C57.7916 147.338 62.7781 149.404 67.2708 152.684C67.5288 152.875 67.7957 153.018 68.1071 153.08C69.2014 153.298 70.2912 153.524 71.5322 153.778ZM69.3704 154.369C70.9762 155.026 72.3774 155.604 73.7786 156.178C73.8898 156.222 74.0099 156.249 74.13 156.271C74.1522 156.275 74.1834 156.244 74.2101 156.231C73.6496 155.413 73.5073 155.289 72.7244 155.084C71.7947 154.835 70.865 154.609 69.9309 154.378C69.8241 154.351 69.704 154.378 69.3704 154.378V154.369ZM45.132 154.271C45.132 154.271 45.1231 154.218 45.1097 154.213C45.083 154.204 45.0519 154.213 45.0252 154.213C45.0341 154.244 45.043 154.271 45.0519 154.302C45.0786 154.293 45.1053 154.284 45.132 154.275V154.271ZM9.35924 208.369L9.39038 208.453L9.42151 208.373H9.35924V208.369Z" fill="white"/>
<path d="M51.7376 102.738C51.5286 103.36 51.3595 103.898 51.3818 104.511C51.4129 105.471 50.63 106.182 49.647 106.249C48.6906 106.316 47.7431 105.564 47.6586 104.613C47.5518 103.462 47.9477 102.422 49.3 101.938C49.8427 101.742 50.461 101.689 50.7813 102.253C51.0126 102.662 51.3729 102.524 51.7421 102.733L51.7376 102.738Z" fill="white"/>
<path d="M62.3068 96.8082C62.3068 97.1282 62.3335 97.3638 62.3023 97.5904C62.2134 98.1993 61.5995 98.4971 61.0791 98.186C60.781 98.0082 60.5097 97.786 60.2206 97.5993C59.6957 97.2616 59.5578 96.7593 59.6245 96.186C59.7179 95.3949 60.3006 95.026 61.0346 95.2793C61.1413 95.3149 61.2348 95.4082 61.3415 95.4393C62.0666 95.6616 62.4981 96.0704 62.3068 96.8082Z" fill="white"/>
<path d="M59.6512 114.044C59.7313 114.889 59.8069 115.587 59.8558 116.289C59.9047 116.978 59.7224 117.609 59.2509 118.133C58.8372 118.591 58.1699 118.538 57.8675 118.004C57.734 117.769 57.6495 117.502 57.5917 117.236C57.5205 116.916 57.565 116.56 57.863 116.391C58.3212 116.133 58.4457 115.689 58.6548 115.271C58.8283 114.92 59.024 114.582 59.2286 114.253C59.2775 114.178 59.411 114.156 59.6512 114.04V114.044Z" fill="white"/>
<path d="M57.8004 101.604C57.8983 102.173 58.0718 102.653 58.4765 103.053C58.8057 103.382 58.8057 103.818 58.5433 104.236C58.2764 104.658 57.8805 104.742 57.4268 104.68C56.8129 104.591 56.377 104.116 56.3369 103.498C56.3103 103.098 56.3903 102.729 56.6261 102.396C56.9019 102.005 57.2533 101.733 57.8004 101.609V101.604Z" fill="white"/>
<path d="M55.2074 95.0175C55.1007 95.7597 55.0206 96.4486 54.896 97.1286C54.8338 97.4575 54.4245 97.7464 54.122 97.7597C53.8196 97.7731 53.4637 97.5064 53.3303 97.1597C53.1924 96.7953 53.0545 96.4309 52.9255 96.062C52.6942 95.3864 53.0856 94.8664 53.7884 94.9109C54.211 94.9375 54.6336 94.9731 55.2119 95.0175H55.2074Z" fill="white"/>
<path d="M63.0849 108.697C62.8492 109.195 62.7024 109.506 62.56 109.804C62.6579 110.195 62.7869 110.564 62.8403 110.946C62.907 111.386 62.6801 111.719 62.2887 111.87C61.9728 111.99 61.6303 111.884 61.3501 111.577C60.6562 110.813 60.6606 110.164 61.4213 109.439C61.7282 109.146 62.1063 108.928 62.471 108.706C62.5778 108.644 62.7513 108.697 63.0849 108.697Z" fill="white"/>
<path d="M62.0622 101.382C62.5648 101.577 62.8673 101.937 63.1698 102.293C63.5034 102.684 63.5345 102.982 63.3032 103.351C63.0497 103.755 62.6182 103.991 62.2223 103.893C61.9198 103.817 61.6173 103.72 61.3415 103.577C60.8522 103.324 60.7232 102.737 61.0213 102.266C61.2793 101.862 61.6618 101.6 62.0622 101.382Z" fill="white"/>
<path d="M57.009 108.568C56.6176 109.462 56.3596 110.111 56.0526 110.737C55.8569 111.142 55.3053 111.257 54.9317 110.986C54.4201 110.617 54.1488 110.115 54.2244 109.466C54.2822 108.999 54.7137 108.555 55.0963 108.724C55.6879 108.982 56.2039 108.777 57.0046 108.568H57.009Z" fill="white"/>
<path d="M72.6489 102.586C72.9915 102.968 73.2539 103.244 73.503 103.537C73.7432 103.821 73.8767 104.128 73.6898 104.506C73.4897 104.906 73.1382 105.079 72.7335 105.057C72.4354 105.044 72.1152 104.928 71.8527 104.777C71.1766 104.39 71.1099 103.63 71.7148 103.124C71.9728 102.906 72.3109 102.777 72.6534 102.586H72.6489Z" fill="white"/>
<path d="M65.8165 107.445C65.4517 107.445 65.1893 107.298 65.0203 107.013C64.8646 106.751 64.9135 106.493 65.0781 106.249C65.1848 106.089 65.2872 105.92 65.3984 105.765C65.6564 105.405 66.0167 105.285 66.4215 105.413C66.8396 105.547 67.1954 105.791 67.2889 106.267C67.3778 106.729 67.1421 107.138 66.7017 107.267C66.5149 107.32 66.3191 107.329 66.1279 107.369C66.0122 107.391 65.9055 107.427 65.8165 107.453V107.445Z" fill="white"/>
<path d="M69.0589 112.276C69.4593 112.764 69.268 113.169 69.0856 113.551C68.9388 113.853 68.6408 113.969 68.3339 114.053C67.7512 114.204 67.3286 113.933 67.2307 113.347C67.1195 112.667 67.4131 112.191 68.0047 112.164C68.3472 112.147 68.6942 112.236 69.0589 112.28V112.276Z" fill="white"/>
<path d="M284.109 31.0356C284.087 30.5956 284.194 30.1511 284.367 29.7378C284.861 28.5734 285.791 28.32 286.587 29.1245C286.756 29.2978 286.938 29.4489 287.09 29.6445C287.979 30.8045 287.93 33.0622 286.56 33.7556C286.249 33.9111 285.946 33.9245 285.635 33.8089C284.728 33.4756 284.118 32.3822 284.109 31.0311V31.0356Z" fill="white"/>
<path d="M292.761 42.9599C292.854 42.3599 292.939 41.7555 293.05 41.1599C293.081 40.9999 293.179 40.8266 293.281 40.7466C293.686 40.4177 294.091 40.071 294.598 40.4399C294.776 40.5688 295.003 40.551 295.203 40.6221C295.795 40.8355 296.11 41.4266 296.164 42.2666C296.244 43.5021 295.314 45.0355 294.647 45.3199C294.055 45.5732 293.481 45.3199 293.126 44.6132C292.876 44.1199 292.77 43.5643 292.752 42.9555L292.761 42.9599Z" fill="white"/>
<path d="M283.66 25.4795C283.576 24.7906 283.709 24.1862 283.967 23.6039C284.385 22.6617 285.204 22.3062 285.795 22.6617C286.596 23.1417 287.085 24.1506 286.916 25.2439C286.738 26.3862 286.245 27.2173 285.448 27.635C284.719 28.0173 283.936 27.5328 283.718 26.555C283.642 26.2217 283.678 25.8395 283.66 25.4795ZM285.528 24.355C285.488 24.3239 285.448 24.2839 285.408 24.2617C285.395 24.2573 285.368 24.3017 285.35 24.3239C285.39 24.3595 285.43 24.3995 285.475 24.4217C285.488 24.4262 285.515 24.3817 285.533 24.355H285.528Z" fill="white"/>
<path d="M288.638 40.7197C288.793 40.7419 288.847 40.7464 288.9 40.7597C289.638 40.9775 290.355 42.4042 290.208 43.4308C290.056 44.4886 289.629 45.2975 288.913 45.7597C288.175 46.2397 287.343 45.8086 286.987 44.7997C286.516 43.4664 287.005 41.5908 287.993 41.0086C288.228 40.8664 288.486 40.7864 288.642 40.7197H288.638Z" fill="white"/>
<path d="M291.071 24.2398C290.483 24.1953 290.074 23.9642 289.736 23.5242C289.256 22.902 289.131 21.9198 289.447 21.1153C289.736 20.3864 290.101 19.7953 290.79 19.8176C291.022 19.8264 291.248 19.6887 291.48 19.6309C292.316 19.4309 293.148 20.662 293.023 21.8087C292.908 22.9064 291.871 24.3331 291.071 24.2353V24.2398Z" fill="white"/>
<path d="M278.113 30.8082C278.002 30.7371 277.735 30.6482 277.539 30.4349C276.636 29.466 276.814 27.2526 277.837 26.5371C277.931 26.4749 278.033 26.4393 278.135 26.4082C278.998 26.1504 279.786 27.1282 279.968 28.0126C280.017 28.2526 280.017 28.5238 279.995 28.7726C279.901 29.7682 278.981 30.8393 278.113 30.8038V30.8082Z" fill="white"/>
<path d="M281.249 39.8711C281.249 39.7289 281.231 39.5067 281.249 39.2933C281.347 38.3778 282.019 37.9067 282.615 38.32C283.558 38.9689 283.718 40.6489 282.913 41.4667C282.544 41.84 282.143 41.9289 281.73 41.6133C281.316 41.3022 281.107 40.8444 281.218 40.1689C281.231 40.0978 281.231 40.0222 281.245 39.8755L281.249 39.8711Z" fill="white"/>
<path d="M285.257 46.9156C285.279 47.9112 284.665 48.8312 283.949 48.8756C283.366 48.9112 282.824 48.1645 282.793 47.2756C282.766 46.4534 283.273 45.5734 284.038 45.5378C284.545 45.5112 285.306 46.2312 285.257 46.9156Z" fill="white"/>
<path d="M299.051 40.2131C298.628 40.1064 298.206 39.942 298.005 39.2753C297.916 38.9864 297.921 38.7153 298.014 38.4308C298.286 37.6264 299.055 37.262 299.62 37.6842C299.909 37.8975 300.265 38.8264 300.198 39.2664C300.167 39.462 300.065 39.662 299.958 39.8086C299.789 40.0442 299.327 40.2264 299.051 40.2131Z" fill="white"/>
<path d="M291.422 35.3334C291.476 35.0667 291.534 34.6356 291.645 34.2356C291.752 33.8623 291.992 33.7112 292.281 33.7289C292.819 33.7645 293.335 34.4089 293.42 35.1423C293.46 35.48 293.411 35.8 293.259 36.0667C293.006 36.5112 292.663 36.7778 292.254 36.8134C291.796 36.8534 291.431 36.2534 291.422 35.3289V35.3334Z" fill="white"/>
<path d="M291.075 28.8309C290.813 28.8131 290.537 28.6442 290.306 28.3153C289.994 27.8753 290.074 26.9953 290.635 26.9064C290.879 26.8664 291.066 26.782 291.266 26.5686C291.533 26.2886 291.854 26.3464 292.067 26.5997C292.321 26.902 292.392 27.342 292.254 27.7909C292.067 28.4086 291.613 28.8353 291.075 28.8309Z" fill="white"/>
<path d="M282.254 33.5016C282.268 34.1461 282.05 34.6216 281.68 34.9772C281.311 35.3283 280.889 35.2527 280.617 34.8083C280.315 34.3149 280.324 33.5149 280.653 33.1194C280.809 32.9327 281.013 32.8127 281.178 32.6349C281.654 32.1238 282.272 32.6483 282.259 33.5061L282.254 33.5016Z" fill="white"/>
<path d="M278.763 46.4268C278.469 46.4357 278.144 46.2357 277.922 45.7824C277.717 45.369 277.802 44.849 278.149 44.7246C278.424 44.6268 278.589 44.409 278.78 44.1601C279.029 43.8357 279.323 43.8135 279.572 44.0224C279.843 44.2446 279.972 44.6979 279.901 45.1512C279.786 45.8757 279.35 46.4046 278.763 46.4268Z" fill="white"/>
<path d="M294.847 33.9068C294.838 33.1645 295.35 32.449 295.902 32.4223C296.231 32.4045 296.56 32.9423 296.551 33.4712C296.538 34.0667 296.146 34.7601 295.728 34.9379C295.297 35.1201 294.856 34.6045 294.847 33.9112V33.9068Z" fill="white"/>
<path d="M277.708 37.5733C278.144 37.5688 278.527 38.0488 278.549 38.631C278.571 39.2622 278.051 39.9999 277.601 39.9777C277.183 39.9599 276.792 39.3999 276.81 38.8444C276.832 38.1733 277.25 37.5777 277.708 37.5733Z" fill="white"/>
<path d="M289.02 36.9775C289.02 37.7064 288.878 38.0841 288.624 38.3775C288.357 38.6841 287.975 38.6619 287.681 38.3464C287.428 38.0752 287.352 37.7464 287.503 37.2797C287.597 36.9908 287.735 36.7064 287.895 36.4886C288.099 36.2175 288.375 36.1997 288.633 36.3552C288.9 36.5152 289.016 36.8308 289.016 36.973L289.02 36.9775Z" fill="white"/>
<path d="M292.481 50.6754C292.552 50.951 292.641 51.2487 292.712 51.551C292.792 51.8798 292.748 52.2043 292.641 52.5065C292.508 52.8887 292.196 53.0754 291.916 52.9198C291.747 52.8265 291.587 52.6932 291.449 52.5376C291.262 52.3243 291.24 52.0354 291.365 51.7554C291.476 51.5109 291.6 51.2798 291.707 51.031C291.881 50.6176 292.13 50.5287 292.486 50.6754H292.481Z" fill="white"/>
<path d="M281.258 23.6666C281.107 23.6666 280.978 23.6889 280.853 23.6666C280.546 23.6 280.306 23.3911 280.253 22.9289C280.204 22.5022 280.328 22.1422 280.56 21.8666C280.764 21.6222 281.045 21.6133 281.289 21.8222C281.529 22.0266 281.623 22.3689 281.534 22.7644C281.512 22.8666 281.463 22.96 281.432 23.0577C281.374 23.2533 281.32 23.4489 281.254 23.6711L281.258 23.6666Z" fill="white"/>
<path d="M284.403 37.6794C284.323 37.6705 284.243 37.666 284.167 37.6482C283.914 37.5905 283.722 37.3416 283.682 37.026C283.642 36.706 283.82 36.2705 284.065 36.1594C284.354 36.0305 284.634 36.0527 284.888 36.3194C285.092 36.5282 285.181 36.7949 285.128 37.0616C285.061 37.426 284.888 37.6438 284.639 37.6749C284.559 37.6838 284.483 37.6749 284.403 37.6749V37.6794Z" fill="white"/>
<path d="M293.94 22.9151C293.975 22.8173 294.042 22.5373 294.158 22.3106C294.291 22.0528 294.5 21.9951 294.718 22.084C294.936 22.1728 295.092 22.4973 295.078 22.8351C295.065 23.1773 294.954 23.4617 294.78 23.6884C294.625 23.8928 294.38 23.9328 294.202 23.8084C294.006 23.6751 293.917 23.4395 293.944 22.9106L293.94 22.9151Z" fill="white"/>
<path d="M295.421 29.4623C295.186 29.729 295.003 29.9735 294.794 30.1646C294.545 30.3912 294.216 30.2579 294.038 29.9068C293.86 29.5557 293.931 29.129 294.207 28.8712C294.478 28.6179 294.683 28.6046 294.932 28.8535C295.092 29.0179 295.234 29.2268 295.421 29.4623Z" fill="white"/>
<path d="M101.896 154.151C101.874 153.711 101.98 153.266 102.154 152.853C102.648 151.689 103.577 151.435 104.374 152.24C104.543 152.413 104.725 152.564 104.876 152.76C105.766 153.92 105.717 156.177 104.347 156.871C104.036 157.026 103.733 157.04 103.422 156.924C102.514 156.591 101.905 155.497 101.896 154.146V154.151Z" fill="white"/>
<path d="M110.543 166.075C110.636 165.475 110.721 164.871 110.832 164.275C110.863 164.115 110.961 163.942 111.064 163.862C111.468 163.533 111.873 163.186 112.38 163.555C112.558 163.684 112.785 163.666 112.985 163.737C113.577 163.951 113.893 164.542 113.946 165.382C114.026 166.617 113.096 168.151 112.429 168.435C111.838 168.688 111.264 168.435 110.908 167.728C110.659 167.235 110.552 166.68 110.534 166.071L110.543 166.075Z" fill="white"/>
<path d="M101.447 148.591C101.362 147.902 101.496 147.297 101.754 146.715C102.172 145.773 102.99 145.417 103.582 145.773C104.383 146.253 104.872 147.262 104.703 148.355C104.525 149.497 104.031 150.329 103.235 150.746C102.505 151.129 101.722 150.644 101.505 149.666C101.429 149.333 101.464 148.951 101.447 148.591ZM103.315 147.471C103.275 147.44 103.235 147.4 103.195 147.377C103.182 147.373 103.155 147.417 103.137 147.44C103.177 147.475 103.217 147.515 103.262 147.537C103.275 147.542 103.302 147.497 103.319 147.471H103.315Z" fill="white"/>
<path d="M106.424 163.831C106.58 163.853 106.633 163.858 106.687 163.871C107.425 164.089 108.141 165.516 107.994 166.542C107.843 167.6 107.416 168.409 106.7 168.871C105.962 169.351 105.13 168.92 104.774 167.911C104.302 166.578 104.792 164.702 105.779 164.12C106.015 163.978 106.273 163.898 106.429 163.831H106.424Z" fill="white"/>
<path d="M108.857 147.351C108.27 147.307 107.861 147.076 107.523 146.636C107.042 146.013 106.918 145.031 107.234 144.227C107.523 143.498 107.887 142.907 108.577 142.929C108.808 142.938 109.035 142.8 109.266 142.742C110.103 142.542 110.934 143.773 110.81 144.92C110.694 146.018 109.658 147.444 108.857 147.347V147.351Z" fill="white"/>
<path d="M95.8954 153.924C95.7842 153.853 95.5173 153.764 95.3215 153.551C94.4185 152.582 94.5965 150.369 95.6196 149.653C95.713 149.591 95.8153 149.556 95.9176 149.524C96.7806 149.267 97.5679 150.244 97.7503 151.129C97.7992 151.369 97.7992 151.64 97.777 151.889C97.6836 152.884 96.7628 153.956 95.8954 153.92V153.924Z" fill="white"/>
<path d="M99.0358 162.982C99.0358 162.84 99.018 162.618 99.0358 162.405C99.1337 161.489 99.8054 161.018 100.401 161.431C101.344 162.08 101.505 163.76 100.699 164.578C100.33 164.951 99.9299 165.04 99.5162 164.725C99.1026 164.414 98.8935 163.956 99.0047 163.28C99.018 163.209 99.018 163.134 99.0314 162.987L99.0358 162.982Z" fill="white"/>
<path d="M103.039 170.027C103.061 171.022 102.447 171.942 101.731 171.987C101.149 172.022 100.606 171.276 100.575 170.387C100.548 169.565 101.055 168.685 101.82 168.649C102.327 168.622 103.088 169.342 103.039 170.027Z" fill="white"/>
<path d="M116.837 163.324C116.415 163.218 115.992 163.053 115.792 162.387C115.703 162.098 115.708 161.827 115.801 161.542C116.072 160.738 116.842 160.373 117.407 160.796C117.696 161.009 118.052 161.938 117.985 162.378C117.954 162.573 117.852 162.773 117.745 162.92C117.576 163.156 117.113 163.338 116.837 163.324Z" fill="white"/>
<path d="M109.209 158.445C109.262 158.178 109.32 157.747 109.431 157.347C109.538 156.974 109.778 156.822 110.067 156.84C110.606 156.876 111.122 157.52 111.206 158.254C111.246 158.591 111.197 158.911 111.046 159.178C110.793 159.622 110.45 159.889 110.041 159.925C109.583 159.965 109.218 159.365 109.209 158.44V158.445Z" fill="white"/>
<path d="M108.862 151.947C108.599 151.929 108.323 151.76 108.092 151.432C107.781 150.992 107.861 150.112 108.421 150.023C108.666 149.983 108.853 149.898 109.053 149.685C109.32 149.405 109.64 149.463 109.854 149.716C110.107 150.018 110.178 150.458 110.04 150.907C109.854 151.525 109.4 151.952 108.862 151.947Z" fill="white"/>
<path d="M100.041 156.613C100.054 157.257 99.8363 157.733 99.4671 158.089C99.0979 158.44 98.6753 158.364 98.4039 157.92C98.1015 157.426 98.1104 156.626 98.4395 156.231C98.5952 156.044 98.7998 155.924 98.9644 155.746C99.4404 155.235 100.059 155.76 100.045 156.617L100.041 156.613Z" fill="white"/>
<path d="M96.5492 169.542C96.2556 169.551 95.9309 169.351 95.7085 168.898C95.5038 168.484 95.5883 167.964 95.9353 167.84C96.2111 167.742 96.3757 167.524 96.567 167.275C96.8161 166.951 97.1096 166.929 97.3587 167.138C97.6301 167.36 97.7591 167.813 97.6879 168.266C97.5723 168.991 97.1363 169.52 96.5492 169.542Z" fill="white"/>
<path d="M112.634 157.022C112.625 156.28 113.137 155.564 113.688 155.538C114.017 155.52 114.346 156.058 114.338 156.586C114.324 157.182 113.933 157.875 113.515 158.053C113.083 158.235 112.643 157.72 112.634 157.026V157.022Z" fill="white"/>
<path d="M95.4904 160.685C95.9264 160.68 96.3089 161.16 96.3312 161.742C96.3534 162.373 95.833 163.111 95.3837 163.089C94.9655 163.071 94.5741 162.511 94.5919 161.956C94.6141 161.285 95.0323 160.689 95.4904 160.685Z" fill="white"/>
<path d="M106.807 160.089C106.807 160.818 106.664 161.195 106.411 161.489C106.144 161.795 105.761 161.773 105.468 161.458C105.214 161.187 105.139 160.858 105.29 160.391C105.383 160.102 105.521 159.818 105.681 159.6C105.886 159.329 106.162 159.311 106.42 159.467C106.687 159.627 106.802 159.942 106.802 160.084L106.807 160.089Z" fill="white"/>
<path d="M110.268 173.791C110.339 174.066 110.428 174.364 110.499 174.666C110.579 174.995 110.535 175.32 110.428 175.622C110.294 176.004 109.983 176.191 109.703 176.035C109.534 175.942 109.374 175.808 109.236 175.653C109.049 175.44 109.027 175.151 109.151 174.871C109.262 174.626 109.387 174.395 109.494 174.146C109.667 173.733 109.916 173.644 110.272 173.791H110.268Z" fill="white"/>
<path d="M99.0403 146.782C98.889 146.782 98.76 146.804 98.6355 146.782C98.3285 146.715 98.0883 146.506 98.035 146.044C97.986 145.617 98.1106 145.257 98.3419 144.982C98.5465 144.737 98.8267 144.729 99.0714 144.937C99.3116 145.142 99.405 145.484 99.3161 145.88C99.2938 145.982 99.2449 146.075 99.2137 146.173C99.1559 146.369 99.1025 146.564 99.0358 146.786L99.0403 146.782Z" fill="white"/>
<path d="M102.19 160.796C102.11 160.787 102.029 160.782 101.954 160.764C101.7 160.707 101.509 160.458 101.469 160.142C101.429 159.822 101.607 159.387 101.852 159.276C102.141 159.147 102.421 159.169 102.674 159.436C102.879 159.644 102.968 159.911 102.915 160.178C102.848 160.542 102.674 160.76 102.425 160.791C102.345 160.8 102.27 160.791 102.19 160.791V160.796Z" fill="white"/>
<path d="M111.726 146.026C111.762 145.929 111.829 145.649 111.944 145.422C112.078 145.164 112.287 145.106 112.505 145.195C112.723 145.284 112.878 145.609 112.865 145.946C112.852 146.289 112.74 146.573 112.567 146.8C112.411 147.004 112.167 147.044 111.989 146.92C111.793 146.786 111.704 146.551 111.731 146.022L111.726 146.026Z" fill="white"/>
<path d="M113.208 152.578C112.972 152.844 112.79 153.089 112.581 153.28C112.332 153.506 112.002 153.373 111.824 153.022C111.647 152.671 111.718 152.244 111.994 151.986C112.265 151.733 112.469 151.72 112.719 151.969C112.879 152.133 113.021 152.342 113.208 152.578Z" fill="white"/>
<path d="M292.726 165.751C292.703 165.311 292.81 164.867 292.984 164.454C293.477 163.289 294.407 163.036 295.203 163.84C295.372 164.014 295.555 164.165 295.706 164.36C296.596 165.52 296.547 167.778 295.177 168.471C294.865 168.627 294.563 168.64 294.251 168.525C293.344 168.191 292.734 167.098 292.726 165.747V165.751Z" fill="white"/>
<path d="M301.377 177.676C301.47 177.076 301.555 176.471 301.666 175.876C301.697 175.716 301.795 175.542 301.898 175.462C302.302 175.133 302.707 174.787 303.214 175.156C303.392 175.285 303.619 175.267 303.819 175.338C304.411 175.551 304.727 176.142 304.78 176.982C304.86 178.218 303.93 179.751 303.263 180.036C302.672 180.289 302.098 180.036 301.742 179.329C301.493 178.836 301.386 178.28 301.368 177.671L301.377 177.676Z" fill="white"/>
<path d="M292.276 160.195C292.192 159.506 292.325 158.902 292.583 158.32C293.001 157.378 293.82 157.022 294.411 157.378C295.212 157.858 295.701 158.866 295.532 159.96C295.354 161.102 294.861 161.933 294.064 162.351C293.335 162.733 292.552 162.249 292.334 161.271C292.258 160.938 292.294 160.555 292.276 160.195ZM294.149 159.071C294.109 159.04 294.069 159 294.029 158.978C294.016 158.973 293.989 159.018 293.971 159.04C294.011 159.075 294.051 159.115 294.096 159.138C294.109 159.142 294.136 159.098 294.153 159.071H294.149Z" fill="white"/>
<path d="M297.254 175.436C297.409 175.458 297.463 175.462 297.516 175.476C298.255 175.693 298.971 177.12 298.824 178.147C298.673 179.204 298.246 180.013 297.53 180.476C296.791 180.956 295.959 180.524 295.603 179.516C295.132 178.182 295.621 176.307 296.609 175.724C296.844 175.582 297.102 175.502 297.258 175.436H297.254Z" fill="white"/>
<path d="M299.687 158.956C299.1 158.911 298.69 158.68 298.352 158.24C297.872 157.618 297.747 156.636 298.063 155.831C298.352 155.102 298.717 154.511 299.407 154.533C299.638 154.542 299.865 154.404 300.096 154.347C300.932 154.147 301.764 155.378 301.64 156.524C301.524 157.622 300.487 159.049 299.687 158.951V158.956Z" fill="white"/>
<path d="M286.729 165.524C286.618 165.453 286.351 165.364 286.156 165.151C285.253 164.182 285.43 161.968 286.454 161.253C286.547 161.191 286.649 161.155 286.752 161.124C287.615 160.866 288.402 161.844 288.584 162.728C288.633 162.968 288.633 163.24 288.611 163.488C288.518 164.484 287.597 165.555 286.729 165.52V165.524Z" fill="white"/>
<path d="M289.87 174.587C289.87 174.445 289.852 174.222 289.87 174.009C289.968 173.094 290.639 172.622 291.235 173.036C292.178 173.685 292.339 175.365 291.533 176.182C291.164 176.556 290.764 176.645 290.35 176.329C289.937 176.018 289.727 175.56 289.839 174.885C289.852 174.814 289.852 174.738 289.865 174.591L289.87 174.587Z" fill="white"/>
<path d="M293.873 181.631C293.895 182.627 293.281 183.547 292.565 183.591C291.983 183.627 291.44 182.88 291.409 181.991C291.382 181.169 291.889 180.289 292.654 180.254C293.161 180.227 293.922 180.947 293.873 181.631Z" fill="white"/>
<path d="M307.667 174.929C307.244 174.822 306.822 174.658 306.622 173.991C306.533 173.702 306.537 173.431 306.631 173.147C306.902 172.342 307.671 171.978 308.236 172.4C308.525 172.613 308.881 173.542 308.815 173.982C308.783 174.178 308.681 174.378 308.574 174.524C308.405 174.76 307.943 174.942 307.667 174.929Z" fill="white"/>
<path d="M300.039 170.049C300.092 169.783 300.15 169.351 300.261 168.951C300.368 168.578 300.608 168.427 300.897 168.445C301.435 168.48 301.951 169.125 302.036 169.858C302.076 170.196 302.027 170.516 301.876 170.783C301.622 171.227 301.28 171.494 300.87 171.529C300.412 171.569 300.047 170.969 300.039 170.045V170.049Z" fill="white"/>
<path d="M299.691 163.552C299.429 163.534 299.153 163.365 298.922 163.036C298.61 162.596 298.69 161.716 299.251 161.627C299.496 161.587 299.682 161.503 299.883 161.289C300.149 161.009 300.47 161.067 300.683 161.32C300.937 161.623 301.008 162.063 300.87 162.512C300.683 163.129 300.23 163.556 299.691 163.552Z" fill="white"/>
<path d="M290.871 168.217C290.884 168.862 290.666 169.337 290.297 169.693C289.927 170.044 289.505 169.969 289.234 169.524C288.931 169.031 288.94 168.231 289.269 167.835C289.425 167.649 289.629 167.529 289.794 167.351C290.27 166.84 290.888 167.364 290.875 168.222L290.871 168.217Z" fill="white"/>
<path d="M287.379 181.143C287.085 181.152 286.76 180.952 286.538 180.498C286.333 180.085 286.418 179.565 286.765 179.44C287.041 179.343 287.205 179.125 287.397 178.876C287.646 178.552 287.939 178.529 288.188 178.738C288.46 178.96 288.589 179.414 288.518 179.867C288.402 180.592 287.966 181.12 287.379 181.143Z" fill="white"/>
<path d="M303.468 168.626C303.459 167.884 303.971 167.169 304.522 167.142C304.851 167.124 305.18 167.662 305.172 168.191C305.158 168.786 304.767 169.48 304.349 169.658C303.917 169.84 303.477 169.324 303.468 168.631V168.626Z" fill="white"/>
<path d="M286.324 172.289C286.76 172.285 287.143 172.765 287.165 173.347C287.187 173.978 286.667 174.716 286.218 174.694C285.8 174.676 285.408 174.116 285.426 173.56C285.448 172.889 285.866 172.294 286.324 172.289Z" fill="white"/>
<path d="M297.636 171.693C297.636 172.422 297.494 172.8 297.24 173.093C296.974 173.4 296.591 173.378 296.297 173.062C296.044 172.791 295.968 172.462 296.12 171.996C296.213 171.707 296.351 171.422 296.511 171.204C296.716 170.933 296.991 170.916 297.249 171.071C297.516 171.231 297.632 171.547 297.632 171.689L297.636 171.693Z" fill="white"/>
<path d="M301.097 185.395C301.168 185.671 301.257 185.968 301.329 186.271C301.409 186.6 301.364 186.924 301.257 187.226C301.124 187.608 300.813 187.795 300.532 187.64C300.363 187.546 300.203 187.413 300.065 187.257C299.878 187.044 299.856 186.755 299.981 186.475C300.092 186.231 300.217 186 300.323 185.751C300.497 185.337 300.746 185.248 301.102 185.395H301.097Z" fill="white"/>
<path d="M289.874 158.386C289.723 158.386 289.594 158.409 289.469 158.386C289.163 158.32 288.922 158.111 288.869 157.649C288.82 157.222 288.945 156.862 289.176 156.586C289.38 156.342 289.661 156.333 289.905 156.542C290.146 156.746 290.239 157.089 290.15 157.484C290.128 157.586 290.079 157.68 290.048 157.777C289.99 157.973 289.937 158.169 289.87 158.391L289.874 158.386Z" fill="white"/>
<path d="M293.019 172.395C292.939 172.386 292.859 172.382 292.783 172.364C292.53 172.306 292.339 172.057 292.299 171.742C292.259 171.422 292.436 170.986 292.681 170.875C292.97 170.746 293.251 170.769 293.504 171.035C293.709 171.244 293.798 171.511 293.744 171.777C293.678 172.142 293.504 172.36 293.255 172.391C293.175 172.4 293.099 172.391 293.019 172.391V172.395Z" fill="white"/>
<path d="M302.556 157.631C302.591 157.533 302.658 157.253 302.774 157.026C302.907 156.769 303.116 156.711 303.334 156.8C303.552 156.889 303.708 157.213 303.695 157.551C303.681 157.893 303.57 158.178 303.397 158.404C303.241 158.609 302.996 158.649 302.818 158.524C302.623 158.391 302.534 158.155 302.56 157.626L302.556 157.631Z" fill="white"/>
<path d="M304.037 164.182C303.802 164.449 303.619 164.693 303.41 164.884C303.161 165.111 302.832 164.978 302.654 164.627C302.476 164.275 302.547 163.849 302.823 163.591C303.094 163.338 303.299 163.324 303.548 163.573C303.708 163.738 303.851 163.947 304.037 164.182Z" fill="white"/>
<g clip-path="url(#clip2_1231_9986)">
<path d="M210.368 207.162C209.892 206.058 209.782 205.038 210.492 204.028C210.879 203.474 211.276 202.939 211.787 202.484C213.067 201.35 214.442 200.365 215.95 199.553C217.017 198.978 218.149 198.647 219.354 198.577C220.188 198.528 221.027 198.528 221.86 198.518C223.686 198.498 225.344 199.073 226.872 200.028C228.753 201.206 230.559 202.494 232.132 204.078C233.268 205.221 234.196 206.528 235.144 207.825C236.275 209.375 237.069 211.078 237.496 212.95C237.724 213.959 237.833 214.974 237.759 216.009C237.67 217.262 237.238 218.376 236.479 219.376C234.846 221.539 232.598 222.608 229.978 222.915C227.145 223.247 224.475 222.599 221.999 221.212C219.32 219.712 216.888 217.866 214.735 215.682C213.018 213.94 211.544 211.994 210.343 209.855C210.145 209.499 209.926 209.142 209.896 208.662C210.169 208.603 210.408 208.543 210.651 208.494C211.658 208.271 212.655 208.028 213.668 207.84C214.392 207.707 215.132 207.608 215.866 207.593C216.437 207.578 217.017 207.682 217.583 207.796C218.233 207.924 218.769 208.266 219.196 208.781C219.563 209.227 219.95 209.657 220.327 210.093C221.429 211.37 222.729 212.405 224.173 213.276C226.023 214.395 227.944 215.346 230.048 215.9C230.921 216.128 231.799 216.311 232.707 216.306C233.462 216.306 234.176 216.143 234.826 215.747C234.896 215.702 234.94 215.613 235.01 215.529C234.911 215.519 234.841 215.494 234.782 215.509C233.571 215.821 232.425 215.554 231.298 215.113C229.676 214.479 228.147 213.667 226.649 212.791C225.592 212.177 224.55 211.548 223.587 210.786C222.729 210.103 221.969 209.321 221.24 208.504C220.982 208.217 220.719 207.939 220.471 207.642C219.637 206.652 218.536 206.197 217.28 206.028C216.278 205.895 215.285 205.934 214.308 206.147C213.305 206.37 212.313 206.647 211.316 206.905C211.008 206.984 210.7 207.068 210.363 207.157L210.368 207.162Z" fill="white"/>
<path d="M294.814 172.735C295.141 172.304 295.553 171.942 296.034 171.675C297.577 170.809 299.205 170.294 301.016 170.482C301.815 170.566 302.614 170.626 303.388 170.873C305.05 171.403 306.316 172.457 307.328 173.839C308.266 175.121 308.936 176.537 309.447 178.032C310.102 179.958 310.449 181.943 310.613 183.963C310.727 185.374 310.757 186.78 310.593 188.191C310.434 189.572 310.147 190.914 309.551 192.176C308.455 194.488 306.663 195.909 304.103 196.29C302.599 196.518 301.155 196.241 299.771 195.652C298.416 195.072 297.275 194.196 296.312 193.092C295.245 191.874 294.417 190.503 293.752 189.032C293.593 188.686 293.38 188.364 293.206 188.023C293.077 187.765 292.948 187.508 292.854 187.235C292.685 186.75 292.551 186.255 292.377 185.77C292.283 185.508 292.189 185.265 291.96 185.042C291.514 184.606 291.39 183.988 291.281 183.379C291.097 182.354 291.181 181.329 291.315 180.309C291.553 178.512 292.104 176.809 292.938 175.195C293.007 175.061 293.112 174.938 293.191 174.819C293.489 174.878 293.454 175.116 293.504 175.264C294.139 177.2 295.379 178.601 297.215 179.482C297.736 179.735 298.267 179.963 298.788 180.21C299.667 180.626 300.475 181.136 301.16 181.839C302.386 183.097 303.021 184.597 303.051 186.339C303.071 187.399 303.051 188.458 303.046 189.518C303.046 189.74 303.046 189.958 303.046 190.181C303.492 190.285 303.701 190.018 303.889 189.765C304.381 189.112 304.708 188.374 304.797 187.562C305.189 183.953 303.84 181.166 300.773 179.22C300.178 178.844 299.513 178.581 298.883 178.27C298.337 177.997 297.766 177.77 297.245 177.453C295.603 176.453 294.694 174.655 294.823 172.725L294.814 172.735Z" fill="white"/>
<path d="M42.464 148.957C42.3449 148.655 42.33 148.561 42.2804 148.492C41.8933 147.927 41.8239 147.308 41.943 146.65C42.196 145.229 42.4094 143.803 42.6873 142.387C42.8659 141.476 43.1041 140.575 43.3721 139.684C44.0171 137.536 45.3917 135.986 47.4112 135.026C48.3689 134.57 49.3514 134.179 50.324 133.753C51.0882 133.417 51.8573 133.09 52.6116 132.738C54.388 131.921 55.5095 130.535 56.0305 128.674C56.2042 128.06 56.2885 127.421 56.4175 126.797C56.4473 126.644 56.482 126.49 56.5118 126.342C56.879 126.357 57.0577 126.599 57.2561 126.797C58.0402 127.57 58.7101 128.426 59.1815 129.426C59.2757 129.629 59.3601 129.837 59.4593 130.04C60.2285 131.585 60.4915 133.199 60.1342 134.897C60.0399 137.338 59.1318 139.516 57.926 141.595C57.6978 141.986 57.4745 142.372 57.2561 142.764C56.1545 144.729 54.6709 146.358 52.8646 147.695C50.5076 149.437 48.0365 150.997 45.2874 152.056C43.7839 152.635 42.2705 153.16 40.6627 153.378C39.7348 153.502 38.8119 153.566 37.8839 153.343C36.2067 152.947 34.9066 152.007 33.9142 150.63C32.9019 149.224 32.3164 147.63 31.9988 145.947C31.1751 141.546 32.2866 137.615 34.986 134.1C36.3258 132.352 37.9435 130.887 39.7249 129.6C42.6625 127.471 45.8581 125.842 49.3465 124.817C50.4282 124.5 51.5249 124.228 52.6562 124.169C54.4327 124.079 54.5617 124.411 54.79 126.01C54.6758 128.065 54.0704 129.872 52.1302 130.926C51.3165 131.367 50.4382 131.704 49.5847 132.08C48.5873 132.52 47.5601 132.902 46.5875 133.392C45.873 133.748 45.1981 134.204 44.563 134.684C43.5457 135.451 42.7617 136.432 42.2407 137.595C41.0498 140.249 40.5288 143.031 40.7074 145.932C40.7322 146.348 40.7967 146.764 40.896 147.17C41.0845 147.957 41.546 148.536 42.4739 148.972L42.464 148.957Z" fill="white"/>
<path d="M25.6124 46.1984C26.0788 46.4756 26.4857 46.842 26.8083 47.2826C27.8503 48.7134 28.555 50.263 28.5798 52.0799C28.5897 52.8819 28.6244 53.679 28.4706 54.4761C28.1381 56.1841 27.24 57.5604 25.9796 58.7238C24.8135 59.8031 23.4836 60.6348 22.0496 61.318C20.2086 62.1943 18.2784 62.7686 16.2786 63.1696C14.8843 63.4468 13.4899 63.6399 12.0658 63.6448C10.6764 63.6448 9.30184 63.5211 7.97695 63.0755C5.5455 62.2586 3.92287 60.6496 3.24306 58.1594C2.84113 56.694 2.94533 55.2335 3.37208 53.7879C3.7889 52.3769 4.52826 51.1442 5.51572 50.06C6.60243 48.8619 7.87274 47.8817 9.25718 47.045C9.58468 46.847 9.87745 46.5945 10.2 46.3816C10.4382 46.2232 10.6863 46.0697 10.9443 45.941C11.4058 45.7132 11.8871 45.5251 12.3436 45.2974C12.5917 45.1736 12.825 45.0498 13.0185 44.7973C13.4006 44.3023 14.001 44.1092 14.5964 43.931C15.5988 43.629 16.626 43.5894 17.6581 43.6042C19.4742 43.6339 21.2358 43.9805 22.9378 44.6142C23.0817 44.6686 23.2107 44.7528 23.3397 44.8221C23.3199 45.1241 23.0768 45.1191 22.9328 45.1835C21.077 46.035 19.8315 47.4311 19.1666 49.352C18.978 49.8966 18.8093 50.4511 18.6257 50.9957C18.3131 51.9116 17.9012 52.778 17.2859 53.5354C16.1794 54.8969 14.7602 55.7038 13.0234 55.9365C11.9715 56.0801 10.9145 56.1791 9.8576 56.3029C9.63926 56.3276 9.41597 56.3524 9.19763 56.3821C9.14801 56.8376 9.43582 57.0108 9.70874 57.1693C10.4183 57.5802 11.1875 57.8178 12.0062 57.8079C15.6435 57.7733 18.2635 56.1098 19.8365 52.8473C20.1392 52.2136 20.3228 51.5254 20.5609 50.862C20.7644 50.2877 20.9281 49.6936 21.1862 49.1441C21.99 47.4014 23.6722 46.2925 25.6124 46.1885V46.1984Z" fill="white"/>
<g clip-path="url(#clip3_1231_9986)">
<path d="M338.14 92.1498C337.74 92.2598 337.49 92.3398 337.19 92.4198C336.82 94.8998 335.43 96.7698 333.61 98.4198C331.9 99.9698 330 100.62 327.69 100.41C323.76 100.06 320.3 98.6398 317.18 96.2598C315.44 94.9298 313.97 93.3698 312.75 91.5798C310.78 88.6998 309.15 85.6698 308.31 82.2498C307.73 79.8698 307.49 77.4598 307.76 75.0198C307.91 73.6598 308.33 72.3898 308.86 71.1398C309.35 69.9798 310.18 69.1098 311.15 68.3598C311.72 67.9198 312.33 67.5298 312.93 67.1498C314.08 66.4098 315.36 66.0398 316.75 65.9998C319.75 65.9298 322.55 66.6398 325.14 68.1598C329.04 70.4498 332.02 73.6298 334.19 77.5798C334.86 78.7998 335.52 80.0298 336.16 81.2698C337.77 84.3798 338.31 87.7298 338.33 91.1998C338.33 91.4998 338.21 91.8098 338.14 92.1598V92.1498ZM335.23 93.6798C335.69 92.7198 336.14 91.8898 336.51 91.0298C336.83 90.2798 337.04 89.4798 336.92 88.6698C336.54 86.2098 335.88 83.8298 334.65 81.6498C334.05 80.5898 333.47 79.5298 332.89 78.4598C330.94 74.9198 328.29 72.0298 324.87 69.8798C322.85 68.6098 320.64 67.8998 318.27 67.6898C316.31 67.5198 314.51 67.8798 312.95 69.1598C312.74 69.3298 312.51 69.4798 312.29 69.6198C311.34 70.2198 310.73 71.0798 310.29 72.0998C309.47 74.0098 309.26 75.9998 309.38 78.0498C309.59 81.7798 310.86 85.1598 312.71 88.3498C314.4 91.2598 316.46 93.8298 319.31 95.7198C322.2 97.6398 325.36 98.6598 328.81 98.7898C329.29 98.8098 329.8 98.7098 330.26 98.5498C332.13 97.8998 333.39 96.5198 334.55 94.8998C334.26 94.7898 334.06 94.7098 333.86 94.6398C331.52 93.8898 329.71 92.5298 328.66 90.2598C328.59 90.0998 328.47 89.9498 328.4 89.7898C327.43 87.6998 326.28 85.7198 325 83.8198C323.64 81.8098 322.39 79.7198 320.72 77.9298C320.68 77.8898 320.7 77.7898 320.68 77.6298C321.23 77.6198 321.65 77.8798 322 78.1898C322.97 79.0598 323.96 79.9198 324.83 80.8898C326.09 82.2998 327.14 83.8798 328.09 85.5198C328.9 86.9198 329.64 88.3598 330.36 89.8098C331.25 91.6098 332.75 92.6898 334.5 93.4998C334.7 93.5898 334.93 93.5998 335.27 93.6798H335.23Z" fill="white"/>
<path d="M323.87 72.3702C322.55 71.6302 321.29 70.8502 319.96 70.2102C318.67 69.5902 317.27 69.3102 315.68 69.2902C315.9 69.0802 315.98 68.9402 316.09 68.9102C316.53 68.8202 316.98 68.6902 317.41 68.7202C319.82 68.9302 321.94 69.8102 323.64 71.5902C323.79 71.7502 323.88 71.9602 323.99 72.1602C324 72.1802 323.95 72.2302 323.87 72.3702Z" fill="white"/>
<path d="M329.84 93.4598C328.93 93.2898 328.87 93.2398 327.68 92.0898C326.39 90.8498 325.58 89.3498 325.21 87.5098C325.41 87.5998 325.56 87.6198 325.62 87.6998C325.81 87.9998 326.01 88.3098 326.14 88.6398C326.63 89.9298 327.42 90.9998 328.4 91.9598C328.88 92.4198 329.32 92.9198 329.84 93.4698V93.4598Z" fill="white"/>
<path d="M319.14 71.1998C318.4 71.2498 317.88 70.9898 317.33 70.8698C316.72 70.7398 316.12 70.5698 315.5 70.4398C314.94 70.3298 314.36 70.2598 313.62 70.1498C313.9 69.9498 314.03 69.7998 314.21 69.7298C314.41 69.6498 314.65 69.6198 314.87 69.6298C316.28 69.6598 317.61 70.0098 318.84 70.6998C318.95 70.7598 319 70.9498 319.15 71.1998H319.14Z" fill="white"/>
<path d="M331.97 81.1201C333.23 82.1001 333.79 83.5101 334.3 84.9501C334.49 85.4701 334.66 86.0301 334.35 86.8101C334.05 86.0201 333.82 85.4101 333.58 84.8001C333.33 84.1801 333.07 83.5501 332.8 82.9401C332.53 82.3301 332.24 81.7301 331.96 81.1301L331.97 81.1201Z" fill="white"/>
<path d="M322.12 95.79C324.86 96.01 326.11 96.23 326.89 96.59C326.87 96.67 326.86 96.8 326.82 96.81C325.36 97.22 323.55 96.85 322.13 95.79H322.12Z" fill="white"/>
<path d="M318.56 93.1797C319.6 93.4497 320.63 93.7197 321.67 93.9997C321.92 94.0697 322.16 94.2097 322.38 94.3397C322.43 94.3697 322.46 94.5097 322.44 94.5797C322.42 94.6497 322.34 94.7197 322.27 94.7597C322.19 94.7997 322.09 94.8097 322.01 94.7997C320.84 94.6897 319.72 94.3997 318.74 93.7097C318.61 93.6197 318.52 93.4797 318.41 93.3697C318.46 93.3097 318.51 93.2497 318.57 93.1897L318.56 93.1797Z" fill="white"/>
<path d="M316.06 90.6098C315.69 90.3098 315.3 90.0198 314.94 89.6998C314.8 89.5698 314.72 89.3798 314.47 89.0098C314.91 89.1198 315.12 89.1498 315.32 89.2198C316.36 89.6298 317.4 90.0598 318.43 90.4898C318.49 90.5198 318.51 90.6398 318.59 90.7998C318.44 90.8598 318.29 90.9798 318.16 90.9698C317.45 90.8698 316.75 90.7398 316.05 90.6198L316.06 90.6098Z" fill="white"/>
<path d="M316.06 90.6094C317.42 91.1794 318.77 91.7394 320.11 92.2994C320.15 92.5794 320.02 92.6894 319.82 92.6894C318.48 92.7194 317.39 92.1094 316.4 91.2994C316.22 91.1494 316.18 90.8494 316.07 90.6094H316.06Z" fill="white"/>
<path d="M313.58 86.7002C314.25 87.3402 315.09 87.6502 315.94 87.9602C316.34 88.1102 316.83 88.1602 317.05 88.7302C316.45 89.0102 315.92 88.7602 315.4 88.5802C314.38 88.2402 313.95 87.8902 313.36 86.9702L313.64 86.7002H313.59H313.58Z" fill="white"/>
<path d="M313.63 86.7097L312.4 85.4197C312.74 85.4197 312.91 85.3697 313.03 85.4197C313.87 85.8197 314.71 86.2297 315.54 86.6597C315.72 86.7497 315.85 86.9197 316 87.0597C315.74 87.4097 315.46 87.2897 315.22 87.2197C314.67 87.0597 314.13 86.8697 313.57 86.6997H313.62L313.63 86.7097Z" fill="white"/>
<path d="M312.03 71.6598C312.41 70.9298 313.02 70.9498 313.57 70.9298C314.42 70.8998 315.27 70.9298 315.95 71.7998C315.19 71.9298 314.61 71.6098 314 71.6298C313.38 71.6498 312.76 71.6498 312.03 71.6598Z" fill="white"/>
<path d="M311.48 82.9697C312.55 83.3797 313.44 84.1097 314.41 84.6897C314.57 84.7897 314.67 84.9997 314.84 85.2097C313.57 85.1097 312.51 84.4197 311.48 82.9697Z" fill="white"/>
<path d="M311.31 73.2097C311.43 72.7497 311.77 72.7097 312.07 72.6797C313.02 72.5797 313.95 72.6097 314.79 73.0697C314.83 73.3397 314.75 73.4797 314.53 73.4597C313.46 73.3797 312.39 73.2897 311.31 73.2097Z" fill="white"/>
<path d="M313.79 77.2297C312.79 77.3697 311.92 77.2097 311.05 77.0097C311.08 76.5397 311.4 76.5597 311.64 76.5397C312.59 76.4697 313.1 76.6297 313.79 77.2297Z" fill="white"/>
<path d="M313.85 75.5802C312.8 75.7302 311.86 75.4602 310.94 75.5202C310.79 75.1602 311.03 75.0402 311.21 75.0002C312 74.8102 312.79 74.8402 313.54 75.2002C313.64 75.2502 313.7 75.3902 313.85 75.5802Z" fill="white"/>
<path d="M313.11 79.1602C312.22 79.4402 311.48 79.1602 310.72 79.0202C310.76 78.6202 310.98 78.4602 311.27 78.4702C311.92 78.4902 312.6 78.4502 313.12 79.1502L313.11 79.1602Z" fill="white"/>
<path d="M322.91 83.28C322.95 82.92 322.64 82.75 322.47 82.5C321.99 81.83 321.44 81.2 321.35 80.29C321.52 80.47 321.73 80.62 321.85 80.82C322.24 81.46 322.6 82.12 322.94 82.78C323 82.9 322.92 83.1 322.9 83.27L322.91 83.28Z" fill="white"/>
<path d="M334.93 88.6602C335.42 89.1802 335.62 89.7602 335.52 90.4602C335.4 90.3902 335.29 90.3602 335.28 90.3102C335.16 89.7602 335.05 89.2202 334.93 88.6702V88.6602Z" fill="white"/>
<path d="M323.97 84.8896C324.06 85.0296 324.15 85.1596 324.28 85.3496C323.92 85.2896 323.84 85.1496 324.01 84.8896H323.97Z" fill="white"/>
<path d="M324.01 84.8801C323.717 84.6468 323.653 84.3935 323.82 84.1201H323.79C323.85 84.3701 323.91 84.6301 323.97 84.8801H324.01Z" fill="white"/>
<path d="M322.9 83.2803C323.19 83.5603 323.47 83.8403 323.77 84.1303H323.81C323.33 84.0503 323.23 83.5403 322.9 83.2803Z" fill="white"/>
<path d="M273.05 126.59C274.07 123.24 275.81 120.37 278.55 118.12C281.35 115.82 284.46 114.02 287.54 112.15C288.76 111.4 290.13 111.16 291.57 111.4C291.96 111.46 292.37 111.49 292.76 111.43C293.99 111.24 295.08 111.53 296.05 112.29C296.37 112.54 296.69 112.79 296.99 113.06C298.91 114.73 300.47 116.69 301.96 118.74C306.25 124.65 308.26 133.88 306.26 141.67C305.45 144.82 304.13 147.68 301.91 150.1C299.19 153.06 295.83 154.83 291.9 155.56C286.75 156.52 282.32 155.04 278.78 151.26C274.2 146.38 272.14 140.44 271.99 134.07C272.09 131.37 272.33 128.95 273.04 126.61L273.05 126.59ZM294.25 112.64C295.71 113.65 296.04 115.07 295.6 116.69C295.32 117.73 294.93 118.74 294.55 119.75C294.25 120.55 293.91 121.33 293.59 122.13C292.95 123.73 292.89 125.36 293.22 127.04C293.59 128.94 294.13 130.81 294.26 132.75C294.43 135.11 293.96 137.31 292.57 139.27C292.47 139.42 292.34 139.54 292.21 139.67C292.19 139.7 292.13 139.69 292.03 139.72C292.01 139.61 291.93 139.48 291.97 139.4C293.21 136.44 293.1 133.44 292.34 130.4C292.07 129.31 291.86 128.2 291.62 127.1C291.23 125.29 291.4 123.52 292.03 121.79C292.33 120.99 292.69 120.21 293 119.42C293.34 118.54 293.7 117.66 293.98 116.76C294.13 116.3 294.16 115.79 294.19 115.3C294.22 114.78 293.99 114.34 293.56 114.02C292.8 113.43 291.96 112.99 291.01 112.84C290.03 112.69 289.13 113.03 288.3 113.5C287.44 113.99 286.62 114.54 285.78 115.07C285.14 115.48 284.52 115.93 283.86 116.33C282.15 117.35 280.59 118.57 279.1 119.88C276.9 121.81 275.47 124.26 274.71 127.03C272.83 133.93 273.66 140.5 277.37 146.65C278.19 148.01 279.15 149.27 280.28 150.36C283.67 153.64 287.67 154.87 292.31 153.73C298.53 152.19 302.55 148.29 304.36 142.18C306.3 135.64 305.6 129.25 302.89 123.08C301.3 119.46 298.98 116.3 296.18 113.51C295.64 112.97 295 112.54 294.39 112.09C294.31 112.03 294.1 112.14 293.72 112.21C294.02 112.47 294.11 112.57 294.22 112.65L294.25 112.64Z" fill="white"/>
<path d="M302.41 142.02C302.12 141.93 301.99 142.12 301.89 142.33C301.58 142.93 301.28 143.53 300.99 144.14C299.89 146.43 298.48 148.5 296.39 150.35C296.78 150.27 297.01 150.29 297.15 150.19C297.7 149.81 298.29 149.45 298.76 148.98C300.4 147.33 301.59 145.38 302.34 143.17C302.47 142.79 302.66 142.42 302.42 142.03L302.41 142.02Z" fill="white"/>
<path d="M303.36 135.07C303.5 133.21 303.86 131.47 303.63 129.71C303.39 127.91 302.94 126.19 301.97 124.63C301.82 124.39 301.59 124.2 301.33 123.91C301.26 124.42 301.49 124.72 301.6 125.05C301.94 126.12 302.32 127.18 302.62 128.25C303.03 129.69 303.13 131.16 303.05 132.66C303.02 133.29 303.03 133.92 303.06 134.54C303.07 134.72 303.26 134.89 303.36 135.06V135.07Z" fill="white"/>
<path d="M291.09 130.8C291.46 130.26 291.4 129.76 291.33 129.29C291.17 128.23 290.95 127.17 290.75 126.12C290.68 125.77 290.56 125.43 290.47 125.08C290.21 124.17 290.06 123.24 290.19 122.29C290.22 122.09 290.17 121.88 290.14 121.49C289.94 121.73 289.83 121.8 289.8 121.9C289.65 122.37 289.5 122.84 289.4 123.32C289.34 123.62 289.35 123.95 289.4 124.26C289.55 125.01 289.73 125.75 289.92 126.48C290.28 127.87 290.66 129.25 291.08 130.8H291.09Z" fill="white"/>
<path d="M297.86 145.71C297.23 146.23 297.04 146.86 296.65 147.33C296.27 147.78 295.94 148.26 295.55 148.7C295.13 149.17 294.68 149.62 294.23 150.05C293.81 150.45 293.36 150.84 292.91 151.21C292.43 151.61 291.93 151.99 291.26 152.52C291.67 152.48 291.89 152.52 292.05 152.43C294.28 151.24 296.12 149.63 297.45 147.46C297.64 147.16 297.78 146.82 297.89 146.48C297.95 146.3 297.89 146.09 297.86 145.72V145.71Z" fill="white"/>
<path d="M276.27 127.13C277.89 125.47 279.34 124 280.76 122.52C280.96 122.31 281.25 122.1 281.11 121.72C279.48 122.28 277.02 124.93 276.27 127.13Z" fill="white"/>
<path d="M288.17 152.72C289.99 152.41 292.49 150.75 293.4 149.34C293.52 149.15 293.64 148.95 293.3 148.71C292.79 149.15 292.26 149.61 291.71 150.06C291.15 150.51 290.58 150.95 290.01 151.39C289.45 151.81 288.89 152.21 288.17 152.73V152.72Z" fill="white"/>
<path d="M285.74 151.79C287.31 151.87 288.5 151.08 289.64 150.22C290.27 149.74 290.32 149.62 290.56 148.75C290 148.86 289.77 149.34 289.39 149.58C288.97 149.84 288.58 150.14 288.17 150.41C287.8 150.65 287.41 150.88 287.02 151.11C286.6 151.35 286.17 151.57 285.74 151.8V151.79Z" fill="white"/>
<path d="M276.24 129.931C277.35 128.711 278.47 127.501 279.57 126.281C279.65 126.191 279.69 126.051 279.77 125.891C279.63 125.851 279.48 125.751 279.42 125.791C277.93 126.821 276.85 128.191 276.24 129.941V129.931Z" fill="white"/>
<path d="M288 148.32C286.39 149.22 285.07 149.95 283.6 150.78C284.73 150.98 285.48 150.49 286.24 150.08C286.89 149.73 287.58 149.39 288 148.32Z" fill="white"/>
<path d="M278.22 131.99C278.05 132.09 277.85 132.17 277.7 132.31C276.93 133.03 276.4 133.91 275.95 134.85C275.82 135.13 275.65 135.41 275.82 135.74C275.9 135.71 276 135.71 276.04 135.65C276.82 134.5 277.6 133.34 278.37 132.19C278.32 132.12 278.27 132.06 278.22 131.99Z" fill="white"/>
<path d="M290.8 120.33C291.74 119.26 292.05 118.07 292.17 116.82C292.19 116.66 292 116.47 291.87 116.24C291.4 117.23 290.92 119.05 290.79 120.34L290.8 120.33Z" fill="white"/>
<path d="M278.61 129.46C277.75 129.73 277.22 130.34 276.75 130.99C276.45 131.41 276.1 131.83 276.02 132.61C277.11 131.55 277.97 130.59 278.61 129.46Z" fill="white"/>
<path d="M284.12 145.74C282.79 146.04 281.84 146.97 280.4 147.18C280.72 147.36 280.86 147.52 281 147.51C282.08 147.51 283.33 146.81 284.12 145.74Z" fill="white"/>
<path d="M285.7 147.8C285.58 147.76 285.48 147.69 285.42 147.72C284.29 148.22 283.16 148.74 281.9 149.31C282.67 149.44 283.1 149.38 283.99 148.99C284.62 148.71 285.31 148.48 285.69 147.8H285.7Z" fill="white"/>
<path d="M281.74 144.32C281.11 144.71 280.47 145.1 279.86 145.47C279.83 145.81 280.07 145.81 280.21 145.78C280.99 145.63 281.53 145.15 281.73 144.32H281.74Z" fill="white"/>
</g>
</g>
</g>
<g opacity="0.1" clip-path="url(#clip4_1231_9986)">
<path d="M75.0834 121.733C74.6577 118.351 74.7159 115.207 75.8042 112.173C77.1525 108.409 79.0888 104.961 81.793 101.989C84.5653 98.9435 87.7735 96.3998 91.1457 94.0541C91.9577 93.4881 92.8538 93.0602 93.7918 92.7263C95.9539 91.9605 98.0839 92.1206 100.086 93.1348C103.96 95.1031 106.585 98.1853 107.921 102.337C108.689 104.714 108.641 107.128 108.344 109.555C107.676 114.979 105.596 119.869 102.685 124.449C100.183 128.385 96.9426 131.605 93.2204 134.35C92.3543 134.988 91.4083 135.516 90.4702 136.05C89.9222 136.364 89.3302 136.52 88.6602 136.48C88.1342 136.448 87.5942 136.568 87.0642 136.658C86.3402 136.79 85.6362 136.762 84.9382 136.526C83.8262 136.141 82.7563 135.651 81.8723 134.863C79.2045 132.487 77.1087 129.715 76.023 126.263C75.5372 124.711 75.1833 123.133 75.0894 121.725L75.0834 121.733ZM88.9082 135.716C89.2823 135.534 89.4183 135.486 89.5223 135.414C95.5266 131.492 100.293 126.455 103.522 120.001C105.266 116.509 106.496 112.869 106.91 108.967C107.135 106.885 107.089 104.813 106.481 102.807C105.547 99.7193 103.607 97.3391 101.02 95.4729C100.478 95.0788 99.8736 94.7508 99.2577 94.4887C97.6357 93.7846 95.9657 93.6445 94.2637 94.2803C93.1996 94.6822 92.2376 95.2482 91.3255 95.9141C89.0674 97.5579 86.9133 99.3297 84.8631 101.23C81.5569 104.287 79.2145 107.993 77.5722 112.149C77.1781 113.141 76.924 114.213 76.7539 115.273C76.2397 118.425 76.5494 121.545 77.2912 124.639C78.1769 128.341 80.2566 131.251 83.0264 133.741C83.3944 134.067 83.8264 134.341 84.2583 134.566C84.7743 134.828 85.3223 135.064 85.8923 135.204C87.0643 135.508 87.7923 135.004 88.0204 133.8C88.1325 133.184 88.1785 132.556 88.2826 131.934C88.4907 130.74 88.6468 129.532 88.9429 128.354C89.375 126.628 90.2831 125.234 91.9172 124.372C93.1192 123.736 94.1613 122.88 95.1074 121.902C96.2395 120.726 97.1176 119.373 97.9217 117.951C98.6098 116.717 99.1499 115.447 99.158 114.003C99.1621 113.881 99.2221 113.751 99.2901 113.527C99.672 114.101 99.784 114.635 99.7819 115.221C99.7739 116.315 99.5018 117.361 99.0577 118.353C97.7434 121.305 95.8052 123.738 93.0431 125.454C92.8131 125.594 92.5911 125.74 92.3531 125.874C91.611 126.28 91.091 126.89 90.7729 127.664C90.5349 128.248 90.3128 128.844 90.1848 129.448C89.9807 130.42 89.8486 131.396 89.7025 132.374C89.5544 133.438 89.4783 134.506 88.9362 135.712L88.9082 135.716Z" fill="white"/>
<path d="M104.265 103.446C104.155 103.276 104.003 103.112 103.919 102.924C103.625 102.216 103.373 101.502 103.073 100.801C102.23 98.8434 101.068 97.1093 99.3358 95.7852C99.4338 95.4712 99.6838 95.5712 99.8618 95.6172C100.486 95.7853 100.99 96.1633 101.44 96.6133C103.1 98.2835 104.109 100.304 104.587 102.6C104.645 102.906 104.691 103.228 104.273 103.452L104.265 103.446Z" fill="white"/>
<path d="M78.7099 116.765C79.1718 117.749 80.1274 122.291 80.2712 124.249C79.9652 124.357 79.8773 124.091 79.8153 123.907C79.4893 122.975 79.1074 122.051 78.9055 121.087C78.6696 119.985 78.5877 118.861 78.4558 117.737C78.4138 117.393 78.3898 117.025 78.7079 116.751L78.7099 116.765Z" fill="white"/>
<path d="M82.0386 107.012C81.4684 108.272 80.8303 109.506 80.3362 110.798C79.8481 112.081 79.496 113.417 79.0879 114.711C78.7719 114.749 78.7999 114.495 78.7959 114.367C78.798 113.881 78.79 113.375 78.8861 112.897C79.3002 110.895 80.1624 109.08 81.3625 107.43C81.5185 107.222 81.7225 107.05 81.9026 106.86C81.9586 106.902 82.0026 106.96 82.0445 107.004L82.0386 107.012Z" fill="white"/>
<path d="M96.5958 94.7046C97.3158 94.6946 97.6698 94.9727 98.0077 95.2387C98.9537 95.9608 99.6396 96.9128 100.24 97.9129C100.679 98.6429 101.127 99.379 101.229 100.243C101.245 100.355 101.141 100.477 101.061 100.667C100.551 100.397 100.495 99.8549 100.229 99.4929C99.9374 99.0989 99.7095 98.6528 99.4435 98.2408C99.1975 97.8688 98.9436 97.4908 98.6776 97.1287C98.3856 96.7347 98.0797 96.3427 97.7557 95.9747C97.4377 95.5986 97.0957 95.2546 96.5958 94.7046Z" fill="white"/>
<path d="M102.43 118.857C103.37 116.487 103.946 114.019 104.86 111.617C104.892 111.841 104.974 112.065 104.94 112.277C104.724 113.965 104.332 115.621 103.708 117.203C103.452 117.861 103.136 118.499 102.43 118.857Z" fill="white"/>
<path d="M84.8045 105.624C84.1863 107.597 83.5822 109.569 82.964 111.543C82.944 111.603 82.818 111.621 82.684 111.683C82.4601 110.765 82.7621 109.929 83.0222 109.099C83.4083 107.851 83.7604 106.565 84.8045 105.624Z" fill="white"/>
<path d="M97.8752 98.7145C96.9753 97.4644 96.0754 96.2143 95.1595 94.9523C95.4596 94.6523 95.7395 94.9123 95.9635 95.0803C96.8695 95.7724 97.5154 96.6945 97.9573 97.7385C98.0753 98.0145 98.0773 98.3285 98.1272 98.6285C98.0452 98.6545 97.9572 98.6885 97.8752 98.7145Z" fill="white"/>
<path d="M90.1131 122.744C90.2671 122.322 90.6492 122.146 90.9952 121.968C92.4432 121.204 93.6973 120.232 94.6654 118.908C94.9934 119.105 94.8074 119.302 94.7094 119.466C93.7052 121.238 92.1711 122.3 90.2211 122.8C90.1931 122.804 90.1451 122.768 90.1071 122.752L90.1131 122.744Z" fill="white"/>
<path d="M87.4092 127.116C87.7971 128.382 87.573 129.664 87.5689 130.936C87.5668 131.172 87.4288 131.406 87.2728 131.864C87.0948 131.468 86.9628 131.294 86.9289 131.106C86.7369 130.012 86.8951 128.418 87.4032 127.124L87.4092 127.116Z" fill="white"/>
<path d="M93.4717 96.5862C94.3757 96.6143 94.7176 97.0583 95.0216 97.4864C95.4915 98.1764 96.1175 98.8085 96.0794 99.7925C95.9054 99.7744 95.7374 99.7984 95.6714 99.7364C95.4534 99.5104 95.2734 99.2504 95.0935 98.9904C94.5955 98.2543 94.0976 97.5183 93.4717 96.5862Z" fill="white"/>
<path d="M96.5478 116.432C96.6559 115.188 97.108 114.052 97.7961 113.018C97.8441 112.954 98.0281 112.942 98.1381 112.962C98.1821 112.97 98.2361 113.098 98.2541 113.174C98.2661 113.258 98.2661 113.358 98.2421 113.44C97.846 114.518 97.4119 115.58 96.5418 116.44L96.5478 116.432Z" fill="white"/>
<path d="M85.6805 131.37C85.4905 131.09 85.2965 130.932 85.2785 130.756C85.1546 129.638 85.2047 128.538 85.6868 127.512C85.9668 127.472 86.0128 127.644 86.0028 127.824C85.9787 128.806 85.9546 129.788 85.9085 130.766C85.9025 130.924 85.7965 131.082 85.6805 131.37Z" fill="white"/>
<path d="M82.8506 130.26C82.2087 129.216 81.6567 128.302 81.6108 127.18C82.3968 127.882 82.8887 128.726 83.0846 129.748C83.1086 129.866 82.9666 130.022 82.8506 130.26Z" fill="white"/>
<path d="M91.2007 129.91C91.2727 130.114 91.3547 130.238 91.3407 130.34C91.2306 131.17 91.1145 132.008 90.9764 132.842C90.9544 132.938 90.8024 133.074 90.7244 133.078C90.6244 133.078 90.5264 132.942 90.4364 132.862C90.4044 132.838 90.3964 132.782 90.3904 132.74C90.3925 131.754 90.5366 130.812 91.1947 129.918L91.2007 129.91Z" fill="white"/>
<path d="M91.7145 132.458C91.6685 132.336 91.5625 132.194 91.5925 132.104C91.8626 131.244 92.3027 130.474 92.9067 129.752C92.9827 130.384 92.9387 130.576 92.4846 131.598C92.3406 131.923 92.0819 132.213 91.7085 132.466L91.7145 132.458Z" fill="white"/>
<path d="M101.413 121.695C101.129 122.457 100.787 123.163 100.199 123.947C100.391 122.841 100.577 122.493 101.413 121.695Z" fill="white"/>
<path d="M153.191 13.7281C156.075 13.4163 158.375 13.8665 160.481 15.1587C162.407 16.3408 163.702 18.0129 164.22 20.239C164.5 21.449 164.422 22.653 164.114 23.847C163.758 25.2049 163.168 26.4749 162.43 27.6588C159.771 31.9026 156.147 35.0343 151.537 37.0139C149.047 38.0837 146.479 38.9075 143.809 39.3673C143.091 39.4912 142.425 39.6792 141.845 40.1691C141.124 40.7791 140.228 40.957 139.32 41.0009C137.376 41.0928 135.454 40.8886 133.575 40.3784C132.847 40.1824 132.151 39.8103 131.513 39.3943C129.967 38.3721 128.615 37.108 127.457 35.6519C124.109 31.4657 125.362 26.0798 128.476 23.328C129.25 22.6461 130.082 22.0202 130.98 21.5062C133.124 20.2644 135.378 19.2426 137.762 18.5308C140.654 17.675 143.528 16.7933 146.413 15.8815C147.827 15.4296 149.205 14.8757 150.619 14.4239C151.603 14.1119 152.613 13.882 153.197 13.7201L153.191 13.7281ZM138.921 39.6509C139.403 39.0749 139.401 39.0609 139.913 38.995C143.223 38.5152 146.431 37.6215 149.565 36.4598C153.763 34.8961 157.269 32.3884 159.977 28.7946C161.04 27.3787 161.94 25.8788 162.492 24.1928C162.768 23.3749 162.942 22.5429 162.896 21.6709C162.788 19.4649 161.676 17.8308 159.874 16.6666C157.681 15.2584 155.269 14.8742 152.747 15.52C151.225 15.9159 149.758 16.5038 148.254 16.9757C145.334 17.8854 142.406 18.7892 139.474 19.6649C137.008 20.4027 134.614 21.2945 132.346 22.5183C131.312 23.0803 130.338 23.7122 129.474 24.5141C126.784 27.0339 126.289 31.1758 128.483 34.234C129.625 35.8281 131.065 37.1082 132.697 38.1824C132.895 38.3184 133.169 38.3364 133.437 38.4124C133.631 37.9204 133.785 37.4985 133.969 37.0865C134.191 36.5905 134.399 36.0965 134.683 35.6345C135.225 34.7286 136.017 34.2226 137.085 34.0987C139.643 33.8049 142.205 33.7392 144.773 33.9154C146.981 34.0716 148.955 33.4897 150.693 32.1059C151.937 31.114 153.035 30.0001 153.733 28.5361C153.826 28.3301 153.862 27.9821 154.32 28.0382C154.157 29.2541 153.753 30.3761 153.045 31.3701C150.943 34.3059 148.125 35.7796 144.479 35.5573C142.137 35.4131 139.793 35.505 137.457 35.7028C136.843 35.7547 136.321 35.9507 135.951 36.4606C135.411 37.1806 135.033 37.9846 134.647 38.8825C136.089 39.2767 137.479 39.3568 138.917 39.6229L138.921 39.6509Z" fill="white"/>
<path d="M160.31 24.9185C160.336 23.7005 160.682 22.6225 160.694 21.5065C160.698 20.4345 160.65 19.3485 160.224 18.2665C160.376 18.3805 160.558 18.4545 160.678 18.5945C161.106 19.0906 161.284 19.6866 161.382 20.3226C161.628 21.8446 161.29 23.2786 160.71 24.6685C160.672 24.7525 160.514 24.7965 160.31 24.9185Z" fill="white"/>
<path d="M129.62 28.0864C129.498 29.2324 129.265 30.0584 129.535 30.8984C129.779 31.6564 130.029 32.4065 130.379 33.4565C129.271 32.4504 128.819 31.4864 128.753 30.3244C128.708 29.5524 128.804 28.8244 129.62 28.0864Z" fill="white"/>
<path d="M151.998 28.5839C152.036 28.8999 152.108 29.0539 152.056 29.1399C151.351 30.2618 150.405 31.1397 149.261 31.7816C149.037 31.9136 148.709 31.8676 148.399 31.8976C149.585 30.7997 150.73 29.7578 151.998 28.5839Z" fill="white"/>
<path d="M130.709 29.1662C130.329 27.4062 130.693 26.0042 131.732 24.9203C131.83 25.3563 131.822 25.3503 131.597 26.2323C131.479 26.7063 131.363 27.1942 131.267 27.6722C131.169 28.1362 131.197 28.6322 130.709 29.1662Z" fill="white"/>
<path d="M157.256 20.89C156.882 19.322 156.556 17.9399 156.188 16.3639C156.492 16.5919 156.714 16.696 156.81 16.868C157.408 18.004 157.75 19.198 157.586 20.5C157.578 20.594 157.448 20.684 157.256 20.89Z" fill="white"/>
<path d="M158.156 16.8407C159.214 17.5468 159.292 18.4928 159.426 19.3809C159.618 20.6249 159.568 20.8249 159.02 21.3888C158.906 20.5908 158.828 19.8448 158.688 19.1148C158.56 18.4188 158.376 17.7308 158.156 16.8407Z" fill="white"/>
<path d="M154.323 16.9026C155.051 17.0987 155.226 17.6807 155.396 18.2207C155.644 19.0068 156.03 19.8088 155.596 20.6707C155.512 20.6327 155.468 20.6247 155.442 20.5927C155.376 20.5307 155.296 20.4707 155.278 20.3947C154.964 19.2467 154.65 18.0987 154.323 16.9026Z" fill="white"/>
<path d="M142.603 32.3248C140.887 32.2626 139.311 32.3805 137.527 33.0423C138.601 31.8604 139.803 31.9245 140.917 31.7726C141.491 31.6907 142.065 31.7087 142.597 32.3328L142.603 32.3248Z" fill="white"/>
<path d="M140.414 23.0447C140.708 21.9528 140.972 21.4508 141.59 20.7268C141.872 20.4009 142.136 20.0489 142.622 20.0009C142.658 20.1029 142.73 20.2069 142.7 20.2469C142.152 21.0609 141.602 21.8608 141.03 22.6568C140.94 22.7768 140.748 22.8328 140.414 23.0447Z" fill="white"/>
<path d="M133.654 23.2745C133.334 24.5345 133.034 25.6845 132.73 26.8564C132.576 26.7784 132.444 26.7544 132.436 26.6984C132.14 25.4764 132.502 24.4104 133.204 23.4245C133.252 23.3605 133.346 23.3185 133.426 23.2785C133.46 23.2665 133.504 23.2745 133.66 23.2665L133.654 23.2745Z" fill="white"/>
<path d="M133.792 25.6405C134.03 23.9565 134.502 23.1106 135.48 22.6566C135.486 22.7986 135.526 22.9286 135.484 23.0346C135.138 23.8626 134.784 24.6846 134.406 25.4885C134.286 25.7485 134.086 25.9485 133.792 25.6405Z" fill="white"/>
<path d="M135.828 24.6428C135.618 23.8227 136.094 23.2548 136.438 22.6628C136.696 22.2188 137.012 21.7809 137.788 21.7629C137.234 22.7349 136.734 23.5848 136.212 24.4308C136.146 24.5188 136 24.5468 135.828 24.6428Z" fill="white"/>
<path d="M152.639 17.4139C153.445 17.506 153.542 18.042 153.724 18.466C154.03 19.158 153.998 19.684 153.68 20.458C153.198 19.484 153.09 18.478 152.639 17.4139Z" fill="white"/>
<path d="M142.858 22.2537C143.416 20.6097 143.778 20.0938 144.556 19.7398C144.334 20.6858 143.892 21.5918 143.358 22.1537C143.29 22.2277 143.13 22.2077 142.858 22.2537Z" fill="white"/>
<path d="M138.548 23.5332C138.72 22.4372 139.192 21.5413 140.126 20.8293C140.168 21.0233 140.254 21.1753 140.208 21.2533C139.732 22.0713 139.422 23.0013 138.548 23.5332Z" fill="white"/>
<path d="M147.266 18.7097C146.694 20.2057 146.082 20.8216 145.248 20.8835C145.724 19.9656 145.996 19.6696 147.266 18.7097Z" fill="white"/>
<path d="M158.646 29.1708C158.728 27.9948 159.08 27.3588 160.328 25.9449C160.314 26.1969 160.35 26.3489 160.294 26.4569C159.868 27.3249 159.42 28.1889 158.638 29.1648L158.646 29.1708Z" fill="white"/>
<path d="M140.677 30.4928C139.787 30.7628 139.089 30.9767 138.351 31.2106C138.701 30.6107 138.773 30.5147 139.209 30.3667C139.611 30.2307 140.039 29.9768 140.685 30.4988L140.677 30.4928Z" fill="white"/>
<path d="M151.998 20.3343C151.718 19.6743 151.676 19.1803 151.66 18.5683C152.15 18.8983 152.25 19.2983 152.248 19.7343C152.246 19.8703 152.138 20.0143 151.998 20.3343Z" fill="white"/>
<path d="M131.775 35.0779C132.009 35.2159 132.245 35.3679 132.597 35.5819C132.073 35.7139 131.925 35.3779 131.775 35.0779Z" fill="white"/>
<path d="M114.093 49.664C115.487 49.5721 117.377 49.4022 119.261 49.3404C120.193 49.3145 121.161 49.3905 122.075 49.5886C125.685 50.4089 127.511 53.2411 127.446 56.5431C127.388 59.2371 126.468 61.647 125.038 63.8869C124.086 65.3728 122.916 66.6827 121.589 67.8506C118.225 70.8023 114.581 73.344 110.535 75.2717C109.605 75.7116 108.635 76.1215 107.643 76.3774C106.381 76.6933 105.079 76.8292 103.793 77.0271C103.527 77.0651 103.257 77.0251 102.987 76.985C101.041 76.7129 99.2588 75.9887 97.6088 74.9386C96.8389 74.4485 96.2549 73.7605 95.799 72.9684C94.0653 69.9303 93.4335 66.6562 93.9058 63.2103C94.3301 60.1283 95.8303 57.5784 98.3324 55.7427C101.843 53.1629 105.687 51.2213 110.025 50.4376C111.223 50.2237 112.419 49.9958 114.103 49.684L114.093 49.664ZM99.7629 74.2168C100.057 74.3748 100.283 74.5068 100.521 74.6228C102.469 75.559 104.537 75.5852 106.607 75.2753C107.307 75.1754 108.053 75.3475 108.715 74.9815C109.345 74.6416 110.011 74.3536 110.641 74.0137C114.101 72.134 117.277 69.8662 120.227 67.2665C120.97 66.6105 121.668 65.8966 122.32 65.1606C123.718 63.5968 124.756 61.8128 125.406 59.8129C125.858 58.4269 126.048 57.0069 125.854 55.5489C125.571 53.4109 124.379 52.0168 122.365 51.3186C121.899 51.1566 121.409 51.0266 120.921 51.0105C119.615 50.9684 118.307 50.9123 117.013 51.0042C114.679 51.166 112.361 51.5398 110.061 51.9896C106.191 52.7493 102.731 54.429 99.5104 56.6387C97.7543 57.8466 96.5361 59.5205 95.9299 61.5785C94.8296 65.3284 95.3513 68.8824 97.2811 72.2426C97.539 72.6986 97.963 73.0666 98.345 73.4406C98.4789 73.5787 98.7209 73.6227 98.9509 73.7327C99.047 73.1547 99.091 72.6627 99.2171 72.1947C99.7452 70.3408 100.763 68.9669 102.821 68.623C103.707 68.4751 104.593 68.2772 105.457 68.0252C109.181 66.9435 112.264 64.8178 114.958 62.076C115.102 61.934 115.262 61.8041 115.496 61.5921C115.534 61.8581 115.574 61.9881 115.554 62.0981C115.31 63.1901 114.71 64.09 113.918 64.8459C111.183 67.4577 108.029 69.2795 104.261 69.9031C103.779 69.9791 103.295 70.0911 102.829 70.179C102.445 70.791 102.089 71.349 101.943 72.1769C102.455 71.811 102.673 71.237 103.375 71.2511C102.949 72.019 102.651 72.783 102.047 73.355C101.857 73.2249 101.723 73.1369 101.597 73.0549C101.385 73.2209 101.407 73.6249 100.923 73.4869C100.947 73.2049 100.931 72.8929 101.027 72.6149C101.189 72.1489 101.411 71.7029 101.611 71.2529C101.675 71.1009 101.795 70.9409 101.539 70.7989C100.517 71.6448 100.185 72.8708 99.7249 74.2008L99.7629 74.2168Z" fill="white"/>
<path d="M122.098 63.8063C123.72 61.0605 124.772 58.2246 123.774 54.9385C123.902 55.0845 124.076 55.2025 124.156 55.3625C125.528 58.4166 124.272 62.1745 122.112 63.8043L122.098 63.8063Z" fill="white"/>
<path d="M115.409 69.79C115.419 69.66 115.379 69.48 115.449 69.42C117.047 68.0061 118.627 66.5662 120.374 65.2884C120.552 65.6344 120.322 65.7744 120.182 65.8944C119.141 66.8143 118.093 67.7282 117.025 68.6021C116.507 69.0261 115.929 69.38 115.383 69.758L115.415 69.782L115.409 69.79Z" fill="white"/>
<path d="M97.6253 69.6501C96.9894 68.2481 97.0856 66.8201 97.0557 65.4101C97.0557 65.0601 97.0477 64.7041 97.4638 64.3661C97.8216 65.8222 97.8095 67.2382 97.9154 68.6302C97.9414 68.9622 97.9274 69.3142 97.6193 69.6581L97.6253 69.6501Z" fill="white"/>
<path d="M122.89 57.8011C122.714 56.7691 122.616 55.9331 122.428 55.1171C122.24 54.3011 121.962 53.505 121.715 52.669C122.193 52.7151 122.374 53.0891 122.542 53.4151C123.14 54.6011 123.288 55.8871 123.254 57.1991C123.246 57.3431 123.094 57.4791 122.904 57.7991L122.89 57.8011Z" fill="white"/>
<path d="M103.345 66.3915C103.781 66.0935 104.003 65.8976 104.263 65.7676C105.729 65.0297 107.153 64.6478 108.765 64.532C107.953 65.2479 106.997 65.3058 106.155 65.6117C105.327 65.9157 104.507 66.3256 103.337 66.3855L103.345 66.3915Z" fill="white"/>
<path d="M113.023 71.0875C111.979 71.8295 109.165 73.0812 107.831 73.4431C108.455 72.6112 110.471 71.6733 113.023 71.0875Z" fill="white"/>
<path d="M101.642 58.5627C101.154 59.3966 101.082 60.3426 100.912 61.2526C100.854 61.5466 100.79 61.8486 100.69 62.2986C100.484 62.0566 100.318 61.9446 100.292 61.8126C100.136 60.5205 100.414 59.3166 101.198 58.2546C101.246 58.1906 101.35 58.1686 101.49 58.0987C101.53 58.2787 101.568 58.4447 101.604 58.5967L101.64 58.5487L101.642 58.5627Z" fill="white"/>
<path d="M121.488 56.3369C120.946 54.7428 120.693 53.3148 119.597 52.1927C120.019 51.9968 120.275 52.1888 120.477 52.4028C121.155 53.1489 121.58 54.0309 121.704 55.0489C121.752 55.3849 121.83 55.7309 121.496 56.3429L121.488 56.3369Z" fill="white"/>
<path d="M101.598 58.605C102.018 58.395 101.98 57.929 102.166 57.581C102.368 57.1951 102.498 56.7551 103.016 56.5811C103.054 56.7471 103.138 56.8851 103.096 56.9911C102.738 58.0851 102.492 59.2131 102.004 60.497C101.822 60.123 101.682 59.943 101.662 59.753C101.62 59.359 101.634 58.957 101.628 58.565L101.592 58.613L101.598 58.605Z" fill="white"/>
<path d="M99.5261 59.7003C99.6 59.9183 99.688 60.0343 99.668 60.1443C99.4939 61.3263 99.1198 62.4583 98.9397 63.5983C98.5657 63.6303 98.4978 63.4542 98.4798 63.2782C98.3739 61.9862 98.716 60.8303 99.5181 59.6943L99.5261 59.7003Z" fill="white"/>
<path d="M103.57 58.9588C103.276 58.1008 103.54 57.3488 103.879 56.6148C104.073 56.1729 104.261 55.6889 104.815 55.5669C104.879 55.6649 104.979 55.7649 104.963 55.8029C104.429 56.8149 104.29 57.9989 103.578 58.9648L103.57 58.9588Z" fill="white"/>
<path d="M114.702 60.7336C114.456 61.3616 113.954 61.7976 113.474 62.2375C112.956 62.7115 112.468 63.2454 111.714 63.3674C111.67 63.2594 111.596 63.1414 111.622 63.1234C112.354 62.3974 113.08 61.6795 113.83 60.9796C114.038 60.7856 114.234 60.4576 114.696 60.7416L114.702 60.7336Z" fill="white"/>
<path d="M107.286 57.0213C107.05 56.6193 107.304 56.2473 107.424 55.8873C107.649 55.2053 107.965 54.5673 108.475 54.0374C108.581 53.9294 108.753 53.8834 108.913 53.8034C108.943 53.9634 108.999 54.0554 108.971 54.1094C108.501 55.0694 108.028 56.0153 107.55 56.9693C107.532 56.9933 107.478 57.0153 107.436 57.0213C107.394 57.0273 107.358 57.0253 107.292 57.0133L107.286 57.0213Z" fill="white"/>
<path d="M109.236 56.4219C109.298 55.0559 109.933 53.794 110.955 52.8481C110.887 53.7721 110.116 55.432 109.236 56.4219Z" fill="white"/>
<path d="M105.136 57.8712C105.471 56.0092 105.959 55.1253 106.877 54.7013C106.773 55.0233 106.715 55.2673 106.619 55.4953C106.327 56.2013 106.026 56.9013 105.702 57.5833C105.646 57.6912 105.436 57.7212 105.128 57.8652L105.136 57.8712Z" fill="white"/>
<path d="M119.938 55.0861C119.34 54.4501 119.35 53.8201 119.052 53.3341C118.775 52.888 118.531 52.43 118.281 51.98C118.603 51.734 118.799 51.956 118.983 52.1441C119.687 52.8721 119.95 53.6201 119.938 55.0861Z" fill="white"/>
<path d="M116.499 52.906C116.879 52.566 117.087 52.722 117.229 52.866C117.627 53.2521 117.849 53.7061 117.701 54.3701C117.071 54.01 117.001 53.32 116.493 52.914L116.499 52.906Z" fill="white"/>
<path d="M112.529 53.3161C112.265 54.7181 112.151 54.92 111.469 55.346C111.497 54.492 111.591 54.3 112.529 53.3161Z" fill="white"/>
<path d="M104.915 74.1311C105.305 73.7112 105.639 73.6492 106.167 73.7453C105.799 74.1692 105.417 74.0952 104.915 74.1311Z" fill="white"/>
<path d="M115.377 69.7665C115.303 69.7985 115.235 69.8225 115.161 69.8545C115.155 69.8625 115.121 69.8245 115.097 69.8065C115.197 69.8065 115.295 69.7925 115.403 69.7985L115.379 69.7805L115.377 69.7665Z" fill="white"/>
</g>
</g>
<defs>
<clipPath id="clip0_1231_9986">
<rect width="391" height="237" fill="white"/>
</clipPath>
<clipPath id="clip1_1231_9986">
<rect width="391" height="240" fill="white" transform="translate(0 -3)"/>
</clipPath>
<clipPath id="clip2_1231_9986">
<rect width="388" height="192" fill="white" transform="translate(3 31)"/>
</clipPath>
<clipPath id="clip3_1231_9986">
<rect width="66.32" height="89.83" fill="white" transform="translate(272 66)"/>
</clipPath>
<clipPath id="clip4_1231_9986">
<rect width="45.32" height="150" fill="white" transform="translate(144.01 -6) rotate(36.8746)"/>
</clipPath>
</defs>
</svg>
