<svg width="21" height="20" viewBox="0 0 21 20" fill="none" xmlns="http://www.w3.org/2000/svg">
<path d="M3.5 15C4.03043 15 4.53914 15.2107 4.91421 15.5858C5.28929 15.9609 5.5 16.4696 5.5 17C5.5 17.5304 5.28929 18.0391 4.91421 18.4142C4.53914 18.7893 4.03043 19 3.5 19C2.96957 19 2.46086 18.7893 2.08579 18.4142C1.71071 18.0391 1.5 17.5304 1.5 17C1.5 16.4696 1.71071 15.9609 2.08579 15.5858C2.46086 15.2107 2.96957 15 3.5 15ZM3.5 15H10M3.5 15V1H1.5M3.5 3L17.5 4L16.5 11H3.5M13.5 17H19.5" stroke="#6E8382" stroke-width="1.5" stroke-linecap="round" stroke-linejoin="round"/>
</svg>
