<svg width="344" height="287" viewBox="0 0 344 287" fill="none" xmlns="http://www.w3.org/2000/svg">
<g clip-path="url(#clip0_47_516)">
<path d="M50.774 196.316C48.294 207.092 47.4621 218.319 48.3812 229.348C49.229 240.179 53.3015 251.454 62.0093 258.332C73.4585 267.119 90.5887 267.602 104.47 266.429C126.759 264.203 147.732 255.931 169.259 250.155C183.648 246.225 198.385 243.697 213.186 242.041C235.411 239.633 257.779 239.245 280.114 239.482C294.947 239.664 310.08 240.076 324.334 244.601C331.449 246.803 338.184 250.258 344.008 254.901C332.258 245.472 317.14 241.907 302.418 240.607C287.586 239.427 272.666 239.736 257.794 239.902C228.098 240.457 198.187 242.976 169.481 250.924C141.044 258.633 112.291 271.389 82.182 267.23C74.7579 266.223 67.2228 264.052 61.2249 259.346C52.1685 252.255 47.8899 240.647 46.9629 229.483C45.9883 218.272 46.7727 206.941 49.2448 195.959L50.7898 196.324L50.774 196.316Z" fill="#8E8373"/>
<path d="M52.6518 207.076C52.1526 212.448 51.6852 217.812 51.6218 223.168C51.6059 225.846 51.6376 228.524 51.8833 231.186C52.1051 233.849 52.4617 236.495 53.0638 239.094C53.3174 240.401 53.7294 241.669 54.0859 242.945C54.5296 244.197 54.9337 245.464 55.4884 246.669C55.9717 247.913 56.6293 249.061 57.2157 250.25C57.905 251.383 58.5626 252.532 59.355 253.594C62.4134 257.936 66.4621 261.541 70.9705 264.377C73.2366 265.772 75.6215 266.984 78.0857 268.014C80.5577 269.012 83.117 269.813 85.7158 270.423C90.9214 271.603 96.3172 271.968 101.658 271.611C112.37 270.922 122.805 267.57 132.432 262.832C142.106 258.11 151.154 252.088 161.106 247.778C170.979 243.325 181.501 240.409 192.189 238.801C192.855 238.698 193.52 238.579 194.194 238.492L196.206 238.278L200.239 237.842L204.288 237.612L206.309 237.501C206.982 237.478 207.664 237.486 208.337 237.478L212.394 237.454C213.741 237.47 215.096 237.565 216.443 237.62C219.144 237.684 221.83 238.024 224.516 238.27C235.253 239.498 245.798 242.24 255.821 246.241C245.775 242.295 235.221 239.625 224.493 238.468C221.807 238.238 219.129 237.921 216.427 237.874C215.08 237.834 213.733 237.747 212.386 237.739L208.345 237.787C207.671 237.802 206.998 237.787 206.325 237.818L204.304 237.945L200.271 238.199L196.254 238.65L194.249 238.88C193.584 238.967 192.918 239.094 192.253 239.197C181.612 240.869 171.153 243.832 161.352 248.325C151.487 252.667 142.486 258.736 132.788 263.545C123.114 268.379 112.6 271.833 101.729 272.602C96.3014 272.99 90.8105 272.665 85.4781 271.484C82.8159 270.874 80.2012 270.074 77.6657 269.068C75.1382 268.03 72.6899 266.81 70.3525 265.384C65.7174 262.499 61.518 258.815 58.317 254.346C57.485 253.253 56.7957 252.064 56.0747 250.892C55.4567 249.664 54.7673 248.475 54.2602 247.199C53.6818 245.956 53.254 244.648 52.7945 243.357C52.4141 242.041 51.9863 240.734 51.7169 239.395C51.0751 236.733 50.7027 234.023 50.4571 231.305C50.1956 228.588 50.1401 225.862 50.1401 223.152C50.1718 217.717 50.6076 212.305 51.0751 206.925L52.6518 207.068V207.076Z" fill="#8E8373"/>
<path d="M-11.8202 141.693C-16.7485 121.338 -19.8148 100.531 -20.9716 79.6214C-21.0667 77.8941 -21.138 76.1035 -20.4883 74.5029C-19.8386 72.9024 -18.2539 71.5476 -16.5346 71.7298C-16.3127 73.362 -15.8215 73.5046 -15.1638 75.018C-18.9195 104.564 -10.5208 135.465 7.68703 159.037C11.2367 163.632 15.1349 167.958 18.4469 172.72C30.5458 190.128 33.9607 211.933 37.0508 232.906C40.0379 225.125 43.0646 217.337 45.2118 209.286C48.6585 196.371 49.8074 182.973 50.9325 169.662C51.2732 165.629 51.6139 161.509 50.6472 157.571C48.7377 149.79 42.1931 144.157 35.997 139.07C30.6488 140.845 25.3005 142.628 19.9602 144.402C23.3276 140.14 28.4461 137.311 33.8498 136.733C26.291 126.963 24.0645 113.303 28.145 101.64C29.7376 101.45 31.3302 101.252 32.9307 101.062C28.4937 112.582 30.4982 126.353 38.0412 136.13C44.0392 143.911 53.3332 149.473 56.5818 158.752C58.4913 151.304 63.3642 144.648 69.893 140.583C57.1681 156.818 54.1335 178.386 51.5426 198.851C56.6927 190.381 68.0468 187.022 72.6503 178.235C73.9656 175.723 74.639 172.903 76.0969 170.462C79.5594 164.678 86.5478 162.262 92.0228 158.332C96.1667 155.352 99.5182 151.422 102.822 147.532C107.243 142.334 111.704 137.065 114.739 130.949C117.774 124.832 119.271 117.693 117.449 111.117C119.128 110.578 120.8 110.031 122.48 109.492C122.551 109.469 122.282 118.018 122.155 118.834C121.696 121.821 119.992 125.038 119.865 127.93C124.128 126.226 128.391 121.655 131.639 118.454C134.175 115.958 136.726 112.812 136.306 109.278C136.013 106.814 127.971 104.168 126.085 103.368C126.592 98.9701 133.105 102.559 135.189 103.764C138.548 105.697 141.409 108.502 143.334 111.869C147.637 110.079 152.192 108.882 156.82 108.312C157.564 110.158 154.522 110.895 152.525 110.839C143.033 110.578 136.227 119.349 129.373 125.909C125.214 129.895 120.523 133.302 116.252 137.168C112.655 140.425 109.367 143.998 106.087 147.572C101.959 152.056 97.8385 156.541 93.7104 161.026C90.1846 164.86 86.6429 168.703 83.4894 172.855C81.2154 175.842 79.1474 178.988 76.7229 181.848C72.4601 186.879 67.1753 190.944 62.5401 195.635C49.1814 209.16 41.5909 227.605 38.6355 246.383C35.6801 265.162 37.0825 284.36 39.7368 303.178C37.9858 303.13 36.3773 304.081 34.6263 304.041C34.5867 294.835 34.5471 285.628 34.5074 276.421C34.452 262.634 34.3807 248.729 31.552 235.235C30.0149 227.914 27.6855 220.783 25.356 213.668C22.6066 205.277 19.8572 196.886 17.1078 188.496C15.8401 184.629 14.5565 180.723 12.5519 177.181C11.102 174.622 9.28752 172.285 7.46515 169.971C-5.38646 153.641 -19.6722 137.414 -38.6802 129.023C-44.6465 126.393 -50.9455 124.61 -57.3238 123.303C-62.9256 122.154 -69.6208 122.352 -74.8739 120.284C-81.1888 117.796 -87.4165 112.368 -93.1768 108.74C-99.2936 104.881 -105.41 101.022 -111.527 97.1715C-116.907 93.7804 -122.295 90.3813 -127.445 86.6494C-142.634 75.6439 -155.7 61.7385 -165.723 45.8998C-161.737 50.6538 -157.189 54.9403 -152.205 58.6325C-155.248 48.2292 -155.121 36.9147 -151.833 26.5827C-152.467 32.3826 -152.768 38.2221 -152.72 44.0616C-152.689 47.8331 -152.514 51.6363 -151.564 55.281C-148.315 67.681 -136.929 75.9371 -126.32 83.1394C-114.348 91.2687 -102.376 99.3901 -90.4036 107.519C-85.1029 111.117 -79.6834 114.769 -73.519 116.512C-69.0503 117.78 -64.3597 117.986 -59.7562 118.628C-42.0239 121.108 -24.6243 129.316 -11.8123 141.693H-11.8202Z" fill="#D3CDA5"/>
<path d="M-11.836 141.653C-16.2177 123.944 -19.0859 105.753 -20.5755 87.5606C-20.8053 84.518 -21.0271 81.4834 -21.1776 78.425C-21.2252 76.9037 -21.1301 75.2953 -20.3774 73.8929C-19.6088 72.4825 -18.0717 71.3415 -16.392 71.5713C-16.3286 72.9421 -15.4332 73.8295 -14.9975 75.0417C-18.4996 103.185 -11.0279 132.494 5.42885 155.558C9.46182 161.382 14.406 166.524 18.4944 172.356C21.537 176.753 24.1041 181.452 26.2355 186.348C27.1863 188.607 28.2955 191.507 29.0958 193.82C33.3427 206.466 35.3948 219.714 37.336 232.866L36.7576 232.803C39.7764 224.927 42.8348 217.051 44.9741 208.906C48.191 196.673 49.3636 184.011 50.4333 171.429C50.7661 167.23 51.289 163.006 50.5601 158.902C49.0388 150.456 42.0979 144.553 35.7751 139.339L36.1 139.403L20.0553 144.719L19.0015 145.068C22.464 140.29 27.9152 137.026 33.8022 136.416L33.5804 136.931C25.9582 127.05 23.7317 113.319 27.8518 101.545L27.9152 101.371L28.0975 101.347L32.8831 100.777L33.3665 100.721L33.1921 101.173C29.2622 111.457 30.419 123.509 36.1475 132.89C41.781 142.406 52.937 147.952 56.7957 158.672L56.3282 158.696C58.2615 151.185 63.174 144.49 69.7503 140.393L70.8596 139.704C67.3496 144.03 64.4338 148.832 62.136 153.91C55.7419 168.054 53.6739 183.607 51.7089 198.875L51.3762 198.756C56.5818 190.381 66.8979 187.315 71.9609 179.067C73.2445 177.062 73.9021 174.741 74.8688 172.546C77.6499 165.542 85.2246 162.729 91.0244 158.847C95.0019 156.2 98.2663 152.651 101.364 149.038C104.462 145.401 107.608 141.796 110.365 137.897C115.856 130.307 119.857 120.553 117.298 111.156L117.266 111.029L117.393 110.99L120.254 110.063L121.68 109.603L122.393 109.373H122.417C122.417 109.373 122.448 109.366 122.496 109.373C122.551 109.389 122.599 109.453 122.607 109.484C122.615 109.548 122.607 109.532 122.615 109.564V109.667C122.425 113.803 122.844 118.287 121.434 122.178C120.832 124.087 120.111 125.981 120 127.954L119.794 127.803C124.144 125.925 127.48 122.312 130.823 119.032C133.509 116.409 136.663 113.137 136.084 109.104C135.847 108.431 135.205 107.9 134.587 107.456C131.94 105.681 128.858 104.667 125.879 103.486C126.537 98.5264 133.169 102.448 135.609 103.819C138.842 105.76 141.599 108.502 143.477 111.782L143.239 111.703C147.557 109.904 152.129 108.7 156.772 108.129L156.931 108.114L156.978 108.256C157.842 111.283 152.493 111.037 150.671 111.125C140.157 112.527 134.159 122.55 126.497 128.809C122.638 132.153 118.558 135.235 114.874 138.761C106.404 147.168 96.8718 158.038 88.8217 166.794C83.5765 172.411 79.8129 179.202 74.4647 184.732C69.1006 190.191 62.9996 194.898 58.2061 200.904C41.9316 220.847 36.6784 247.469 37.3677 272.697C37.5975 283.037 38.6751 293.337 40.133 303.582C38.3027 303.4 36.6626 304.438 34.5946 304.43H34.2459V304.073L34.1509 281.737C34.0479 266.889 34.341 251.906 31.552 237.272C29.1433 224.721 22.5828 206.949 18.6766 194.573C17.504 191.039 16.3947 187.474 15.1508 183.987C13.3918 178.663 10.3096 174.028 6.75996 169.741C-1.28221 159.552 -9.776 149.568 -19.8386 141.312C-31.2244 131.749 -45.2091 125.561 -59.883 123.287C-63.5436 122.764 -67.2834 122.582 -70.9757 121.829C-74.6917 121.14 -78.1384 119.389 -81.2998 117.384C-84.4691 115.387 -87.4562 113.145 -90.5067 111.029C-99.769 104.905 -109.451 99.1128 -118.769 93.0514C-137.682 81.0793 -154.06 65.0346 -166 46.0741L-165.477 45.6938C-161.515 50.4319 -156.991 54.7026 -152.023 58.3869L-152.507 58.7197C-155.557 48.253 -155.414 36.883 -152.11 26.4956L-151.564 26.6144C-152.015 30.7029 -152.301 34.8151 -152.412 38.9273C-152.657 47.0487 -152.625 55.6613 -148.117 62.7527C-141.628 73.4412 -130.488 79.8829 -120.465 86.8712L-100.007 100.777C-91.7902 106.062 -82.9082 113.581 -73.5111 116.362C-67.5449 118.018 -61.2617 117.97 -55.2241 119.286C-39.0923 122.479 -23.6656 130.196 -11.844 141.661L-11.836 141.653ZM-11.7964 141.724C-24.5688 129.633 -40.9701 121.702 -58.3063 118.992C-65.4135 117.915 -72.8614 117.843 -79.3823 114.421C-86.0696 111.172 -94.0008 105.15 -100.221 101.086L-120.702 87.2119C-133.808 78.1873 -150.478 68.6714 -152.586 51.2956C-153.426 43.0474 -152.927 34.7675 -152.118 26.5431L-151.572 26.662C-154.828 36.9464 -154.947 48.1975 -151.912 58.5454L-151.651 59.4249C-156.944 55.59 -161.777 51.1212 -165.976 46.1058L-165.453 45.7255C-153.521 64.5909 -137.215 80.5088 -118.341 92.3859C-109.016 98.4155 -99.3253 104.223 -90.055 110.364C-84.0016 114.468 -78.1542 119.602 -70.8251 121.052C-67.2121 121.789 -63.4882 121.979 -59.78 122.502C-35.9626 126.187 -18.9195 138.587 -3.36604 156.351C0.349991 160.526 3.87587 164.868 7.34628 169.258C9.6599 172.182 11.9973 175.161 13.6612 178.536C16.1412 183.583 17.5674 189.042 19.3818 194.327C23.3355 206.775 29.8327 224.404 32.2651 237.121C35.0541 251.819 34.761 266.841 34.864 281.721L34.959 304.057L34.6025 303.693C36.2188 303.748 37.8194 302.805 39.713 302.829L39.3486 303.241C37.9303 293.123 36.8686 282.934 36.6467 272.705C35.9494 247.342 41.3294 220.553 57.7307 200.515C62.5401 194.509 68.6727 189.787 74.0527 184.336C79.3851 178.837 83.1724 172.039 88.4176 166.445C96.5074 157.69 106.047 146.835 114.541 138.428C118.241 134.894 122.337 131.812 126.196 128.477C133.913 122.178 139.975 112.107 150.624 110.72C152.47 110.578 154.498 110.871 156.114 109.825C156.606 109.5 156.843 108.954 156.606 108.399L156.812 108.518C152.145 109.088 147.557 110.3 143.223 112.115C141.377 108.835 138.636 106.069 135.411 104.136C133.367 102.971 126.838 99.089 126.228 103.399L126.125 103.217C129.048 104.382 132.091 105.396 134.769 107.187C135.411 107.654 136.092 108.169 136.393 109.009C136.544 109.857 136.496 110.649 136.346 111.449C135.664 114.65 133.279 117.059 131.037 119.262C127.654 122.566 124.334 126.171 119.897 128.088L119.675 128.183L119.691 127.946C119.889 124.879 121.371 122.178 121.925 119.214C122.266 116.14 122.234 112.963 122.329 109.865V109.682V109.595C122.329 109.595 122.329 109.548 122.329 109.579C122.329 109.603 122.377 109.667 122.432 109.667C122.48 109.667 122.52 109.651 122.504 109.659C121.307 110.047 118.724 110.879 117.48 111.275L117.568 111.109C121.402 125.901 110.619 138.809 101.562 149.228C98.4644 152.849 95.1921 156.43 91.1829 159.1C87.2133 161.778 82.7683 163.735 79.2345 166.944C78.355 167.745 77.5706 168.632 76.8654 169.583C76.184 170.549 75.6136 171.587 75.154 172.689C70.8279 187.196 58.9588 188.076 51.6931 198.962L51.2494 199.683L51.3524 198.851C53.9354 178.631 56.8036 157.04 69.7028 140.465L70.0039 140.797C63.2928 144.981 58.3883 151.914 56.6134 159.615L56.3441 158.855C52.4379 148.174 41.3611 142.754 35.6959 133.191C29.8643 123.659 28.6759 111.441 32.6534 100.983L32.9624 101.379L28.1846 101.957L28.4302 101.759C24.3973 113.335 26.6079 126.876 34.1113 136.558L34.4599 137.01L33.8894 137.073C28.5808 137.644 23.5336 140.433 20.2296 144.632L19.8651 144.109L35.9019 138.769L36.0842 138.706C39.3961 141.423 42.708 144.189 45.5287 147.477C52.216 155.043 52.1526 162.056 51.1305 171.5C50.045 184.114 48.8486 196.791 45.6001 209.08C43.437 217.273 40.3627 225.157 37.3281 233.033L36.9161 234.094L36.7497 232.961C34.8243 219.824 32.8039 206.624 28.5808 194.002C27.7805 191.681 26.695 188.828 25.7442 186.57C23.6366 181.697 21.0853 177.031 18.0745 172.657C14.0257 166.857 9.08942 161.699 5.03268 155.844C-11.4478 132.668 -18.9353 103.233 -15.3461 75.0021L-15.3302 75.0972C-15.56 74.5505 -15.8611 74.0592 -16.1622 73.5205C-16.4712 72.9817 -16.6297 72.3557 -16.7089 71.7536L-16.5583 71.8962C-18.0242 71.7377 -19.3949 72.7757 -20.0922 74.0513C-20.8053 75.3587 -20.9082 76.9196 -20.8686 78.4171C-20.7339 81.4517 -20.52 84.5022 -20.2982 87.5368C-18.9037 105.816 -16.0037 123.865 -11.7964 141.724Z" fill="#8E8373"/>
<path d="M6.24496 152.666C-2.55785 147.73 -8.16755 138.809 -12.0975 129.768C-14.0546 125.22 -16.2414 120.688 -17.2081 115.783C-18.0955 110.887 -18.1192 105.887 -18.4124 100.935C-18.7373 94.335 -18.9591 87.7349 -19.0463 81.1268C-18.2539 87.4972 -18.0162 94.3508 -17.5963 100.896C-17.0971 107.472 -17.5091 114.167 -15.4649 120.45C-11.4003 132.842 -4.33267 144.965 6.24496 152.659V152.666Z" fill="#8E8373"/>
<path d="M-21.2806 80.7386C-24.6877 77.395 -28.1581 73.9562 -30.2181 69.6539C-32.2782 65.3515 -32.6664 59.924 -29.9646 55.9862C-29.0693 54.6788 -27.8808 53.6012 -26.6051 52.6663C-20.8369 48.4828 -12.5729 47.532 -6.49574 51.2401C-5.33101 51.9532 -4.24552 52.8248 -3.36603 53.8706C-2.14584 55.3206 -1.32974 57.0717 -0.703796 58.8544C0.247002 61.5642 0.777863 64.4245 0.880867 67.2927C0.936329 68.9645 0.849182 70.676 0.270779 72.2527C-0.584938 74.6139 -2.47069 76.4996 -4.63375 77.7594C-6.80474 79.0272 -9.25305 79.7244 -11.7013 80.2632C-12.7631 80.493 -13.8644 80.7227 -14.7281 81.3725C-15.5679 82.0063 -16.1146 82.9888 -17.0337 83.4959C-18.8165 84.4784 -20.2348 81.7528 -21.2806 80.7227V80.7386Z" fill="#6D2929"/>
<path d="M-21.3123 80.7703C-25.9554 76.2382 -31.1927 71.3336 -32.096 64.5592C-32.405 62.3486 -32.199 60.035 -31.367 57.9353C-28.681 51.8264 -21.1063 48.8076 -14.7835 48.7997C-3.84936 49.077 0.413383 56.3744 1.24533 66.4291C1.79204 71.191 0.0885277 75.5251 -4.21383 77.9575C-7.09 79.7482 -10.4653 80.1443 -13.6188 80.9842C-14.6805 81.317 -15.3619 82.1727 -16.1305 82.9413C-18.349 85.239 -19.9337 82.3074 -21.3123 80.7703ZM-21.2569 80.7148C-19.9416 82.1093 -18.2619 85.0806 -16.289 82.7828C-15.56 81.9746 -14.8311 81.0318 -13.7614 80.6435C-5.86981 78.5359 1.32456 76.2857 0.41338 66.4846C0.096447 62.2614 -0.901886 57.7847 -3.4215 54.3223C-6.10751 50.9469 -10.5208 49.1483 -14.7994 49.077C-21.0588 48.974 -28.269 52.1434 -30.7649 58.173C-33.8708 66.9045 -27.2707 75.0417 -21.2648 80.7069L-21.2569 80.7148Z" fill="#541E1E"/>
<path d="M27.4557 104.144C25.2768 118.549 32.3444 132.264 42.2802 142.247C45.5446 145.646 49.1181 148.744 52.8182 151.708C48.8566 149.457 45.0296 146.13 41.6701 142.834C36.5754 137.771 32.8515 131.551 30.0229 124.99C27.0675 118.644 25.2134 110.847 27.4478 104.144H27.4557Z" fill="#8E8373"/>
<path d="M16.7355 76.2936C14.9923 70.5571 13.5582 64.6146 13.8672 58.6246C14.5565 45.3293 23.5337 34.0861 32.2969 24.0631C40.7114 14.4363 49.8232 4.63515 61.8587 0.309021C58.7449 12.6456 63.7603 25.3625 66.2799 37.8338C68.8629 50.6142 68.6411 64.5909 62.0806 75.8658C55.6785 86.8633 44.4829 93.5981 35.1492 101.799C32.9149 103.764 31.346 104.667 30.1338 104.715C27.6934 104.825 26.6634 101.521 24.429 96.6328C21.4181 90.0326 18.8431 83.2344 16.7434 76.2936H16.7355Z" fill="#7F7F3C"/>
<path d="M16.68 76.3095C14.9051 70.573 13.4631 64.6067 13.6849 58.5533C14.3584 44.0853 24.2071 32.3747 33.4061 22.0348C38.7464 16.0447 44.4353 10.229 51.083 5.66519C54.5217 3.33574 58.214 1.37075 62.136 -0.00790405C61.2645 3.16935 60.9792 6.48129 61.0822 9.76947C61.3912 19.3725 64.7428 28.4447 66.684 37.8022C67.9914 44.0616 68.649 50.5032 68.1815 56.929C66.7236 80.073 51.7327 88.8125 35.6088 102.029C33.1842 104.128 29.3731 107.147 27.0991 103.051C22.876 94.4935 19.461 85.4213 16.672 76.3016L16.68 76.3095ZM16.7909 76.2778C19.6195 85.3183 23.2246 94.335 27.6934 102.678C29.698 106.18 32.8752 103.106 34.967 101.308C50.6076 87.8696 65.4321 79.7007 67.0881 56.8577C68.3479 44.0616 64.2278 31.7329 61.7636 19.3171C60.6068 13.0497 60.0997 6.51298 61.6685 0.261489L61.9221 0.491265C54.3791 3.24858 47.9375 8.27196 42.2961 13.8975C36.6943 19.5865 31.4411 25.6874 26.4336 31.8993C21.529 38.127 17.0127 44.9411 15.0319 52.698C12.8688 60.5183 14.4694 68.6872 16.7909 76.2857V76.2778Z" fill="#636128"/>
<path d="M28.8105 104.77C28.9135 93.2495 34.0637 82.4817 38.1838 71.9675C40.648 65.613 42.6526 59.1 44.4116 52.5158C49.1497 35.0132 52.6914 16.8608 61.4229 0.768585C50.6947 21.0523 48.2464 44.2121 41.2026 65.8032C38.5008 74.3207 34.3806 82.8621 32.0036 91.4668C30.7755 95.8088 29.9832 100.285 29.999 104.762H28.8105V104.77Z" fill="#636128"/>
<path d="M15.951 73.8295C19.1204 81.2219 23.8427 87.822 29.1275 93.8358C30.2209 95.3413 31.0846 94.6202 32.8039 94.0418C39.6814 91.546 46.9074 88.3054 53.7373 85.6907C47.9929 88.6461 42.201 91.5143 36.2189 93.9626C34.7768 94.5569 33.1446 95.159 31.6709 95.6978C31.14 95.8721 30.4428 96.0702 29.7059 95.8087C28.9928 95.5314 28.5967 95.0085 28.248 94.6202C22.9553 88.5272 18.3439 81.5943 15.951 73.8374V73.8295Z" fill="#636128"/>
<path d="M14.6912 50.8519C19.3421 63.8223 24.215 77.0543 32.7088 88.0598L31.9719 87.8934C34.8798 86.4434 37.748 84.9063 40.5766 83.3137C48.7614 78.7023 57.6831 73.0847 65.8679 68.4733C55.108 75.6043 43.9916 83.1077 32.5028 88.9551L32.067 89.1769L31.7659 88.7887C23.28 77.6247 18.4547 64.2264 14.6912 50.8598V50.8519Z" fill="#636128"/>
<path d="M21.0615 37.9131C23.1533 43.7922 26.0532 52.4286 28.042 58.4503C29.1988 61.8732 30.2684 65.3278 31.3856 68.7665C32.5107 72.1814 33.4298 75.7548 35.7197 78.3537L34.9353 78.2665C45.5604 70.4779 57.1601 62.0237 67.9992 54.5758C57.6989 62.7448 46.1864 71.3574 35.6246 79.2173L35.2046 79.5343C32.4473 76.666 31.5124 72.7281 30.3556 69.0913C27.2496 59.1396 23.8743 47.9519 21.0695 37.9131H21.0615Z" fill="#636128"/>
<path d="M28.6204 28.4606C27.0912 35.4093 30.0545 42.2551 31.7184 48.9027C33.6676 55.5187 36.0129 62.1901 40.3945 67.6017L39.6497 67.467C42.2644 65.9458 44.5542 63.8382 46.8124 61.7306C53.4125 55.6613 59.9413 47.9678 66.6523 42.0174C60.3771 48.4432 54.1018 56.3586 47.5413 62.507C45.2911 64.6543 42.9933 66.8332 40.2281 68.4812L39.8082 68.7348L39.4912 68.3465C34.9829 62.8081 32.6534 55.9307 30.7914 49.1563C29.3177 42.4373 26.5287 35.3142 28.6125 28.4526L28.6204 28.4606Z" fill="#636128"/>
<path d="M35.3949 19.8796C37.6055 31.5348 40.4737 43.1346 44.7285 54.2114L43.7619 54.0053C47.5492 50.2735 51.0118 46.2326 54.4505 42.1838C57.4534 38.5628 61.6924 33.4127 64.7508 29.9264C58.4676 38.4123 52.0735 47.3894 44.5939 54.8452L43.96 55.4791L43.6272 54.6392C39.3328 43.499 36.6705 31.7329 35.387 19.8717L35.3949 19.8796Z" fill="#636128"/>
<path d="M41.9077 13.0814C42.5495 22.4785 44.3877 31.9231 48.1117 40.5912L47.1292 40.4486C51.0275 35.7817 54.5216 30.7029 58.4041 25.9964C59.6163 24.3721 61.3357 23.0886 62.1993 21.2345C61.5734 23.1995 59.9174 24.6178 58.8398 26.3371C55.0525 31.5507 51.6217 36.994 47.4223 41.9302C43.326 32.9452 41.575 22.9301 41.8998 13.0893L41.9077 13.0814Z" fill="#636128"/>
<path d="M49.3002 6.94876C49.6013 12.6773 50.6551 18.3742 52.6835 23.7462L51.8436 23.461C55.4091 21.3137 58.6022 18.5802 61.3912 15.4901C59.0617 19.325 55.7102 22.4864 51.8753 24.8079C49.53 19.2061 48.5158 12.9863 49.3081 6.94876H49.3002Z" fill="#636128"/>
<path d="M28.9215 102.765C22.7651 92.3146 18.336 80.8575 15.9035 68.9804C14.2 61.8257 14.7784 54.243 18.0111 47.6112C22.1312 38.7847 28.7393 31.4794 35.2443 24.3563C41.8524 17.2887 48.9992 10.7361 56.6135 4.76987C49.0467 10.7916 41.9474 17.3917 35.3949 24.491C28.9691 31.622 22.4086 38.9748 18.3756 47.7697C15.2221 54.3619 14.715 61.8177 16.4423 68.8695C18.9381 80.6594 23.4227 92.0294 29.6029 102.361L28.9215 102.765Z" fill="#636128"/>
<path d="M29.2067 102.116C35.9177 96.3951 42.5099 90.5239 48.9674 84.5101C55.4725 78.6627 61.5417 71.7932 63.3879 63.0062C65.4717 54.3936 64.5447 45.4165 63.1185 36.7721L58.5467 10.6886C60.0284 19.9985 64.6556 40.7496 64.8695 49.8931C65.4875 65.5417 60.8128 74.6218 49.3794 84.938C42.9615 91.0072 36.409 96.9339 29.7296 102.71L29.2146 102.108L29.2067 102.116Z" fill="#636128"/>
<path d="M125.309 162.135C125.942 161.968 126.576 161.778 127.186 161.548C127.377 161.477 127.575 161.39 127.646 161.2C127.725 161.002 127.614 160.78 127.511 160.598C122.504 152.104 111.371 150.67 102.545 151.7C101.436 151.827 100.295 151.977 99.2963 152.492C98.298 152.999 97.4581 153.95 97.3789 155.067C99.7401 155.036 102.101 154.742 104.407 154.188C107.798 153.372 111.411 154.497 114.723 155.566C118.716 156.858 122.409 159.092 125.309 162.135Z" fill="#D3CDA5"/>
<path d="M125.317 162.095L126.426 161.683C126.671 161.572 127.25 161.438 127.44 161.247C127.654 161.065 127.385 160.717 127.155 160.4C125.221 157.46 122.345 155.242 119.121 153.903C114.794 152.056 110.025 151.312 105.318 151.605C102.656 151.882 98.2346 151.708 97.6879 155.091L97.3789 154.758C99.8827 154.679 102.323 154.315 104.787 153.704C107.386 153.174 110.001 153.744 112.425 154.433C117.274 155.749 122.036 158.244 125.324 162.095H125.317ZM125.301 162.174C121.64 158.625 117.068 156.478 112.203 155.21C109.819 154.528 107.331 154.077 104.938 154.489C102.394 155.075 99.7005 155.424 97.0541 155.376L97.0778 155.051C97.4344 152.254 100.62 151.629 102.933 151.526C105.302 151.304 107.687 151.224 110.064 151.359C114.818 151.541 119.739 152.666 123.542 155.709C125.15 156.905 126.45 158.514 127.48 160.209C127.701 160.55 128.066 161.097 127.638 161.469C127.321 161.731 126.814 161.755 126.45 161.881L125.301 162.174Z" fill="#8E8373"/>
<path d="M175.78 142.485C195.62 151.248 219.818 139.545 239.999 147.493C234.318 140.06 228.637 132.636 222.963 125.204C217.813 118.462 212.465 111.552 205.12 107.305C200.683 104.746 195.707 103.273 190.684 102.25C184.226 100.935 177.555 100.341 171.042 101.331C165.939 102.116 159.395 103.97 155.599 107.71C152.311 110.95 154.807 116.837 156.328 120.894C159.799 130.188 166.605 138.42 175.78 142.477V142.485Z" fill="#7F7F3C"/>
<path d="M175.804 142.43C185.882 146.867 197.133 145.789 207.806 144.83C218.542 143.903 229.896 142.952 240.133 147.16L239.721 147.706L234.143 140.219C228.613 133.032 222.821 124.967 216.973 118.113C212.925 113.438 208.282 109.152 202.696 106.553C199.914 105.237 196.967 104.303 193.972 103.558C185.042 101.379 175.519 100.507 166.565 102.892C163.61 103.669 160.694 104.738 158.182 106.41C157.01 107.218 155.75 108.145 155.1 109.413C153.864 112.186 154.902 115.308 155.79 118.073C158.935 128.397 165.725 137.977 175.796 142.437L175.804 142.43ZM175.756 142.54C165.607 138.111 158.388 128.714 154.878 118.39C153.008 113.343 152.145 108.581 157.517 105.404C165.646 100.341 175.717 99.5327 185.011 100.721C198.797 102.496 208.598 106.727 217.393 117.756C224.928 127.201 232.701 137.826 240.284 147.279L241.076 148.285C235.696 146.058 229.873 145.226 224.073 145.1C208.06 144.727 191.04 149.172 175.764 142.54H175.756Z" fill="#636128"/>
<path d="M154.767 108.906C156.257 108.003 158.095 107.916 159.83 107.979C163.792 108.129 167.706 108.914 171.557 109.857C196.642 115.981 220.048 128.817 238.707 146.661" stroke="#636128" stroke-width="1.5" stroke-miterlimit="10"/>
<path d="M162.762 131.907C159.094 124.784 157.58 116.362 159.054 108.446C160.789 104.437 170.63 102.242 174.71 101.49C176.984 101.165 179.266 100.951 181.572 101.078C183.862 101.252 186.08 101.648 188.362 101.553C186.104 101.918 183.798 101.64 181.556 101.664C178.197 101.664 174.837 102.298 171.605 103.185C168.459 104.16 165.06 105.095 162.255 106.783C161.352 107.345 160.48 108.042 160.132 108.874C158.745 116.552 159.894 124.673 162.762 131.915V131.907Z" fill="#636128"/>
<path d="M196.864 103.819C189.155 103.978 181.477 104.984 174.021 106.933C171.549 107.591 169.093 108.312 166.676 109.167L167.072 108.605C167.263 119.904 169.418 131.139 173.189 141.788C168.491 131.4 166.074 120.014 165.892 108.621V108.193L166.296 108.058C176.073 104.683 186.532 103.162 196.864 103.827V103.819Z" fill="#636128"/>
<path d="M207.109 108.415C196.571 108.256 186.041 109.167 175.733 111.323L176.192 110.673C176.612 113.66 177.095 116.639 177.698 119.595C179.472 128.492 182.103 137.2 185.399 145.646C180.075 134.712 176.628 122.875 175.027 110.823L174.956 110.277L175.487 110.166C185.859 108.05 196.563 107.393 207.101 108.407L207.109 108.415Z" fill="#636128"/>
<path d="M215.936 116.362C207.006 115.609 198.021 115.411 189.076 115.918L189.622 115.245C190.09 117.946 190.549 120.648 191.096 123.326C192.728 131.345 195.081 139.339 199.653 146.217C192.673 137.517 190.216 126.218 188.473 115.443L188.37 114.801L189.02 114.769C198.013 114.326 207.069 114.809 215.943 116.378L215.936 116.362Z" fill="#636128"/>
<path d="M222.639 124.658C216.466 123.39 210.144 122.811 203.845 123.097L204.399 122.526C204.368 126.44 204.922 130.339 205.754 134.173C206.451 137.541 207.782 142.303 208.646 145.686C205.699 138.309 203.084 130.552 203.234 122.518L203.25 121.964L203.797 121.94C210.175 121.71 216.601 122.582 222.639 124.665V124.658Z" fill="#636128"/>
<path d="M227.955 131.115C224.247 130.608 220.555 130.228 216.823 130.164L217.401 129.459C218.122 132.026 218.788 134.609 219.398 137.208C220.008 139.791 220.531 142.43 222.29 144.513C220.095 142.857 219.192 140.005 218.423 137.493C217.583 134.681 216.815 131.844 216.102 129C220.127 129.11 224.168 129.768 227.963 131.123L227.955 131.115Z" fill="#636128"/>
<path d="M137.518 100.024C135.062 94.9926 133.842 87.9726 136.124 82.6798C138.223 77.8149 142.732 73.9959 147.937 72.9024C151.955 72.0547 156.241 72.8628 159.775 74.9308C164.014 77.4108 166.074 81.2298 166.708 86.0551C167.231 90.0089 166.938 94.2716 164.711 97.5757C162.081 101.474 157.366 103.257 153.214 105.483C151.17 106.584 149.205 107.836 147.351 109.223C146.416 109.92 143.865 112.883 142.962 111.727C142.613 111.283 142.597 109.738 142.391 109.167C142.011 108.09 141.488 107.068 140.941 106.069C139.832 104.033 138.533 102.116 137.518 100.032V100.024Z" fill="#6D2929"/>
<path d="M137.487 100.048C134.547 93.8675 133.208 85.9204 137.241 79.9066C141.084 73.8611 148.928 70.9295 155.766 73.0846C160.258 74.3524 164.347 77.4821 165.947 81.9825C168.332 88.4797 167.809 97.1081 161.605 101.284C156.328 104.889 150.085 106.814 145.434 111.33C144.776 111.822 143.564 112.765 142.779 111.909C142.28 111.093 142.463 110.126 142.225 109.286C141.123 105.99 138.968 103.177 137.479 100.056L137.487 100.048ZM137.558 100.008C139.246 103.645 142.344 106.814 142.914 110.887C143.081 112.432 144.332 111.465 145.069 110.847C147.969 107.971 151.519 105.816 155.164 104.017C159.157 101.997 163.57 99.8258 165.408 95.5076C167.754 89.5572 166.866 80.8099 161.764 76.4996C152.089 68.3703 137.407 74.3365 135.347 86.5622C134.658 91.0943 135.601 95.8325 137.566 100L137.558 100.008Z" fill="#541E1E"/>
<path opacity="0.35" d="M159.767 74.9308C164.006 77.4108 166.066 81.2298 166.7 86.0551C167.223 90.0089 166.93 94.2716 164.703 97.5756C162.073 101.474 157.358 103.257 153.207 105.483C151.162 106.584 149.197 107.836 147.343 109.223C146.408 109.92 143.857 112.883 142.954 111.727C147.177 108.264 147.668 102.06 150.988 97.7262C153.627 94.2795 157.652 91.9976 159.918 88.2895C162.406 84.2248 162.429 78.8845 159.767 74.9308Z" fill="#541E1E"/>
<path d="M13.4631 179.233C26.6396 197.893 32.8039 220.831 33.9053 243.468C34.0083 245.884 34.0717 250.789 34.0321 253.213L33.834 248.348C32.6138 224.166 26.703 199.747 13.4631 179.241V179.233Z" fill="#8E8373"/>
<path d="M43.54 146.122C53.6977 152.445 53.6106 165.938 52.4617 176.516C51.8991 182.046 51.083 187.545 49.9421 192.98C48.7932 198.408 47.3828 203.788 45.6159 209.049C47.058 203.7 48.3337 198.305 49.3399 192.861C50.3541 187.426 51.1702 181.943 51.6694 176.436C52.8579 165.914 53.1748 152.88 43.54 146.122Z" fill="#8E8373"/>
<path d="M51.2811 198.923C52.7549 196.839 54.8625 195.302 56.9384 193.891C61.1298 191.11 65.1865 188.147 68.6332 184.479C72.1908 180.818 74.3934 176.302 76.9685 171.944C81.2075 165.613 87.356 160.732 93.7501 156.739L93.7976 156.802C87.8552 161.374 81.9523 166.223 77.5944 172.348C75.0194 176.627 72.2541 180.953 68.8392 184.661C65.5273 188.48 61.6369 191.847 57.2712 194.399C55.1477 195.73 53.0322 197.092 51.3445 198.97L51.2811 198.923Z" fill="#8E8373"/>
<path d="M111.665 141.32C111.807 134.197 119.184 130.814 124.16 127.138C129.762 122.843 140.91 114.682 135.403 106.767C134.056 105.127 131.703 104.168 129.619 104.897C130.641 104.524 131.782 104.548 132.804 104.905C136.084 105.943 137.526 109.698 136.837 112.891C136.013 117.273 132.527 120.419 129.413 123.318C127.804 124.768 126.125 126.147 124.39 127.439C119.62 131.067 112.362 134.459 112.267 141.289L111.673 141.32H111.665Z" fill="#8E8373"/>
<path d="M39.7447 303.439C32.4473 289.352 35.0699 260.059 37.0825 244.204C39.301 229.578 42.0425 213.763 52.5884 202.623C55.9717 199.018 60.0918 195.555 64.4337 193.511C60.171 196.094 56.2886 199.279 53.0163 203.003C46.329 210.459 42.7635 219.999 40.4816 229.626C36.9161 244.141 35.0462 259.1 35.5929 274.052C35.9257 283.9 35.9574 294.312 39.7447 303.431V303.439Z" fill="#8E8373"/>
<path d="M119.58 111.956C122.211 116.782 118.185 129.76 113.756 132.914C115.198 131.67 116.133 129.99 116.934 128.294C118.542 124.879 119.643 121.258 119.984 117.487C120.166 115.641 120.475 113.66 119.572 111.948L119.58 111.956Z" fill="#8E8373"/>
<path d="M100.485 154.283C106.808 152.587 113.638 153.023 119.659 155.551C121.648 156.375 123.605 157.444 125.031 159.076C123.558 157.484 121.585 156.485 119.588 155.733C113.606 153.419 106.824 153.189 100.707 155.043L100.485 154.283Z" fill="#8E8373"/>
<path d="M122.718 182.672C122.908 186 123.882 189.225 124.857 192.41C128.415 204.073 132.551 216.433 142.138 223.968C150.473 230.521 161.558 232.28 172.143 232.835C182.729 233.389 193.544 232.993 203.686 236.083C203.948 228.089 198.544 220.997 197.3 213.09C196.793 209.865 196.991 206.561 196.579 203.32C195.842 197.52 193.172 192.14 190.224 187.085C188.283 183.75 186.183 180.493 183.664 177.569C176.778 169.599 166.985 164.559 156.82 161.834C146.654 159.1 136.037 158.522 125.507 158.252C120.301 158.118 124.16 164.472 124.033 168.022C123.859 172.926 122.44 177.736 122.726 182.664L122.718 182.672Z" fill="#9E9C57"/>
<path d="M122.773 182.664C123.098 187.252 124.754 191.602 126.093 195.975C129.611 206.64 134.246 217.875 143.738 224.523C153.246 231.068 165.155 232.185 176.406 232.692C185.557 233.12 194.875 233.247 203.734 235.901L203.48 236.083C203.623 229.634 200.231 223.929 198.203 217.97C196.444 213.454 196.634 208.534 196.191 203.804C195.184 195.952 190.874 188.979 186.643 182.458C173.879 163.22 149.079 159.378 127.654 158.649C126.267 158.688 124.358 158.102 123.375 159.275C122.979 159.829 122.963 160.645 123.035 161.406C123.264 163.775 124.326 166.025 124.128 168.466C123.867 173.22 122.52 177.894 122.765 182.68L122.773 182.664ZM122.654 182.672C122.353 177.878 123.653 173.196 123.859 168.442C123.985 166.065 122.86 163.807 122.575 161.453C122.488 160.661 122.432 159.758 122.94 158.973C124.041 157.508 126.101 158.078 127.67 157.991C130.847 158.046 134.032 158.134 137.217 158.316C153.009 159.187 169.735 163.086 181.453 174.384C186.096 178.869 189.456 184.423 192.482 190.065C194.701 194.311 196.539 198.899 197.03 203.716C197.411 208.462 197.11 213.248 198.789 217.78C200.707 223.778 204.05 229.602 203.868 236.099V236.353L203.623 236.281C194.82 233.579 185.518 233.571 176.39 233.35C167.215 233.136 157.778 232.526 149.237 228.786C135.72 223.208 129.714 209.207 125.863 196.055C124.564 191.665 122.947 187.291 122.662 182.68L122.654 182.672Z" fill="#7F7D33"/>
<path d="M124.231 158.252C135.791 172.871 151.186 183.765 165.266 195.817C179.441 207.916 192.332 221.496 203.654 236.273C186.675 213.89 165.084 195.999 143.207 178.663C136.084 172.665 129.183 166.302 123.304 158.997C122.829 158.403 123.732 157.634 124.231 158.26V158.252Z" fill="#7F7D33"/>
<path d="M156.566 161.303C150.156 162.563 143.802 164.092 137.574 166.049C135.506 166.707 133.438 167.372 131.394 168.101L131.75 167.681C129.476 180.168 129.452 193.06 131.592 205.57C132.02 208.153 132.764 211.663 133.382 214.207C132.55 211.703 131.616 208.248 131.037 205.681C128.288 193.052 128.169 179.843 130.736 167.166C139.119 164.345 147.779 162.325 156.566 161.311V161.303Z" fill="#7F7D33"/>
<path d="M172.928 168.291C162.414 168.22 151.923 170.423 142.375 174.82C140.601 175.462 140.323 176.928 140.109 178.631L139.357 183.845C137.011 197.663 137.408 212.052 142.993 225.101C136.449 212.218 135.942 197.687 138.184 183.678L138.992 178.457C139.135 177.601 139.246 176.658 139.697 175.747C140.101 174.844 141.06 174.178 141.932 173.83C151.598 169.472 162.358 167.507 172.928 168.275V168.291Z" fill="#7F7D33"/>
<path d="M185.993 180.319C173.879 178.298 161.795 181.658 150.18 184.827L150.584 184.376C150.275 186.364 149.998 188.353 149.823 190.358C149.189 196.356 149.221 202.417 149.839 208.423C150.204 212.432 150.885 216.41 151.804 220.332C152.81 224.071 153.365 228.667 157.034 230.798C153.207 228.92 152.327 224.214 151.186 220.49C150.14 216.568 149.324 212.575 148.833 208.534C147.89 200.325 148.064 191.974 149.522 183.837C152.581 183.029 155.647 182.213 158.737 181.499C167.611 179.463 177.008 178.187 185.977 180.319H185.993Z" fill="#7F7D33"/>
<path d="M193.188 191.76C182.539 186.444 170.305 189.169 159.347 192.029L159.775 191.554C159.355 195.191 159.149 198.851 159.212 202.512C159.664 212.369 161.051 226.425 169.386 232.842C158.396 225.727 157.034 203.304 158.65 191.411L158.705 191.023L159.078 190.928C170.115 188.115 182.816 185.627 193.196 191.76H193.188Z" fill="#7F7D33"/>
<path d="M196.777 201.522C194.97 199.897 192.554 199.366 190.224 199.129C183.141 198.432 175.954 198.748 168.95 199.977L169.418 199.541C168.768 202.385 168.403 205.293 168.308 208.217C168.158 214.088 168.966 219.967 170.376 225.664C171.121 228.405 171.549 231.733 174.243 233.278C171.391 231.995 170.662 228.524 169.774 225.822C167.239 217.265 166.145 208.035 168.285 199.263L168.372 198.891L168.744 198.828C173.49 198.012 178.323 197.695 183.117 197.924C187.681 198.352 193.291 198.067 196.769 201.522H196.777Z" fill="#7F7D33"/>
<path d="M197.236 211.172C191.484 206.561 183.521 204.762 176.39 206.616L176.826 206.093C176.699 208.478 176.675 210.863 176.818 213.248C177.087 218.026 177.896 222.756 179.219 227.36C179.861 229.626 180.661 232.034 182.689 233.437C180.487 232.28 179.417 229.784 178.609 227.558C176.145 220.696 175.162 213.304 175.661 206.022L175.693 205.602L176.097 205.499C183.505 203.621 191.817 205.784 197.229 211.172H197.236Z" fill="#7F7D33"/>
<path d="M199.645 220.403C195.62 216.465 189.892 214.262 184.29 214.674L184.829 214.112C184.836 220.474 185.074 229.174 189.701 234.007C184.203 229.705 183.561 220.585 183.664 214.072L183.688 213.549L184.203 213.517C190.066 213.129 196.08 215.736 199.645 220.403Z" fill="#7F7D33"/>
<path d="M69.8691 125.941C70.5505 121.1 69.2432 115.704 65.44 112.63C62.5955 110.332 58.6735 109.611 55.0763 110.293C51.487 110.966 48.2226 112.931 45.5763 115.451C44.2848 116.679 43.1121 118.057 42.3119 119.642C40.5212 123.176 40.7272 127.407 41.6384 131.266C42.296 134.039 43.3577 136.836 45.4574 138.753C48.2781 141.328 52.5805 141.851 56.2173 140.686C58.6973 139.894 61.2327 138.381 63.7286 139.141C64.8299 139.474 65.7569 140.227 66.8028 140.702C67.8487 141.178 69.2115 141.328 70.0593 140.544C71.2002 139.482 69.9563 138.785 69.5997 138.024C69.156 137.065 68.5063 136.717 68.4192 135.188C68.2448 132.066 69.4254 128.992 69.8612 125.933L69.8691 125.941Z" fill="#6D2929"/>
<path d="M69.8295 125.933C71.1527 116.465 64.5922 108.724 54.7831 110.689C48.8803 111.988 42.4228 116.766 41.3452 123.041C40.6876 127.248 41.6463 131.725 43.4607 135.52C45.3068 139.458 49.7281 141.407 53.9195 140.774C56.0112 140.56 57.9049 139.53 60.0521 138.896C61.1138 138.587 62.2944 138.412 63.4512 138.666C64.6318 138.912 65.5588 139.609 66.4621 140.116C67.3416 140.639 68.3795 140.94 69.2828 140.647C69.679 140.52 70.1068 140.163 70.2257 139.799C70.3366 139.466 69.9959 139.038 69.6631 138.595C69.1402 137.604 68.3875 136.717 68.2845 135.568C68.0626 132.264 69.362 129.15 69.8295 125.933ZM69.9087 125.941C69.4888 129.126 68.2607 132.272 68.6489 135.512C68.7282 136.329 69.2432 136.939 69.671 137.612C69.9325 138.167 70.2494 138.436 70.5901 138.943C71.2478 139.823 70.4079 140.98 69.5047 141.265C67.1435 142.113 65.3053 139.902 63.2769 139.442C62.3023 139.236 61.2723 139.371 60.274 139.672C58.2218 140.282 56.2172 141.392 54.0146 141.59C49.5537 142.224 44.7522 140.037 42.8902 135.798C41.0917 131.812 40.3627 127.296 41.0679 122.986C42.2088 116.782 48.6663 111.513 54.6405 110.047C64.9487 107.844 71.3666 116.203 69.9087 125.949V125.941Z" fill="#541E1E"/>
<path opacity="0.35" d="M70.0593 140.544C69.2115 141.328 67.8566 141.186 66.8028 140.702C65.7569 140.227 64.8299 139.474 63.7286 139.141C61.2407 138.381 58.6973 139.894 56.2173 140.686C52.5805 141.851 48.2702 141.328 45.4574 138.753C43.3577 136.836 42.2881 134.031 41.6384 131.266C40.7272 127.407 40.5212 123.176 42.3119 119.642C42.6129 122.629 42.922 125.648 44.3006 128.318C45.6793 130.988 47.9612 133.294 50.8373 134.181C52.0021 134.538 53.2381 134.657 54.4583 134.649C59.2281 134.593 63.9346 132.422 67.0801 128.841C66.367 132.977 67.3495 137.351 70.0593 140.552V140.544Z" fill="#541E1E"/>
<path d="M-4.3881 142.572C-12.6125 146.573 -19.2364 153.324 -24.4103 160.867C-26.7794 164.322 -28.8949 167.99 -30.2577 171.952C-33.6568 181.832 -32.2148 192.846 -35.3999 202.789C-36.3824 205.848 -37.8086 208.859 -37.7849 212.075C-35.4713 212.258 -33.4112 210.53 -32.1435 208.581C-30.8757 206.632 -30.123 204.374 -28.7602 202.496C-26.2644 199.065 -22.1046 197.354 -18.1826 195.746C-11.0754 192.846 -3.984 189.771 2.38634 185.493C8.75669 181.214 14.4219 175.636 17.7734 168.727C20.9982 162.071 21.9252 154.521 24.7855 147.699C25.6967 145.52 26.9803 143.127 26.5049 140.71C15.7451 139.973 6.01522 137.501 -4.39602 142.564L-4.3881 142.572Z" fill="#9E9C57"/>
<path d="M-4.36436 142.628C-10.4098 145.615 -15.6155 150.123 -19.8544 155.329C-24.0063 160.526 -27.8332 166.223 -29.9091 172.578C-32.9992 182.141 -31.8899 192.743 -34.988 202.401C-36.0021 205.626 -37.571 208.708 -37.571 212.068L-37.7611 211.869C-35.6535 212.028 -33.7836 210.578 -32.611 208.938C-31.3908 207.226 -30.6698 205.198 -29.5605 203.352C-27.342 199.549 -23.1981 197.52 -19.2998 195.872C-4.02366 189.629 12.8372 181.412 18.7321 164.868C20.19 160.923 21.1408 156.771 22.4006 152.674C23.0265 150.63 23.7872 148.602 24.6667 146.637C25.5303 144.727 26.4019 142.754 26.0532 140.805L26.4811 141.186C16.2046 140.195 5.31794 137.739 -4.36436 142.628ZM-4.41982 142.525C5.18323 137.58 16.268 139.64 26.5366 140.251L26.8931 140.266L26.9644 140.631C27.424 142.889 26.489 145.076 25.6412 147.073C24.8093 149.014 24.1437 151.003 23.5257 153.023C22.2976 157.064 21.3547 161.239 19.881 165.296C13.986 182.189 -3.50071 190.516 -19.07 196.459C-22.9287 198.004 -27.0171 199.85 -29.2119 203.566C-30.3053 205.356 -31.0422 207.393 -32.3178 209.16C-33.6252 210.934 -35.6456 212.519 -37.983 212.266C-38.0701 208.716 -36.4379 205.499 -35.5347 202.243C-33.6331 195.753 -33.6806 188.955 -32.9121 182.268C-32.3257 175.493 -30.2102 168.767 -26.3912 163.101C-20.8449 154.647 -13.595 147.001 -4.41982 142.525Z" fill="#7F7D33"/>
<path d="M26.6316 141.296C18.637 143.111 12.3301 148.705 5.98349 153.593C-11.0992 166.508 -21.4074 182.759 -31.2957 201.395C-33.1735 205.024 -35.3762 208.47 -37.3491 212.044C-35.4158 208.447 -33.2607 204.976 -31.4225 201.323C-18.0955 175.565 -8.56371 162.555 15.127 145.369C18.5895 143.04 22.2976 141.154 26.3781 140.14L26.6237 141.304L26.6316 141.296Z" fill="#7F7D33"/>
<path d="M-3.42944 142.081C1.68109 142.675 6.72032 144.149 11.3158 146.518C12.9639 147.326 14.0573 149.188 14.398 150.931C15.1824 154.283 15.7529 157.666 16.0778 161.073C16.4185 164.48 16.4898 167.911 16.2917 171.326C16.0223 167.919 15.642 164.543 15.1587 161.184C14.6516 157.832 14.0335 154.489 13.2491 151.216C12.9005 149.608 12.2191 148.301 10.7454 147.477C6.33209 145.068 1.47509 143.349 -3.42944 142.081Z" fill="#7F7D33"/>
<path d="M-14.7122 149.196C-8.61913 148.689 -2.36764 149.664 3.34507 151.89C4.07402 152.167 5.02482 152.508 5.53191 153.253C6.01524 153.974 6.11032 154.83 6.32425 155.606C8.36846 164.028 9.00232 172.839 7.98022 181.42C8.01191 172.308 7.07696 163.228 4.82674 154.449C4.56527 153.49 3.78879 153.308 2.93307 152.936C-2.65287 150.614 -8.62706 149.41 -14.7042 149.196H-14.7122Z" fill="#7F7D33"/>
<path d="M124.548 159.607C126.695 164.353 126.085 169.646 125.895 174.654C125.332 187.489 130.269 207.123 138.572 217.059C152.525 233.595 176.208 228.366 195.153 232.121C176.121 228.508 152.367 233.857 138.271 217.313C131.766 209.485 128.795 199.454 126.6 189.684C125.57 184.748 125 179.685 125.206 174.63C125.285 172.11 125.467 169.606 125.364 167.119C125.269 164.639 124.865 162.166 123.835 159.94C123.74 159.742 123.835 159.504 124.025 159.417C124.223 159.322 124.461 159.417 124.556 159.615L124.548 159.607Z" fill="#7F7D33"/>
<path d="M124.35 158.823C133.153 163.862 143.913 160.661 153.302 163.767C171.985 169.194 190.779 182.981 193.37 203.479C194.416 213.335 197.244 223.002 202.109 231.662C199.677 227.344 197.688 222.78 196.199 218.05C195.454 215.689 194.836 213.28 194.337 210.855C193.314 206.014 193.18 200.991 191.46 196.316C185.668 179.606 169.465 169.115 153.135 164.345C143.643 161.311 132.875 164.607 123.938 159.512C123.748 159.401 123.684 159.156 123.795 158.973C123.906 158.783 124.152 158.72 124.342 158.839L124.35 158.823Z" fill="#7F7D33"/>
<path d="M156.027 108.462C157.446 123.532 167.263 139.332 182.768 142.794C198.179 146.597 213.891 141.067 229.445 142.548C221.624 141.899 213.828 143.024 206.055 143.848C194.582 145.123 181.77 145.535 171.787 138.745C162.104 131.804 156.106 120.339 154.847 108.581L156.027 108.47V108.462Z" fill="#636128"/>
<path d="M225.626 132.858C221.918 127.058 217.996 121.314 212.861 116.718C202.743 107.741 188.513 102.575 175.035 102.163C168.142 102.203 161.257 104.168 155.385 107.813C161.225 104.112 168.102 102.068 175.035 101.965C188.624 102.258 202.949 107.313 213.257 116.275C218.503 120.878 222.528 126.646 226.299 132.422L225.634 132.85L225.626 132.858Z" fill="#636128"/>
<path d="M102.363 93.4C97.0065 87.9726 92.0941 82.1093 87.6966 75.8816C85.0423 72.1259 82.5623 68.196 81.0094 63.8698C78.4501 56.723 78.5769 48.9423 77.9747 41.3756C77.222 31.9389 75.2808 22.5973 72.2145 13.644C79.6941 22.4468 92.7438 23.6432 102.569 29.7362C107.212 32.6203 111.078 36.5661 114.897 40.4802C119.77 45.4798 124.699 50.5508 128.113 56.6359C132.86 65.098 134.381 75.327 132.297 84.8032C131.378 88.9788 129.801 92.9801 128.224 96.9576C126.529 101.252 124.944 105.61 123.13 109.849C122.179 112.075 121.696 113.494 121.014 113.945C120.333 114.397 119.437 113.866 117.655 112.186C115.064 109.754 113.479 105.309 111.11 102.496C108.4 99.2871 105.334 96.3713 102.371 93.3921L102.363 93.4Z" fill="#7F7F3C"/>
<path d="M102.323 93.4397C94.7088 85.548 87.356 77.1572 82.1028 67.467C78.6799 60.859 78.1253 53.2209 77.7608 45.9315C77.2537 34.9894 75.4868 24.1186 71.9926 13.7153L71.6202 12.5901L72.3888 13.4934C79.1078 21.3137 89.7805 23.1282 98.7259 27.3434C104.922 30.0928 109.969 34.815 114.652 39.6007C119.382 44.3706 124.207 49.1642 127.765 54.9323C133.161 63.6005 135.094 74.3524 133.002 84.3516C131.616 90.9993 128.692 97.1002 126.236 103.368C124.96 106.474 123.756 109.579 122.345 112.654C121.212 115.292 119.786 114.611 118.027 112.939C115.444 110.673 114.168 107.416 112.402 104.58C109.66 100.38 105.762 97.0606 102.323 93.4397ZM102.41 93.3525C105.92 96.9418 109.803 100.246 112.671 104.406C114.889 107.725 116.553 112.02 120.372 113.747C120.927 113.898 121.339 113.058 121.664 112.337C122.306 110.823 122.924 109.231 123.502 107.67L125.301 102.979C127.274 97.433 130.76 89.8266 131.814 84.106C133.779 74.4079 131.94 63.9808 126.798 55.5266C123.328 49.8377 118.621 45.0282 114.026 40.2187C111.704 37.8101 109.375 35.4093 106.831 33.27C99.2171 26.4639 88.8535 24.6257 80.019 19.943C77.0556 18.3583 74.2666 16.3616 72.0402 13.7945L72.4284 13.5726C74.8609 20.4897 76.6595 27.6444 77.7291 34.9181C79.5198 45.7175 78.0144 57.0716 82.8238 67.1263C87.7363 76.8958 94.8673 85.4846 102.41 93.3604V93.3525Z" fill="#636128"/>
<path d="M119.842 113.921C106.396 79.4154 91.3017 45.4402 72.2145 13.644C91.6504 45.2421 107.125 79.1064 120.951 113.486L119.849 113.921H119.842Z" fill="#636128"/>
<path d="M86.9757 23.0806C88.9803 28.9043 88.2672 35.2429 87.5303 41.2171C84.8126 39.4026 82.1108 37.5486 79.504 35.5757C78.7196 34.9735 77.9193 34.3872 77.1587 33.7533C78.0461 34.197 78.9018 34.6962 79.7734 35.1637C82.3643 36.5978 84.8918 38.1508 87.3956 39.7354L86.5082 40.1554C87.0787 34.4585 87.8076 28.7775 86.9836 23.0727L86.9757 23.0806Z" fill="#636128"/>
<path d="M78.1411 44.3547C80.32 45.361 83.3467 46.7713 85.5177 47.6904C87.9898 48.768 90.4777 49.7901 92.9894 50.7488L92.2288 51.1212C94.1541 44.4339 96.5311 34.6883 98.2505 27.8346C97.3948 35.8371 95.6279 43.7288 93.3301 51.4382L93.1479 52.0482C87.9264 49.9486 82.8555 47.429 78.1411 44.3468V44.3547Z" fill="#636128"/>
<path d="M78.5453 55.6692C84.876 58.5929 91.6187 60.653 98.52 61.5879L97.9019 61.9445C101.634 52.3097 105.54 42.675 106.942 32.3747C106.61 42.8176 102.806 52.7851 98.9716 62.3644L98.7973 62.7923L98.3536 62.721C91.3811 61.6434 84.5908 59.2902 78.5374 55.6692H78.5453Z" fill="#636128"/>
<path d="M115.08 40.195C114.406 52.3176 112.687 65.3594 105.128 75.3111C111.237 64.4879 112.742 52.2067 115.08 40.195Z" fill="#636128"/>
<path d="M123.328 49.1562C122.432 60.138 118.621 81.0555 108.844 87.0455L109.708 86.5147L108.923 87.1565L108.836 87.0455C111.379 84.7161 113.273 81.8241 114.771 78.7736C116.268 75.7152 117.377 72.4746 118.368 69.1864C120.364 62.61 121.941 55.9227 123.328 49.1483V49.1562Z" fill="#636128"/>
<path d="M128.525 56.8022C128.074 68.1009 125.214 79.2886 120.483 89.5493C118.835 92.8929 117.338 96.5773 114.422 99.0256C116.981 96.2445 118.138 92.576 119.628 89.1769C123.906 78.7736 126.743 67.9266 128.525 56.8022Z" fill="#636128"/>
<path d="M119.731 113.137C120.539 103.772 124.707 95.2462 126.949 86.2612C129.437 76.8958 128.945 68.0851 123.36 59.932C118.122 52.3494 112.433 44.9569 105.984 38.3568C99.4786 31.7804 91.2622 26.8521 82.2137 24.7604C91.3018 26.765 99.5975 31.622 106.19 38.1429C112.742 44.7034 118.51 52.0404 123.859 59.6071C133.097 72.7044 128.304 86.0551 123.811 99.8021C122.44 104.207 121.26 108.676 120.911 113.232L119.723 113.137H119.731Z" fill="#636128"/>
<path d="M78.3392 28.8805C81.5323 47.009 80.2804 67.2531 91.7772 82.7036L91.1433 83.179C79.7654 67.4591 81.2788 47.1596 78.3392 28.8884V28.8805Z" fill="#636128"/>
<path d="M25.1975 141.4C23.4148 147.12 20.1187 155.337 17.9715 161.033C13.1303 175.351 1.96636 183.48 -11.2814 189.518C-14.4508 190.976 -17.6755 192.323 -20.5993 194.224C-23.5467 196.086 -26.2882 198.257 -29.0217 200.42C-26.3199 198.218 -23.6101 196.007 -20.6864 194.097C-17.7786 192.148 -14.5538 190.746 -11.4161 189.248C-2.10623 184.764 7.12443 178.988 12.7341 170.098C14.5961 167.19 15.9114 163.965 17.1316 160.717C18.2963 157.523 21.3864 149.093 22.5036 145.987C23.0503 144.355 23.4781 142.667 24.0803 140.98L25.1975 141.392V141.4Z" fill="#7F7D33"/>
<path d="M23.9774 141.843C16.7751 141.4 9.43016 141.756 2.4418 143.658C-11.4874 147.73 -23.1901 158.815 -27.5242 172.744C-29.8695 179.63 -31.0659 186.848 -32.1672 194.026C-31.1293 186.832 -29.9963 179.614 -27.7143 172.681C-25.48 165.724 -21.7639 159.219 -16.4078 154.204C-8.53991 146.478 2.03771 141.804 13.067 141.186C16.7117 140.877 20.3723 140.845 24.0249 141.051L23.9774 141.843Z" fill="#7F7D33"/>
<path opacity="0.5" d="M240.006 147.493C219.826 139.545 195.628 151.248 175.788 142.485C166.605 138.428 159.799 130.196 156.336 120.902C154.823 116.837 152.319 110.95 155.607 107.717C155.607 107.717 197.585 109.025 240.006 147.5V147.493Z" fill="#707028"/>
<path opacity="0.5" d="M121.014 113.945C121.244 114.73 122.179 112.075 123.13 109.849C124.944 105.61 126.529 101.252 128.224 96.9576C129.801 92.9801 131.378 88.9788 132.297 84.8032C134.381 75.327 132.86 65.098 128.113 56.6359C124.699 50.5508 119.77 45.4719 114.897 40.4802C111.078 36.5661 107.22 32.6124 102.569 29.7362C92.7517 23.6432 79.702 22.4468 72.2145 13.644C72.2145 13.644 113.329 87.5289 121.014 113.945Z" fill="#707028"/>
<path opacity="0.5" d="M61.8508 0.30901C58.737 12.6456 63.7524 25.3625 66.272 37.8338C68.855 50.6141 68.6332 64.5909 62.0727 75.8658C55.6706 86.8633 44.475 93.5981 35.1413 101.799C32.907 103.764 31.3381 104.667 30.1259 104.715L29.3652 104.461L31.0529 92.4096L34.967 81.2774L39.9429 67.9741L43.231 57.7768L44.4037 53.3635L47.47 42.0015L49.4191 33.7216L52.4142 23.3738L53.4759 19.7766L54.8387 15.8149L55.9559 12.8595L57.4613 9.15143L58.4596 6.85367L59.244 5.11054L60.8445 1.8699L61.629 0.364473L61.8508 0.301086V0.30901Z" fill="#707028"/>
<path d="M122.258 88.8837C117.821 79.6531 110.389 71.8961 101.349 67.0867C92.3159 62.2693 81.7304 60.4232 71.5964 61.8811C57.2235 63.957 44.1659 72.4111 29.6663 73.2669C38.7226 82.5768 48.3177 91.3716 58.3962 99.5723C61.9538 102.472 65.6223 105.325 69.7979 107.226C74.33 109.294 79.3058 110.166 84.242 110.823C92.4664 111.917 101.008 112.448 108.891 109.865C116.284 107.44 122.52 103.225 130.578 103.859C131.402 101.593 127.923 99.7783 126.751 98.0906C124.809 95.3016 123.716 91.9342 122.258 88.8996V88.8837Z" fill="#9E9C57"/>
<path d="M122.203 88.9075C114.668 73.045 97.9019 62.5625 80.4706 61.9603C62.6511 60.8352 47.1531 72.1814 29.6822 73.4729L29.8248 73.1163C36.5596 79.9621 43.6272 86.475 50.9246 92.6948C56.463 97.2191 61.7795 102.163 68.0231 105.673C74.3379 109.104 81.5799 109.896 88.6475 110.712C93.3935 111.196 98.1792 111.315 102.878 110.657C110.088 109.817 116.355 105.832 123.367 104.176C125.736 103.645 128.185 103.423 130.601 103.637L130.395 103.772C130.99 101.537 128.351 100.182 127.115 98.7007C124.809 95.8087 123.795 92.1719 122.211 88.8996L122.203 88.9075ZM122.314 88.852C123.93 92.1006 124.984 95.6978 127.289 98.5343C128.652 100.103 131.418 101.45 130.768 103.914L130.72 104.057H130.562C125.752 103.724 121.141 105.317 116.783 107.218C112.378 109.16 107.854 111.117 103.036 111.806C98.2109 112.535 93.3222 112.392 88.5128 111.925C78.2838 110.95 69.5681 109.358 61.3913 102.647C50.0688 93.6853 39.5229 83.789 29.5078 73.4016L29.1909 73.0688L29.6505 73.0371C38.4136 72.5221 46.6697 69.2498 54.8308 66.2151C63.0076 63.125 71.652 60.4232 80.5102 60.9065C98.2981 61.3819 114.779 72.8707 122.306 88.8362L122.314 88.852Z" fill="#7F7D33"/>
<path d="M30.4427 73.6552C64.3466 80.9842 97.7434 90.714 130.403 102.504C130.815 102.654 131.029 103.106 130.879 103.518C130.728 103.93 130.277 104.144 129.865 103.994C97.4502 91.7362 64.2357 81.5072 30.4427 73.6552Z" fill="#7F7D33"/>
<path d="M113.511 78.116C116.292 84.9221 118.899 91.7282 121.276 98.6849C122.504 102.52 118.368 104.675 115.436 105.776C113.495 106.569 111.554 107.353 109.573 108.05C105.635 109.484 101.618 110.689 97.5453 111.671C101.483 110.253 105.374 108.755 109.24 107.187C111.165 106.386 113.091 105.594 114.992 104.738C117.401 103.677 121.085 102.219 120.151 98.986C117.853 92.0769 115.5 85.1281 113.503 78.116H113.511Z" fill="#7F7D33"/>
<path d="M101.65 67.2134C106.847 76.5867 110.706 86.681 113.313 97.0764C109.129 101.315 103.496 103.605 97.989 105.499C93.2509 107.099 86.5082 109.421 81.778 110.863C86.318 108.985 93.0053 106.394 97.6642 104.619C102.878 102.607 108.218 100.428 112.243 96.4742L112.085 97.0368C109.541 86.7999 105.984 76.8323 101.65 67.2134Z" fill="#7F7D33"/>
<path d="M85.4464 61.6513C93.2192 68.7664 97.3076 78.8607 100.667 88.6302C100.905 89.3274 101.515 91.1181 101.745 91.7916C102.402 93.3921 101.959 94.3667 100.493 95.2066C91.2621 101.506 80.5498 105.713 69.4572 107.171C78.1332 105.325 86.5319 102.195 94.2175 97.7579C96.3885 96.4901 98.6387 95.1511 100.627 93.6377C100.818 93.4396 100.857 93.3287 100.849 93.0831C100.841 92.6236 100.406 91.6094 100.271 91.1102L99.5657 89.0026C96.2776 79.2807 92.5774 69.2656 85.4385 61.6513H85.4464Z" fill="#7F7D33"/>
<path d="M73.197 60.9065C80.7876 65.5416 85.2088 73.774 88.4653 81.7844C89.2655 83.7336 90.0499 85.9283 90.7868 87.9171C91.4603 89.4859 91.8643 91.2766 90.1846 92.5047C81.1124 98.7166 69.7583 101.545 58.84 100.436C67.5001 100.626 76.2 98.7562 83.9331 94.842C85.2088 94.1844 86.4765 93.5109 87.6967 92.7503C88.901 91.9976 90.3114 91.2607 90.2163 90.2148C90.1529 89.2165 89.2814 87.307 88.9565 86.2611C85.5415 76.8799 81.5403 66.9837 73.2049 60.9065H73.197Z" fill="#7F7D33"/>
<path d="M64.1882 63.1964C70.5506 69.5905 75.4868 77.3632 78.7988 85.7461L78.9573 86.1502L78.6166 86.4196C71.4856 92.1719 62.2391 95.3571 53.0718 94.9371C62.0489 94.4221 70.8755 91.1577 77.8718 85.4926L77.6895 86.174C74.4489 77.8624 69.8058 70.1213 64.1803 63.1964H64.1882Z" fill="#7F7D33"/>
<path d="M54.5138 66.2944C58.4517 70.7473 61.4309 76.0163 63.4434 81.6101L63.6257 82.1014L63.1503 82.3391C58.7053 84.5259 54.0543 86.3007 49.2607 87.5843C47.7236 87.925 45.8616 88.6777 44.4037 87.7349C45.9883 88.4084 47.581 87.513 49.0785 87.0059C53.6898 85.3183 58.214 83.4246 62.6273 81.2853L62.3342 82.0063C60.3929 76.4679 57.699 71.2227 54.5138 66.3023V66.2944Z" fill="#7F7D33"/>
<path d="M44.7444 69.8123C47.7077 72.1972 49.8708 75.5092 51.2256 79.043C47.47 80.9287 43.4212 82.3153 39.2297 82.759C42.9695 81.3645 46.6381 79.9621 50.2194 78.2269L49.9262 78.9717C48.6585 75.6676 46.8678 72.6568 44.7444 69.8044V69.8123Z" fill="#7F7D33"/>
<path d="M128.256 102.995C123.146 98.78 121.006 92.2432 117.393 86.9188C106.118 69.9233 85.9773 64.4086 66.5255 67.3165C58.008 68.4258 49.6885 70.7156 41.4482 73.1164C49.6647 70.6284 57.9525 68.2356 66.4859 67.0233C88.9485 63.4262 110.722 70.9295 121.545 91.9263C123.629 95.6582 125.729 99.4614 129.001 102.068L128.256 102.995Z" fill="#7F7D33"/>
<path d="M127.353 102.837C118.875 103.859 110.801 107.226 102.204 108.296C89.4636 110.071 75.7958 108.24 64.9488 100.991C61.3437 98.6374 57.9525 95.9989 54.49 93.4476C47.6126 88.3053 40.8302 82.973 34.9353 76.6977C40.8778 82.9175 47.6918 88.2023 54.601 93.2812C58.0793 95.8008 61.4943 98.4155 65.0994 100.737C75.9226 107.852 89.4794 109.564 102.109 107.702C110.603 106.584 118.621 103.162 127.242 102.044L127.337 102.829L127.353 102.837Z" fill="#7F7D33"/>
<path d="M69.671 138.222C72.5075 134.387 75.4312 130.465 79.4087 127.827C83.3862 125.188 88.7028 124.047 92.9814 126.179C94.3996 126.884 95.6357 127.906 96.737 129.047C101.681 134.173 103.773 142.231 100.944 148.768C100.398 150.028 99.6845 151.216 98.7733 152.231C97.5056 153.641 95.8892 154.695 94.2016 155.558C91.6502 156.874 88.8929 157.801 86.0643 158.3C84.4163 158.593 82.7048 158.736 81.0647 158.387C78.6085 157.864 76.4771 156.264 74.9241 154.291C73.3712 152.318 72.3332 149.996 71.4617 147.643C71.0813 146.629 70.7089 145.567 69.9404 144.799C69.1956 144.054 68.1418 143.65 67.5158 142.81C66.2956 141.186 68.7994 139.395 69.671 138.222Z" fill="#6D2929"/>
<path d="M69.6393 138.198C73.4821 132.969 77.6102 127.106 84.1944 125.268C86.3417 124.65 88.6632 124.539 90.8579 125.07C97.26 126.852 101.34 133.983 102.204 140.219C103.448 151.082 96.8084 156.319 86.9755 158.546C82.3642 159.75 77.7766 158.649 74.8053 154.742C72.6343 152.143 71.7707 148.855 70.495 145.852C70.0117 144.846 69.0768 144.291 68.2131 143.642C65.6301 141.764 68.3082 139.791 69.6472 138.206L69.6393 138.198ZM69.7027 138.246C68.5063 139.743 65.7965 141.819 68.3399 143.46C69.2432 144.07 70.2811 144.656 70.812 145.67C72.2382 148.602 73.2206 151.795 75.3837 154.267C78.347 157.928 82.3087 158.847 86.8012 157.745C90.9372 156.842 95.2316 155.234 98.3138 152.262C101.285 149.133 102.45 144.513 101.927 140.266C101.158 134.047 97.0223 127.359 90.6995 125.719C81.6194 123.849 74.4805 131.527 69.7027 138.254V138.246Z" fill="#541E1E"/>
<path opacity="0.35" d="M100.936 148.768C100.39 150.028 99.6766 151.216 98.7654 152.231C97.4977 153.641 95.8813 154.695 94.1937 155.558C91.6424 156.874 88.885 157.801 86.0564 158.3C84.4084 158.593 82.6969 158.736 81.0568 158.387C78.6006 157.864 76.4692 156.264 74.9162 154.291C73.3633 152.318 72.3253 149.996 71.4538 147.643C71.0734 146.629 70.701 145.567 69.9325 144.799C69.1877 144.054 68.1339 143.65 67.5079 142.81C69.3224 141.748 70.9625 141.819 72.8403 142.762C74.7261 143.705 76.3108 145.131 78.0935 146.249C80.621 147.825 83.5526 148.752 86.5239 148.911C88.3859 149.014 90.2479 148.816 92.1098 148.626C94.9464 148.332 98.0919 149.053 100.928 148.76L100.936 148.768Z" fill="#541E1E"/>
<path d="M77.0001 154.806C75.9622 153.784 75.5264 152.175 75.9147 150.765C76.3663 152.167 76.6832 153.372 77.0001 154.806Z" fill="#541E1E"/>
<path d="M78.9493 156.05C77.9192 154.861 77.4597 153.197 77.7449 151.652C78.2917 153.142 78.6561 154.497 78.9493 156.05Z" fill="#541E1E"/>
<path d="M81.0093 156.145C80.0744 155.455 79.6307 154.204 79.9318 153.086C80.4705 154.124 80.7795 155.004 81.0093 156.145Z" fill="#541E1E"/>
<path d="M82.483 155.764C81.556 154.909 81.0569 153.704 81.1123 152.445C81.8492 153.475 82.277 154.513 82.483 155.764Z" fill="#541E1E"/>
<path d="M84.0361 156.264C83.22 155.503 82.8951 154.33 83.2041 153.253C83.7191 154.251 83.9648 155.139 84.0361 156.264Z" fill="#541E1E"/>
<path d="M85.5733 155.257C84.9077 154.727 84.67 153.871 84.9632 153.071C85.4782 153.76 85.6604 154.41 85.5733 155.257Z" fill="#541E1E"/>
<path d="M87.4669 154.877C86.8092 154.338 86.5478 153.522 86.7934 152.706C87.3559 153.356 87.562 154.029 87.4669 154.877Z" fill="#541E1E"/>
<path d="M88.4176 153.181C87.8789 153.078 87.7283 152.46 88.172 152.128C88.5761 152.508 88.6078 152.666 88.4176 153.181Z" fill="#541E1E"/>
<path d="M90.5174 153.871C90.0657 153.498 90.0974 152.896 90.5966 152.587C90.8977 153.094 90.8739 153.403 90.5174 153.871Z" fill="#541E1E"/>
<path d="M91.8088 153.197C91.6662 152.571 91.896 152.096 92.4744 151.835C92.6249 152.46 92.3872 152.936 91.8088 153.197Z" fill="#541E1E"/>
<path d="M94.0986 152.548C94.1779 151.827 94.5899 151.351 95.2871 151.161C95.2079 151.882 94.7959 152.357 94.0986 152.548Z" fill="#541E1E"/>
<path d="M96.5708 151.248C96.4915 150.614 96.9511 150.115 97.5929 150.155C97.4423 150.781 97.1809 151.05 96.5708 151.248Z" fill="#541E1E"/>
<path d="M98.4169 149.616C98.3377 149.077 98.5912 148.768 99.138 148.752C99.2172 149.291 98.9557 149.6 98.4169 149.616Z" fill="#541E1E"/>
<path d="M74.0368 150.757C73.4505 150.123 73.3237 149.228 73.7278 148.459C74.1478 149.22 74.2428 149.909 74.0368 150.757Z" fill="#541E1E"/>
<path d="M73.0148 147.699C72.5077 147.461 72.373 147.057 72.6424 146.565C73.1495 146.803 73.2762 147.207 73.0148 147.699Z" fill="#541E1E"/>
<path d="M71.9214 145.916C71.4301 145.71 71.3033 145.353 71.5807 144.894C72.0798 145.092 72.1907 145.456 71.9214 145.916Z" fill="#541E1E"/>
<path d="M70.2654 143.951C69.7503 143.673 69.5998 143.238 69.8534 142.707C70.3763 142.984 70.5189 143.42 70.2654 143.951Z" fill="#541E1E"/>
<path d="M42.3832 128.936C42.7397 128.667 42.9695 128.778 42.9774 129.229C42.6209 129.507 42.3911 129.388 42.3832 128.936Z" fill="#541E1E"/>
<path d="M42.6288 130.869C43.4449 130.695 43.9441 130.695 44.7602 130.869C44.2214 131.511 43.1676 131.503 42.6288 130.869Z" fill="#541E1E"/>
<path d="M43.3419 132.747C44.3799 132.731 45.0375 132.7 46.0675 132.613C45.4733 133.476 44.0233 133.547 43.3419 132.747Z" fill="#541E1E"/>
<path d="M43.9282 134.855C45.5683 135.132 46.8598 134.475 48.4604 134.237C47.2877 135.243 45.2593 135.972 43.9282 134.855Z" fill="#541E1E"/>
<path d="M46.0437 136.685C47.7155 136.13 49.1893 135.639 50.869 135.1C49.6409 136.352 47.771 136.962 46.0437 136.685Z" fill="#541E1E"/>
<path d="M48.3177 138.278C50.7819 137.612 52.8816 136.487 54.8069 134.807C53.563 137.042 50.8691 138.484 48.3177 138.278Z" fill="#541E1E"/>
<path d="M52.5488 139.538C54.4267 138.46 55.94 137.24 57.3979 135.647C56.6848 137.683 54.6881 139.284 52.5488 139.538Z" fill="#541E1E"/>
<path d="M57.8177 138.301C58.7448 137.208 59.6559 136.36 60.8207 135.52C60.3215 136.852 59.1885 137.905 57.8177 138.301Z" fill="#541E1E"/>
<path d="M62.3975 136.955C62.6352 136.091 63.1898 135.489 64.0217 135.18C63.784 136.043 63.2294 136.646 62.3975 136.955Z" fill="#541E1E"/>
<path d="M64.1643 137.406C64.7189 136.733 65.123 136.384 65.8837 135.94C65.8758 136.812 65.0279 137.533 64.1643 137.406Z" fill="#541E1E"/>
<path d="M65.7174 138.42C65.86 137.85 66.4384 137.628 66.9297 137.961C66.581 138.444 66.2958 138.547 65.7174 138.42Z" fill="#541E1E"/>
<path d="M67.0564 139.411C66.993 138.769 68.0706 138.832 67.928 139.466C67.3337 139.577 67.6348 139.593 67.0564 139.411Z" fill="#541E1E"/>
<path d="M144.435 110.332C144.459 109.651 144.562 109.381 145.006 108.858C145.426 109.397 145.101 110.213 144.435 110.332Z" fill="#541E1E"/>
<path d="M146.242 109.009C146.416 107.725 146.464 106.743 146.424 105.451C147.288 106.426 147.193 108.13 146.242 109.009Z" fill="#541E1E"/>
<path d="M147.993 107.282C147.914 105.253 147.716 103.439 147.359 101.442C148.5 103.114 148.746 105.404 147.993 107.282Z" fill="#541E1E"/>
<path d="M149.609 105.832C149.522 103.146 149.316 100.626 148.96 97.956C150.117 100.373 150.346 103.257 149.609 105.832Z" fill="#541E1E"/>
<path d="M151.654 104.326C151.939 101.212 151.891 98.2412 151.519 95.1432C152.707 98.0194 152.747 101.418 151.654 104.326Z" fill="#541E1E"/>
<path d="M154.395 102.385C155.053 98.574 155.536 94.9451 154.752 91.1102C156.352 94.7153 155.853 98.8355 154.395 102.385Z" fill="#541E1E"/>
<path d="M156.931 101.054C157.652 99.3267 157.842 97.5202 158.119 95.6899C158.396 93.8755 158.642 92.061 158.095 90.2625C159.102 91.8867 158.983 93.9626 158.705 95.7771C158.412 97.5994 158.064 99.5407 156.931 101.054Z" fill="#541E1E"/>
<path d="M160.464 99.6991C160.758 96.2446 162.057 92.8455 160.623 89.4464C162.865 92.5127 161.582 96.4585 160.464 99.6991Z" fill="#541E1E"/>
<path d="M163.127 96.2207C163.309 93.4634 163.119 90.8804 162.548 88.1707C163.911 90.5635 164.133 93.6536 163.127 96.2207Z" fill="#541E1E"/>
<path d="M164.608 90.3417C164.046 89.0264 163.721 87.7825 163.586 86.3563C164.481 87.4655 164.862 88.9393 164.608 90.3417Z" fill="#541E1E"/>
<path d="M164.442 85.5798C163.824 84.8112 163.539 84.0189 163.547 83.0364C164.291 83.6782 164.616 84.6131 164.442 85.5798Z" fill="#541E1E"/>
<path d="M163.459 81.4676C162.849 81.3249 162.532 80.9129 162.572 80.2791C163.19 80.4217 163.491 80.8337 163.459 81.4676Z" fill="#541E1E"/>
<path d="M73.6486 183.369C74.0606 182.585 74.2983 182.181 74.7895 181.444C75.1857 182.252 74.5439 183.33 73.6486 183.369Z" fill="#8E8373"/>
<path d="M75.7086 181.27C75.5501 180.485 75.5581 180.034 75.772 179.257C76.3821 179.78 76.3425 180.786 75.7086 181.27Z" fill="#8E8373"/>
<path d="M76.8575 179.63C76.6198 178.552 76.604 177.641 76.8338 176.563C77.4201 177.49 77.428 178.695 76.8575 179.63Z" fill="#8E8373"/>
<path d="M78.1966 177.712C77.8162 176.864 77.7211 176.143 77.8796 175.232C78.5135 175.906 78.6323 176.904 78.1966 177.712Z" fill="#8E8373"/>
<path d="M79.1948 175.898C79.0205 175.185 79.0601 174.788 79.3692 174.123C79.8921 174.63 79.8049 175.501 79.1948 175.898Z" fill="#8E8373"/>
<path d="M80.9142 173.727C80.4943 173.307 80.4784 172.839 80.8746 172.396C81.2945 172.815 81.3104 173.283 80.9142 173.727Z" fill="#8E8373"/>
<path d="M83.0061 171.064C82.6812 170.676 82.7525 170.351 83.22 170.145C83.5449 170.534 83.4656 170.858 83.0061 171.064Z" fill="#8E8373"/>
<path d="M85.4464 168.038C85.0899 167.602 85.5653 166.992 86.0724 167.245C85.9535 167.792 85.9456 167.8 85.4464 168.038Z" fill="#8E8373"/>
<path d="M88.172 165.043C87.863 164.765 87.9264 164.654 88.3226 164.749C88.6316 165.027 88.5682 165.138 88.172 165.043Z" fill="#8E8373"/>
<path d="M89.3922 163.616C89.6537 162.539 90.4698 161.683 91.5394 161.382C90.9769 162.341 90.3272 163.014 89.3922 163.616Z" fill="#8E8373"/>
<path d="M19.2154 178.94C19.77 179.035 19.9364 179.669 19.4927 180.018C19.0886 179.63 19.049 179.471 19.2154 178.94Z" fill="#8E8373"/>
<path d="M20.7525 181.056C21.3864 181.523 21.5845 182.323 21.2359 183.029C20.7605 182.395 20.6258 181.832 20.7525 181.056Z" fill="#8E8373"/>
<path d="M22.6303 183.726C23.28 184.669 23.3672 185.921 22.8363 186.935C22.5431 185.818 22.4797 184.867 22.6303 183.726Z" fill="#8E8373"/>
<path d="M24.5637 187.529C25.15 189.28 25.3322 191.087 25.1024 192.917C24.5161 191.166 24.3418 189.359 24.5637 187.529Z" fill="#8E8373"/>
<path d="M26.3306 192.521C27.3131 193.836 27.6062 195.65 27.0753 197.203C26.7663 195.587 26.5366 194.153 26.3306 192.521Z" fill="#8E8373"/>
<path d="M28.1212 198.685C28.6124 200.072 28.7075 201.553 28.3826 202.987C27.8835 201.561 27.8042 200.159 28.1212 198.685Z" fill="#8E8373"/>
<path d="M29.389 204.16C29.9515 204.952 30.1179 205.848 29.8723 206.783C29.3097 205.99 29.1513 205.095 29.389 204.16Z" fill="#8E8373"/>
<path d="M30.4823 208.558C31.2509 209.255 31.4331 210.475 30.9102 211.37C30.5932 210.372 30.4823 209.603 30.4823 208.558Z" fill="#8E8373"/>
<path d="M31.7025 213.739C32.3126 214.175 32.4473 215.023 31.9878 215.617C31.6154 214.96 31.5441 214.484 31.7025 213.739Z" fill="#8E8373"/>
<path d="M32.281 217.495C32.6613 217.899 32.693 218.066 32.4791 218.581C31.9403 218.446 31.8293 217.812 32.281 217.495Z" fill="#8E8373"/>
<path d="M32.9544 222.035C33.1842 221.988 33.2396 221.995 33.2634 222.019C33.2634 222.043 33.2238 222.091 33.0019 222.186C32.5978 222.265 32.5899 222.209 32.9544 222.035Z" fill="#8E8373"/>
<path opacity="0.35" d="M-6.50361 51.2401C-5.33889 51.9532 -4.2534 52.8247 -3.37391 53.8706C-2.15372 55.3206 -1.33762 57.0716 -0.711674 58.8544C0.239124 61.5642 0.769987 64.4245 0.87299 67.2927C0.928453 68.9645 0.841293 70.676 0.262892 72.2527C-0.592827 74.6139 -2.47858 76.4996 -4.64164 77.7594C-6.81263 79.0272 -9.26093 79.7244 -11.7092 80.2632C-12.771 80.493 -13.8723 80.7227 -14.7359 81.3725C-15.5758 82.0063 -16.1225 82.9888 -17.0416 83.4959C-16.6613 79.043 -13.3256 76.3491 -10.3306 73.0371C-7.58911 70.0025 -5.56074 66.2548 -4.87933 62.2218C-4.19793 58.1888 -4.23755 54.6313 -6.50361 51.2242V51.2401Z" fill="#541E1E"/>
<path opacity="0.5" d="M44.7523 122.391C44.8315 123.311 45.2515 124.325 46.1309 124.602C47.0738 124.895 48.0405 124.198 48.6585 123.429C49.2765 122.653 49.7757 121.726 50.6472 121.266C50.8849 121.14 51.1464 121.052 51.3841 120.934C52.5884 120.331 53.2302 118.802 52.8182 117.527C51.9942 114.936 48.9833 115.356 47.264 116.695C45.6714 117.939 44.578 120.403 44.7444 122.399L44.7523 122.391Z" fill="#A88547"/>
<path opacity="0.5" d="M95.1841 145.528C95.303 146.225 95.6516 146.93 95.4535 147.611C95.3426 147.992 95.0653 148.301 94.8989 148.665C94.7325 149.03 94.7166 149.521 95.0415 149.751C95.2316 149.885 95.4852 149.893 95.7229 149.862C98.3297 149.553 101.879 145.528 99.9698 142.929C98.195 140.512 94.7483 142.913 95.1841 145.528Z" fill="#A88547"/>
<path opacity="0.5" d="M152.39 74.2494C151.4 74.4633 150.425 74.9466 149.863 75.7786C149.3 76.6105 149.253 77.8466 149.942 78.5834C150.528 79.2094 151.455 79.3441 152.311 79.3361C153.167 79.3203 154.038 79.1935 154.863 79.4233C155.449 79.5897 155.988 79.9225 156.582 80.0492C157.184 80.176 157.921 79.9938 158.143 79.4233C158.27 79.0905 158.19 78.7181 158.103 78.3774C157.889 77.5138 157.628 76.6422 157.136 75.8974C156.051 74.2335 154.229 73.8532 152.383 74.2494H152.39Z" fill="#A88547"/>
<path d="M50.053 117.978C49.2527 117.186 47.7314 118.43 47.2164 119.064C46.5033 119.935 46.2181 121.14 46.8757 122.13C48.4683 122.288 50.0767 121.1 50.3937 119.531C50.5046 118.984 50.4491 118.366 50.053 117.97V117.978Z" fill="#541E1E"/>
<path d="M98.7813 146.098C98.8843 145.757 98.8368 145.377 98.6704 145.068C98.5516 144.846 98.2108 144.466 97.9415 144.418C97.886 144.41 97.8385 144.418 97.783 144.434C96.745 144.688 96.3568 146.138 96.7371 147.033C96.7847 147.152 96.848 147.263 96.959 147.326C97.1174 147.421 97.3155 147.382 97.4898 147.326C98.0761 147.12 98.607 146.684 98.7813 146.09V146.098Z" fill="#541E1E"/>
<path d="M155.528 76.6581C155.362 76.1906 154.91 75.9846 154.451 75.8975C153.864 75.7786 153.191 75.6122 152.596 75.7469C152.153 75.8499 151.741 76.2223 151.749 76.6819C151.764 77.3316 152.533 77.6485 153.175 77.7594C153.547 77.8308 153.928 77.8783 154.3 77.9179C154.554 77.9417 154.823 77.9654 155.061 77.8624C155.496 77.6802 155.687 77.1018 155.52 76.6581H155.528Z" fill="#541E1E"/>
</g>
<defs>
<clipPath id="clip0_47_516">
<rect width="510" height="304.406" fill="white" transform="translate(-166)"/>
</clipPath>
</defs>
</svg>
