<svg width="20" height="20" viewBox="0 0 20 20" fill="none" xmlns="http://www.w3.org/2000/svg">
<path d="M10 13C8.4087 13 6.88258 12.3679 5.75736 11.2426C4.63214 10.1174 4 8.5913 4 7C4 5.4087 4.63214 3.88258 5.75736 2.75736C6.88258 1.63214 8.4087 1 10 1C11.5913 1 13.1174 1.63214 14.2426 2.75736C15.3679 3.88258 16 5.4087 16 7C16 8.5913 15.3679 10.1174 14.2426 11.2426C13.1174 12.3679 11.5913 13 10 13ZM10 13L13.4 18.89L14.998 15.657L18.596 15.889L15.196 10M4.8021 10L1.4021 15.89L5.0001 15.657L6.5981 18.889L9.9981 13" stroke="#6E8382" stroke-width="1.5" stroke-linecap="round" stroke-linejoin="round"/>
</svg>
